<?xml version="1.0" encoding="UTF-8" standalone="no"?>
<!DOCTYPE svg PUBLIC "-//W3C//DTD SVG 1.1//EN"
 "http://www.w3.org/Graphics/SVG/1.1/DTD/svg11.dtd">
<!-- Generated by graphviz version 8.1.0 (20230707.0739)
 -->
<!-- Pages: 1 -->
<svg width="404pt" height="269pt"
 viewBox="0.00 0.00 404.00 269.00" xmlns="http://www.w3.org/2000/svg" xmlns:xlink="http://www.w3.org/1999/xlink">
<g id="graph0" class="graph" transform="scale(1 1) rotate(0) translate(4 265)">
<polygon fill="white" stroke="none" points="-4,4 -4,-265 400,-265 400,4 -4,4"/>
<!-- n0 -->
<g id="node1" class="node">
<title>n0</title>
<polygon fill="#ffffff" stroke="black" points="248,-36 68,-36 68,0 248,0 248,-36"/>
<text text-anchor="start" x="110.75" y="-13.2" font-family="Helvetica,sans-Serif" font-size="10.00">n0</text>
<text text-anchor="start" x="121.25" y="-13.2" font-family="Helvetica,sans-Serif" font-size="14.00">: it&#39;s very slow</text>
</g>
<!-- n1 -->
<g id="node2" class="node">
<title>n1</title>
<polygon fill="#ffffff" stroke="black" points="396,-261 216,-261 216,-210 396,-210 396,-261"/>
<text text-anchor="start" x="240.75" y="-244.7" font-family="Helvetica,sans-Serif" font-size="10.00">n1</text>
<text text-anchor="start" x="251.25" y="-244.7" font-family="Helvetica,sans-Serif" font-size="14.00">: the network is very</text>
<text text-anchor="start" x="283.88" y="-230.7" font-family="Helvetica,sans-Serif" font-size="14.00">rubbish</text>
<polygon fill="#00bbea" stroke="none" points="240.75,-214 240.75,-229 371.25,-229 371.25,-214 240.75,-214"/>
<text text-anchor="start" x="288.75" y="-215.7" font-family="Helvetica,sans-Serif" font-size="14.00" fill="#000000">#NET</text>
</g>
<!-- n3 -->
<g id="node4" class="node">
<title>n3</title>
<polygon fill="#ffffff" stroke="black" points="396,-141 216,-141 216,-105 396,-105 396,-141"/>
<text text-anchor="start" x="235.88" y="-124.7" font-family="Helvetica,sans-Serif" font-size="10.00">n3</text>
<text text-anchor="start" x="246.38" y="-124.7" font-family="Helvetica,sans-Serif" font-size="14.00">: we forgot to initialise</text>
<text text-anchor="start" x="267" y="-110.7" font-family="Helvetica,sans-Serif" font-size="14.00">the terraform</text>
</g>
<!-- n1&#45;&gt;n3 -->
<g id="edge2" class="edge">
<title>n1&#45;&gt;n3</title>
<path fill="none" stroke="#000000" stroke-width="3" d="M306,-209.7C306,-193.56 306,-172.37 306,-155.1"/>
<polygon fill="#000000" stroke="#000000" stroke-width="3" points="309.5,-155.16 306,-145.16 302.5,-155.16 309.5,-155.16"/>
<text text-anchor="middle" x="313.5" y="-169.7" font-family="Helvetica,sans-Serif" font-size="14.00">e3</text>
</g>
<!-- n2 -->
<g id="node3" class="node">
<title>n2</title>
<polygon fill="#ffffff" stroke="black" points="180,-141 0,-141 0,-105 180,-105 180,-141"/>
<text text-anchor="start" x="45.38" y="-118.2" font-family="Helvetica,sans-Serif" font-size="10.00">n2</text>
<text text-anchor="start" x="55.88" y="-118.2" font-family="Helvetica,sans-Serif" font-size="14.00">: O(n3) algos</text>
</g>
<!-- n2&#45;&gt;n0 -->
<g id="edge1" class="edge">
<title>n2&#45;&gt;n0</title>
<path fill="none" stroke="#000000" stroke-width="3" d="M101.54,-104.53C111.81,-88.97 127.03,-65.92 139.08,-47.66"/>
<polygon fill="#000000" stroke="#000000" stroke-width="3" points="142.05,-49.49 144.64,-39.21 136.2,-45.63 142.05,-49.49"/>
<text text-anchor="middle" x="135.5" y="-64.7" font-family="Helvetica,sans-Serif" font-size="14.00">e1</text>
</g>
<!-- n3&#45;&gt;n0 -->
<g id="edge3" class="edge">
<title>n3&#45;&gt;n0</title>
<path fill="none" stroke="#000000" stroke-width="3" d="M280.89,-104.53C257.04,-87.93 220.93,-62.79 194.01,-44.06"/>
<polygon fill="#000000" stroke="#000000" stroke-width="3" points="195.94,-41.05 185.74,-38.21 191.94,-46.8 195.94,-41.05"/>
<text text-anchor="middle" x="247.5" y="-64.7" font-family="Helvetica,sans-Serif" font-size="14.00">e4</text>
</g>
</g>
</svg>
