<?xml version="1.0" encoding="UTF-8" standalone="no"?>
<!DOCTYPE svg PUBLIC "-//W3C//DTD SVG 1.1//EN"
 "http://www.w3.org/Graphics/SVG/1.1/DTD/svg11.dtd">
<!-- Generated by graphviz version 12.2.1 (20241206.2353)
 -->
<!-- Pages: 1 -->
<svg width="652pt" height="735pt"
 viewBox="0.00 0.00 652.00 735.00" xmlns="http://www.w3.org/2000/svg" xmlns:xlink="http://www.w3.org/1999/xlink">
<g id="graph0" class="graph" transform="scale(1 1) rotate(0) translate(4 731)">
<polygon fill="white" stroke="none" points="-4,4 -4,-731 648,-731 648,4 -4,4"/>
<g id="clust1" class="cluster">
<title>cluster_END</title>
<polygon fill="#a32012" stroke="black" points="204,-8 204,-119 508,-119 508,-8 204,-8"/>
<text text-anchor="middle" x="356" y="-101.7" font-family="Helvetica,sans-Serif" font-size="14.00" fill="#ffffff">END</text>
</g>
<g id="clust2" class="cluster">
<title>cluster_FAST</title>
<polygon fill="#6c2378" stroke="black" points="8,-161 8,-425 312,-425 312,-161 8,-161"/>
<text text-anchor="middle" x="160" y="-407.7" font-family="Helvetica,sans-Serif" font-size="14.00" fill="#ffffff">FAST</text>
</g>
<g id="clust3" class="cluster">
<title>cluster_INIT</title>
<polygon fill="#878a1e" stroke="black" points="201,-467 201,-719 505,-719 505,-467 201,-467"/>
<text text-anchor="middle" x="353" y="-701.7" font-family="Helvetica,sans-Serif" font-size="14.00" fill="#ffffff">INIT</text>
</g>
<g id="clust4" class="cluster">
<title>cluster_SLOW</title>
<polygon fill="#a78a10" stroke="black" points="332,-161 332,-272 636,-272 636,-161 332,-161"/>
<text text-anchor="middle" x="484" y="-254.7" font-family="Helvetica,sans-Serif" font-size="14.00" fill="#ffffff">SLOW</text>
</g>
<!-- n4 -->
<g id="node1" class="node">
<title>n4</title>
<polygon fill="#ffffff" stroke="black" points="500,-88 212,-88 212,-16 500,-16 500,-88"/>
<text text-anchor="start" x="335.75" y="-62.2" font-family="Helvetica,sans-Serif" font-size="10.00">n4</text>
<text text-anchor="start" x="346.25" y="-62.2" font-family="Helvetica,sans-Serif" font-size="14.00">: end</text>
<polygon fill="#f690a3" stroke="none" points="333.5,-44.5 333.5,-59.5 378.5,-59.5 378.5,-44.5 333.5,-44.5"/>
<text text-anchor="start" x="335.75" y="-46.2" font-family="Helvetica,sans-Serif" font-size="14.00">cost=1</text>
<polygon fill="#f690a1" stroke="none" points="333.5,-29.5 333.5,-44.5 378.5,-44.5 378.5,-29.5 333.5,-29.5"/>
<text text-anchor="start" x="333.5" y="-31.2" font-family="Helvetica,sans-Serif" font-size="14.00">t=1 day</text>
</g>
<!-- n2 -->
<g id="node2" class="node">
<title>n2</title>
<polygon fill="#ffffff" stroke="black" points="304,-394 16,-394 16,-322 304,-322 304,-394"/>
<text text-anchor="start" x="109.38" y="-368.2" font-family="Helvetica,sans-Serif" font-size="10.00">n2</text>
<text text-anchor="start" x="119.88" y="-368.2" font-family="Helvetica,sans-Serif" font-size="14.00">: rapid but hard</text>
<polygon fill="#f690a3" stroke="none" points="109.38,-350.5 109.38,-365.5 199.38,-365.5 199.38,-350.5 109.38,-350.5"/>
<text text-anchor="start" x="134.12" y="-352.2" font-family="Helvetica,sans-Serif" font-size="14.00">cost=9</text>
<polygon fill="#f690a1" stroke="none" points="109.38,-335.5 109.38,-350.5 199.38,-350.5 199.38,-335.5 109.38,-335.5"/>
<text text-anchor="start" x="115" y="-337.2" font-family="Helvetica,sans-Serif" font-size="14.00">t=10 minutes</text>
</g>
<!-- n3 -->
<g id="node3" class="node">
<title>n3</title>
<polygon fill="#ffffff" stroke="black" points="304,-241 16,-241 16,-169 304,-169 304,-241"/>
<text text-anchor="start" x="106.75" y="-215.2" font-family="Helvetica,sans-Serif" font-size="10.00">n3</text>
<text text-anchor="start" x="117.25" y="-215.2" font-family="Helvetica,sans-Serif" font-size="14.00">: rapid and easy</text>
<polygon fill="#f690a3" stroke="none" points="106.75,-197.5 106.75,-212.5 199.38,-212.5 199.38,-197.5 106.75,-197.5"/>
<text text-anchor="start" x="132.81" y="-199.2" font-family="Helvetica,sans-Serif" font-size="14.00">cost=1</text>
<polygon fill="#f690a1" stroke="none" points="106.75,-182.5 106.75,-197.5 199.38,-197.5 199.38,-182.5 106.75,-182.5"/>
<text text-anchor="start" x="113.69" y="-184.2" font-family="Helvetica,sans-Serif" font-size="14.00">t=10 minutes</text>
</g>
<!-- n2&#45;&gt;n3 -->
<g id="edge3" class="edge">
<title>n2&#45;&gt;n3</title>
<path fill="none" stroke="#000000" stroke-width="3" d="M160,-321.6C160,-301.98 160,-277.27 160,-255.74"/>
<polygon fill="#000000" stroke="#000000" stroke-width="3" points="163.5,-255.98 160,-245.98 156.5,-255.98 163.5,-255.98"/>
<text text-anchor="middle" x="167.5" y="-281.7" font-family="Helvetica,sans-Serif" font-size="14.00">e2</text>
</g>
<!-- n3&#45;&gt;n4 -->
<g id="edge4" class="edge">
<title>n3&#45;&gt;n4</title>
<path fill="none" stroke="#000000" stroke-width="3" d="M205.95,-168.6C233.62,-147.28 269.09,-119.96 298.59,-97.23"/>
<polygon fill="#000000" stroke="#000000" stroke-width="3" points="300.61,-100.09 306.4,-91.21 296.34,-94.54 300.61,-100.09"/>
<text text-anchor="middle" x="265.5" y="-128.7" font-family="Helvetica,sans-Serif" font-size="14.00">e3</text>
</g>
<!-- n0 -->
<g id="node4" class="node">
<title>n0</title>
<polygon fill="#ffffff" stroke="black" points="497,-688 209,-688 209,-616 497,-616 497,-688"/>
<text text-anchor="start" x="313.25" y="-662.2" font-family="Helvetica,sans-Serif" font-size="10.00">n0</text>
<text text-anchor="start" x="323.75" y="-662.2" font-family="Helvetica,sans-Serif" font-size="14.00">: init project</text>
<polygon fill="#f690a3" stroke="none" points="313.25,-644.5 313.25,-659.5 375.5,-659.5 375.5,-644.5 313.25,-644.5"/>
<text text-anchor="start" x="324.12" y="-646.2" font-family="Helvetica,sans-Serif" font-size="14.00">cost=5</text>
<polygon fill="#f690a1" stroke="none" points="313.25,-629.5 313.25,-644.5 375.5,-644.5 375.5,-629.5 313.25,-629.5"/>
<text text-anchor="start" x="321.88" y="-631.2" font-family="Helvetica,sans-Serif" font-size="14.00">t=1 day</text>
</g>
<!-- n1 -->
<g id="node5" class="node">
<title>n1</title>
<polygon fill="#ffffff" stroke="black" points="497,-547 209,-547 209,-475 497,-475 497,-547"/>
<text text-anchor="start" x="299" y="-521.2" font-family="Helvetica,sans-Serif" font-size="10.00">n1</text>
<text text-anchor="start" x="309.5" y="-521.2" font-family="Helvetica,sans-Serif" font-size="14.00">: quick next step</text>
<polygon fill="#f690a3" stroke="none" points="299,-503.5 299,-518.5 392.38,-518.5 392.38,-503.5 299,-503.5"/>
<text text-anchor="start" x="325.44" y="-505.2" font-family="Helvetica,sans-Serif" font-size="14.00">cost=1</text>
<polygon fill="#f690a1" stroke="none" points="299,-488.5 299,-503.5 392.38,-503.5 392.38,-488.5 299,-488.5"/>
<text text-anchor="start" x="306.31" y="-490.2" font-family="Helvetica,sans-Serif" font-size="14.00">t=10 minutes</text>
</g>
<!-- n0&#45;&gt;n1 -->
<g id="edge1" class="edge">
<title>n0&#45;&gt;n1</title>
<path fill="none" stroke="#000000" stroke-width="3" d="M353,-615.56C353,-599.23 353,-579.55 353,-561.76"/>
<polygon fill="#000000" stroke="#000000" stroke-width="3" points="356.5,-561.91 353,-551.91 349.5,-561.91 356.5,-561.91"/>
<text text-anchor="middle" x="360.5" y="-575.7" font-family="Helvetica,sans-Serif" font-size="14.00">e0</text>
</g>
<!-- n1&#45;&gt;n2 -->
<g id="edge2" class="edge">
<title>n1&#45;&gt;n2</title>
<path fill="none" stroke="#000000" stroke-width="3" d="M307.75,-474.6C280.5,-453.28 245.58,-425.96 216.53,-403.23"/>
<polygon fill="#000000" stroke="#000000" stroke-width="3" points="218.91,-400.65 208.88,-397.24 214.6,-406.16 218.91,-400.65"/>
<text text-anchor="middle" x="275.56" y="-434.7" font-family="Helvetica,sans-Serif" font-size="14.00">e1</text>
</g>
<!-- n5 -->
<g id="node6" class="node">
<title>n5</title>
<polygon fill="#ffffff" stroke="black" points="628,-241 340,-241 340,-169 628,-169 628,-241"/>
<text text-anchor="start" x="432.25" y="-215.2" font-family="Helvetica,sans-Serif" font-size="10.00">n5</text>
<text text-anchor="start" x="442.75" y="-215.2" font-family="Helvetica,sans-Serif" font-size="14.00">: slow and easy</text>
<polygon fill="#f690a3" stroke="none" points="432.25,-197.5 432.25,-212.5 506.5,-212.5 506.5,-197.5 432.25,-197.5"/>
<text text-anchor="start" x="449.12" y="-199.2" font-family="Helvetica,sans-Serif" font-size="14.00">cost=1</text>
<polygon fill="#f690a1" stroke="none" points="432.25,-182.5 432.25,-197.5 506.5,-197.5 506.5,-182.5 432.25,-182.5"/>
<text text-anchor="start" x="446.88" y="-184.2" font-family="Helvetica,sans-Serif" font-size="14.00">t=1 day</text>
</g>
<!-- n1&#45;&gt;n5 -->
<g id="edge5" class="edge">
<title>n1&#45;&gt;n5</title>
<path fill="none" stroke="#000000" stroke-width="3" d="M368.28,-474.53C391.75,-420.07 436.71,-315.74 463.15,-254.38"/>
<polygon fill="#000000" stroke="#000000" stroke-width="3" points="466.27,-255.98 467.02,-245.41 459.84,-253.21 466.27,-255.98"/>
<text text-anchor="middle" x="441.16" y="-352.2" font-family="Helvetica,sans-Serif" font-size="14.00">e4</text>
</g>
<!-- n5&#45;&gt;n4 -->
<g id="edge6" class="edge">
<title>n5&#45;&gt;n4</title>
<path fill="none" stroke="#000000" stroke-width="3" d="M453.99,-168.6C436.48,-147.94 414.19,-121.64 395.29,-99.35"/>
<polygon fill="#000000" stroke="#000000" stroke-width="3" points="398.12,-97.27 388.98,-91.91 392.78,-101.8 398.12,-97.27"/>
<text text-anchor="middle" x="435.16" y="-128.7" font-family="Helvetica,sans-Serif" font-size="14.00">e5</text>
</g>
</g>
</svg>
