<?xml version="1.0" encoding="UTF-8" standalone="no"?>
<!DOCTYPE svg PUBLIC "-//W3C//DTD SVG 1.1//EN"
 "http://www.w3.org/Graphics/SVG/1.1/DTD/svg11.dtd">
<!-- Generated by graphviz version 3.0.0 (20220226.1711)
 -->
<!-- Pages: 1 -->
<svg width="538pt" height="290pt"
 viewBox="0.00 0.00 538.00 290.00" xmlns="http://www.w3.org/2000/svg" xmlns:xlink="http://www.w3.org/1999/xlink">
<g id="graph0" class="graph" transform="scale(1 1) rotate(0) translate(4 286)">
<polygon fill="white" stroke="transparent" points="-4,4 -4,-286 534,-286 534,4 -4,4"/>
<!-- n0 -->
<g id="node1" class="node">
<title>n0</title>
<text text-anchor="middle" x="264.5" y="-3.8" font-family="Helvetica,sans-Serif" font-size="14.00">n0: customers get delivery too slowly</text>
</g>
<!-- n1 -->
<g id="node2" class="node">
<title>n1</title>
<text text-anchor="middle" x="123.5" y="-87.8" font-family="Helvetica,sans-Serif" font-size="14.00">n1: orders need to be processed by hand</text>
</g>
<!-- n1&#45;&gt;n0 -->
<g id="edge1" class="edge">
<title>n1&#45;&gt;n0</title>
<path fill="none" stroke="#000000" stroke-width="3" d="M135.04,-83.79C159.02,-69.85 214.48,-37.59 244.44,-20.17"/>
<polygon fill="#000000" stroke="#000000" stroke-width="3" points="246.31,-23.13 253.2,-15.07 242.79,-17.08 246.31,-23.13"/>
<text text-anchor="middle" x="215.5" y="-45.8" font-family="Helvetica,sans-Serif" font-size="14.00">e0</text>
</g>
<!-- n2 -->
<g id="node3" class="node">
<title>n2</title>
<text text-anchor="middle" x="130.5" y="-186.8" font-family="Helvetica,sans-Serif" font-size="14.00">n2: no developer capacity to automate</text>
<text text-anchor="middle" x="130.5" y="-171.8" font-family="Helvetica,sans-Serif" font-size="14.00">orders</text>
</g>
<!-- n2&#45;&gt;n1 -->
<g id="edge2" class="edge">
<title>n2&#45;&gt;n1</title>
<path fill="none" stroke="#000000" stroke-width="3" d="M129.38,-167.62C128.13,-151.72 126.13,-126.14 124.82,-109.32"/>
<polygon fill="#000000" stroke="#000000" stroke-width="3" points="128.3,-109 124.03,-99.31 121.32,-109.55 128.3,-109"/>
<text text-anchor="middle" x="135.5" y="-129.8" font-family="Helvetica,sans-Serif" font-size="14.00">e1</text>
</g>
<!-- n3 -->
<g id="node4" class="node">
<title>n3</title>
<text text-anchor="middle" x="266.5" y="-270.8" font-family="Helvetica,sans-Serif" font-size="14.00">n3: developers engaged in low&#45;value work</text>
</g>
<!-- n3&#45;&gt;n2 -->
<g id="edge3" class="edge">
<title>n3&#45;&gt;n2</title>
<path fill="none" stroke="#000000" stroke-width="3" d="M256.28,-266.77C236.15,-253.53 190.7,-223.62 160.31,-203.62"/>
<polygon fill="#000000" stroke="#000000" stroke-width="3" points="162.07,-200.58 151.79,-198.01 158.22,-206.43 162.07,-200.58"/>
<text text-anchor="middle" x="223.5" y="-228.8" font-family="Helvetica,sans-Serif" font-size="14.00">e2</text>
</g>
<!-- n5 -->
<g id="node6" class="node">
<title>n5</title>
<text text-anchor="middle" x="404.5" y="-186.8" font-family="Helvetica,sans-Serif" font-size="14.00">n5: printers need rebooting but everyone</text>
<text text-anchor="middle" x="404.5" y="-171.8" font-family="Helvetica,sans-Serif" font-size="14.00">in IT is busy util 3pm</text>
</g>
<!-- n3&#45;&gt;n5 -->
<g id="edge6" class="edge">
<title>n3&#45;&gt;n5</title>
<path fill="none" stroke="#000000" stroke-width="3" d="M276.87,-266.77C297.3,-253.53 343.41,-223.62 374.25,-203.62"/>
<polygon fill="#000000" stroke="#000000" stroke-width="3" points="376.41,-206.39 382.9,-198.01 372.6,-200.52 376.41,-206.39"/>
<text text-anchor="middle" x="347.5" y="-228.8" font-family="Helvetica,sans-Serif" font-size="14.00">e5</text>
</g>
<!-- n4 -->
<g id="node5" class="node">
<title>n4</title>
<text text-anchor="middle" x="406.5" y="-87.8" font-family="Helvetica,sans-Serif" font-size="14.00">n4: shipping labels generated once a day</text>
</g>
<!-- n4&#45;&gt;n0 -->
<g id="edge4" class="edge">
<title>n4&#45;&gt;n0</title>
<path fill="none" stroke="#000000" stroke-width="3" d="M394.88,-83.79C370.73,-69.85 314.88,-37.59 284.7,-20.17"/>
<polygon fill="#000000" stroke="#000000" stroke-width="3" points="286.29,-17.04 275.88,-15.07 282.79,-23.11 286.29,-17.04"/>
<text text-anchor="middle" x="355.5" y="-45.8" font-family="Helvetica,sans-Serif" font-size="14.00">e3</text>
</g>
<!-- n5&#45;&gt;n4 -->
<g id="edge5" class="edge">
<title>n5&#45;&gt;n4</title>
<path fill="none" stroke="#000000" stroke-width="3" d="M404.82,-167.62C405.18,-151.72 405.75,-126.14 406.12,-109.32"/>
<polygon fill="#000000" stroke="#000000" stroke-width="3" points="409.62,-109.38 406.35,-99.31 402.63,-109.23 409.62,-109.38"/>
<text text-anchor="middle" x="413.5" y="-129.8" font-family="Helvetica,sans-Serif" font-size="14.00">e4</text>
</g>
</g>
</svg>
