<?xml version="1.0" encoding="UTF-8" standalone="no"?>
<!DOCTYPE svg PUBLIC "-//W3C//DTD SVG 1.1//EN"
 "http://www.w3.org/Graphics/SVG/1.1/DTD/svg11.dtd">
<!-- Generated by graphviz version 3.0.0 (20220226.1711)
 -->
<!-- Pages: 1 -->
<svg width="1184pt" height="104pt"
 viewBox="0.00 0.00 1184.00 104.00" xmlns="http://www.w3.org/2000/svg" xmlns:xlink="http://www.w3.org/1999/xlink">
<g id="graph0" class="graph" transform="scale(1 1) rotate(0) translate(4 100)">
<polygon fill="white" stroke="transparent" points="-4,4 -4,-100 1180,-100 1180,4 -4,4"/>
<!-- n0 -->
<g id="node1" class="node">
<title>n0</title>
<text text-anchor="middle" x="1065" y="-44.3" font-family="Helvetica,sans-Serif" font-size="14.00">n0: customers get delivery too slowly</text>
</g>
<!-- n1 -->
<g id="node2" class="node">
<title>n1</title>
<text text-anchor="middle" x="760.5" y="-73.3" font-family="Helvetica,sans-Serif" font-size="14.00">n1: orders need to be processed by hand</text>
</g>
<!-- n1&#45;&gt;n0 -->
<g id="edge1" class="edge">
<title>n1&#45;&gt;n0</title>
<path fill="none" stroke="#000000" stroke-width="3" d="M839.79,-69.49C881.28,-65.52 932.4,-60.62 975.35,-56.5"/>
<polygon fill="#000000" stroke="#000000" stroke-width="3" points="975.89,-59.96 985.51,-55.52 975.22,-53 975.89,-59.96"/>
<text text-anchor="middle" x="919" y="-65.8" font-family="Helvetica,sans-Serif" font-size="14.00">e0</text>
</g>
<!-- n2 -->
<g id="node3" class="node">
<title>n2</title>
<text text-anchor="middle" x="445" y="-84.8" font-family="Helvetica,sans-Serif" font-size="14.00">n2: no developer capacity to automate</text>
<text text-anchor="middle" x="445" y="-69.8" font-family="Helvetica,sans-Serif" font-size="14.00">orders</text>
</g>
<!-- n2&#45;&gt;n1 -->
<g id="edge2" class="edge">
<title>n2&#45;&gt;n1</title>
<path fill="none" stroke="#000000" stroke-width="3" d="M560.07,-79.54C581.7,-79.27 604.51,-78.98 626.67,-78.69"/>
<polygon fill="#000000" stroke="#000000" stroke-width="3" points="626.84,-82.19 636.79,-78.57 626.75,-75.19 626.84,-82.19"/>
<text text-anchor="middle" x="602" y="-82.8" font-family="Helvetica,sans-Serif" font-size="14.00">e1</text>
</g>
<!-- n3 -->
<g id="node4" class="node">
<title>n3</title>
<text text-anchor="middle" x="126.5" y="-44.3" font-family="Helvetica,sans-Serif" font-size="14.00">n3: developers engaged in low&#45;value work</text>
</g>
<!-- n3&#45;&gt;n2 -->
<g id="edge3" class="edge">
<title>n3&#45;&gt;n2</title>
<path fill="none" stroke="#000000" stroke-width="3" d="M199.71,-55.53C235.28,-59.24 279.17,-63.81 319.9,-68.06"/>
<polygon fill="#000000" stroke="#000000" stroke-width="3" points="319.59,-71.55 329.9,-69.1 320.31,-64.58 319.59,-71.55"/>
<text text-anchor="middle" x="288" y="-68.8" font-family="Helvetica,sans-Serif" font-size="14.00">e2</text>
</g>
<!-- n5 -->
<g id="node6" class="node">
<title>n5</title>
<text text-anchor="middle" x="445" y="-18.8" font-family="Helvetica,sans-Serif" font-size="14.00">n5: printers need rebooting but everyone</text>
<text text-anchor="middle" x="445" y="-3.8" font-family="Helvetica,sans-Serif" font-size="14.00">in IT is busy util 3pm</text>
</g>
<!-- n3&#45;&gt;n5 -->
<g id="edge6" class="edge">
<title>n3&#45;&gt;n5</title>
<path fill="none" stroke="#000000" stroke-width="3" d="M199.71,-40.47C233.13,-36.99 273.89,-32.74 312.47,-28.71"/>
<polygon fill="#000000" stroke="#000000" stroke-width="3" points="313.17,-32.16 322.76,-27.64 312.45,-25.2 313.17,-32.16"/>
<text text-anchor="middle" x="288" y="-34.8" font-family="Helvetica,sans-Serif" font-size="14.00">e5</text>
</g>
<!-- n4 -->
<g id="node5" class="node">
<title>n4</title>
<text text-anchor="middle" x="760.5" y="-16.3" font-family="Helvetica,sans-Serif" font-size="14.00">n4: shipping labels generated once a day</text>
</g>
<!-- n4&#45;&gt;n0 -->
<g id="edge4" class="edge">
<title>n4&#45;&gt;n0</title>
<path fill="none" stroke="#000000" stroke-width="3" d="M884.14,-13.23C898.61,-13.56 913.15,-14.4 927,-16 962.5,-20.09 1002.17,-29.96 1029.65,-37.66"/>
<polygon fill="#000000" stroke="#000000" stroke-width="3" points="1028.97,-41.11 1039.55,-40.49 1030.9,-34.38 1028.97,-41.11"/>
<text text-anchor="middle" x="919" y="-19.8" font-family="Helvetica,sans-Serif" font-size="14.00">e3</text>
</g>
<!-- n5&#45;&gt;n4 -->
<g id="edge5" class="edge">
<title>n5&#45;&gt;n4</title>
<path fill="none" stroke="#000000" stroke-width="3" d="M567.21,-16.93C586.65,-17.24 606.86,-17.57 626.56,-17.88"/>
<polygon fill="#000000" stroke="#000000" stroke-width="3" points="626.75,-21.38 636.8,-18.04 626.86,-14.38 626.75,-21.38"/>
<text text-anchor="middle" x="602" y="-21.8" font-family="Helvetica,sans-Serif" font-size="14.00">e4</text>
</g>
</g>
</svg>
