<?xml version="1.0" encoding="UTF-8" standalone="no"?>
<!DOCTYPE svg PUBLIC "-//W3C//DTD SVG 1.1//EN"
 "http://www.w3.org/Graphics/SVG/1.1/DTD/svg11.dtd">
<!-- Generated by graphviz version 12.0.0 (20240704.0754)
 -->
<!-- Pages: 1 -->
<svg width="1399pt" height="254pt"
 viewBox="0.00 0.00 1399.00 254.00" xmlns="http://www.w3.org/2000/svg" xmlns:xlink="http://www.w3.org/1999/xlink">
<g id="graph0" class="graph" transform="scale(1 1) rotate(0) translate(4 250)">
<polygon fill="white" stroke="none" points="-4,4 -4,-250 1395,-250 1395,4 -4,4"/>
<g id="clust1" class="cluster">
<title>cluster_BLOCKER</title>
<polygon fill="#6c2378" stroke="black" points="365,-8 365,-119 1026,-119 1026,-8 365,-8"/>
<text text-anchor="middle" x="695.5" y="-101.7" font-family="Helvetica,sans-Serif" font-size="14.00" fill="#ffffff">BLOCKER</text>
</g>
<g id="clust2" class="cluster">
<title>cluster_CURRENT</title>
<polygon fill="#a32012" stroke="black" points="8,-127 8,-238 1026,-238 1026,-127 8,-127"/>
<text text-anchor="middle" x="517" y="-220.7" font-family="Helvetica,sans-Serif" font-size="14.00" fill="#ffffff">CURRENT</text>
</g>
<g id="clust3" class="cluster">
<title>cluster_RESULT</title>
<polygon fill="#99660c" stroke="black" points="1079,-75 1079,-186 1383,-186 1383,-75 1079,-75"/>
<text text-anchor="middle" x="1231" y="-168.7" font-family="Helvetica,sans-Serif" font-size="14.00" fill="#ffffff">RESULT</text>
</g>
<!-- n4 -->
<g id="node1" class="node">
<title>n4</title>
<polygon fill="#ffffff" stroke="black" points="1018,-88 730,-88 730,-16 1018,-16 1018,-88"/>
<text text-anchor="start" x="753.25" y="-47.2" font-family="Helvetica,sans-Serif" font-size="10.00">n4</text>
<text text-anchor="start" x="763.75" y="-47.2" font-family="Helvetica,sans-Serif" font-size="14.00">: shipping labels generated once a day</text>
</g>
<!-- n0 -->
<g id="node6" class="node">
<title>n0</title>
<polygon fill="#ffffff" stroke="black" points="1375,-155 1087,-155 1087,-83 1375,-83 1375,-155"/>
<text text-anchor="start" x="1118.88" y="-121.7" font-family="Helvetica,sans-Serif" font-size="10.00">n0</text>
<text text-anchor="start" x="1129.38" y="-121.7" font-family="Helvetica,sans-Serif" font-size="14.00">: #customers get delivery too slowly</text>
<polygon fill="#bad782" stroke="none" points="1118.88,-104 1118.88,-119 1343.12,-119 1343.12,-104 1118.88,-104"/>
<text text-anchor="start" x="1195.75" y="-105.7" font-family="Helvetica,sans-Serif" font-size="14.00">#customers</text>
</g>
<!-- n4&#45;&gt;n0 -->
<g id="edge4" class="edge">
<title>n4&#45;&gt;n0</title>
<path fill="none" stroke="#000000" stroke-width="3" d="M1018.37,-79.06C1036.22,-82.43 1054.55,-85.89 1072.61,-89.29"/>
<polygon fill="#000000" stroke="#000000" stroke-width="3" points="1071.74,-92.69 1082.21,-91.11 1073.03,-85.81 1071.74,-92.69"/>
<text text-anchor="middle" x="1052.5" y="-86.7" font-family="Helvetica,sans-Serif" font-size="14.00">e3</text>
</g>
<!-- n5 -->
<g id="node2" class="node">
<title>n5</title>
<polygon fill="#ffffff" stroke="black" points="661,-88 373,-88 373,-16 661,-16 661,-88"/>
<text text-anchor="start" x="390.62" y="-53.7" font-family="Helvetica,sans-Serif" font-size="10.00">n5</text>
<text text-anchor="start" x="401.12" y="-53.7" font-family="Helvetica,sans-Serif" font-size="14.00">: printers need rebooting but everyone in</text>
<text text-anchor="start" x="462.25" y="-39.7" font-family="Helvetica,sans-Serif" font-size="14.00">IT is busy util 3pm</text>
</g>
<!-- n5&#45;&gt;n4 -->
<g id="edge5" class="edge">
<title>n5&#45;&gt;n4</title>
<path fill="none" stroke="#000000" stroke-width="3" d="M661.37,-52C679.13,-52 697.37,-52 715.34,-52"/>
<polygon fill="#000000" stroke="#000000" stroke-width="3" points="715.13,-55.5 725.13,-52 715.13,-48.5 715.13,-55.5"/>
<text text-anchor="middle" x="695.5" y="-53.7" font-family="Helvetica,sans-Serif" font-size="14.00">e4</text>
</g>
<!-- n1 -->
<g id="node3" class="node">
<title>n1</title>
<polygon fill="#ffffff" stroke="black" points="1018,-207 730,-207 730,-135 1018,-135 1018,-207"/>
<text text-anchor="start" x="753.25" y="-166.2" font-family="Helvetica,sans-Serif" font-size="10.00">n1</text>
<text text-anchor="start" x="763.75" y="-166.2" font-family="Helvetica,sans-Serif" font-size="14.00">: orders need to be processed by hand</text>
</g>
<!-- n1&#45;&gt;n0 -->
<g id="edge1" class="edge">
<title>n1&#45;&gt;n0</title>
<path fill="none" stroke="#000000" stroke-width="3" d="M1018.37,-150C1036.13,-147.4 1054.37,-144.73 1072.34,-142.09"/>
<polygon fill="#000000" stroke="#000000" stroke-width="3" points="1072.79,-145.56 1082.18,-140.65 1071.78,-138.64 1072.79,-145.56"/>
<text text-anchor="middle" x="1052.5" y="-146.7" font-family="Helvetica,sans-Serif" font-size="14.00">e0</text>
</g>
<!-- n2 -->
<g id="node4" class="node">
<title>n2</title>
<polygon fill="#ffffff" stroke="black" points="661,-207 373,-207 373,-135 661,-135 661,-207"/>
<text text-anchor="start" x="383.5" y="-166.2" font-family="Helvetica,sans-Serif" font-size="10.00">n2</text>
<text text-anchor="start" x="394" y="-166.2" font-family="Helvetica,sans-Serif" font-size="14.00">: no developer capacity to automate orders</text>
</g>
<!-- n2&#45;&gt;n1 -->
<g id="edge2" class="edge">
<title>n2&#45;&gt;n1</title>
<path fill="none" stroke="#000000" stroke-width="3" d="M661.37,-171C679.13,-171 697.37,-171 715.34,-171"/>
<polygon fill="#000000" stroke="#000000" stroke-width="3" points="715.13,-174.5 725.13,-171 715.13,-167.5 715.13,-174.5"/>
<text text-anchor="middle" x="695.5" y="-172.7" font-family="Helvetica,sans-Serif" font-size="14.00">e1</text>
</g>
<!-- n3 -->
<g id="node5" class="node">
<title>n3</title>
<polygon fill="#ffffff" stroke="black" points="304,-207 16,-207 16,-135 304,-135 304,-207"/>
<text text-anchor="start" x="36.25" y="-166.2" font-family="Helvetica,sans-Serif" font-size="10.00">n3</text>
<text text-anchor="start" x="46.75" y="-166.2" font-family="Helvetica,sans-Serif" font-size="14.00">: developers engaged in low&#45;value work</text>
</g>
<!-- n3&#45;&gt;n5 -->
<g id="edge6" class="edge">
<title>n3&#45;&gt;n5</title>
<path fill="none" stroke="#000000" stroke-width="3" d="M269.44,-134.65C308.74,-121.48 353.38,-106.51 393.78,-92.97"/>
<polygon fill="#000000" stroke="#000000" stroke-width="3" points="394.63,-96.38 403,-89.88 392.41,-89.74 394.63,-96.38"/>
<text text-anchor="middle" x="338.5" y="-112.7" font-family="Helvetica,sans-Serif" font-size="14.00">e5</text>
</g>
<!-- n3&#45;&gt;n2 -->
<g id="edge3" class="edge">
<title>n3&#45;&gt;n2</title>
<path fill="none" stroke="#000000" stroke-width="3" d="M304.37,-171C322.13,-171 340.37,-171 358.34,-171"/>
<polygon fill="#000000" stroke="#000000" stroke-width="3" points="358.13,-174.5 368.13,-171 358.13,-167.5 358.13,-174.5"/>
<text text-anchor="middle" x="338.5" y="-172.7" font-family="Helvetica,sans-Serif" font-size="14.00">e2</text>
</g>
</g>
</svg>
