<?xml version="1.0" encoding="UTF-8" standalone="no"?>
<!DOCTYPE svg PUBLIC "-//W3C//DTD SVG 1.1//EN"
 "http://www.w3.org/Graphics/SVG/1.1/DTD/svg11.dtd">
<!-- Generated by graphviz version 5.0.0 (20220707.1540)
 -->
<!-- Pages: 1 -->
<svg width="1370pt" height="116pt"
 viewBox="0.00 0.00 1370.00 116.00" xmlns="http://www.w3.org/2000/svg" xmlns:xlink="http://www.w3.org/1999/xlink">
<g id="graph0" class="graph" transform="scale(1 1) rotate(0) translate(4 112)">
<polygon fill="white" stroke="transparent" points="-4,4 -4,-112 1366,-112 1366,4 -4,4"/>
<!-- n0 -->
<g id="node1" class="node">
<title>n0</title>
<polygon fill="#ffffff" stroke="black" points="1362,-74 1074,-74 1074,-38 1362,-38 1362,-74"/>
<text text-anchor="start" x="1109" y="-52.8" font-family="Helvetica,sans-Serif" font-size="10.00">n0</text>
<text text-anchor="start" x="1120" y="-52.8" font-family="Helvetica,sans-Serif" font-size="14.00">: customers get delivery too slowly</text>
</g>
<!-- n1 -->
<g id="node2" class="node">
<title>n1</title>
<polygon fill="#ffffff" stroke="black" points="1004,-108 716,-108 716,-72 1004,-72 1004,-108"/>
<text text-anchor="start" x="739" y="-86.8" font-family="Helvetica,sans-Serif" font-size="10.00">n1</text>
<text text-anchor="start" x="750" y="-86.8" font-family="Helvetica,sans-Serif" font-size="14.00">: orders need to be processed by hand</text>
</g>
<!-- n1&#45;&gt;n0 -->
<g id="edge1" class="edge">
<title>n1&#45;&gt;n0</title>
<path fill="none" stroke="#000000" stroke-width="3" d="M1004,-76.34C1023.68,-74.46 1043.96,-72.53 1063.81,-70.63"/>
<polygon fill="#000000" stroke="#000000" stroke-width="3" points="1064.21,-74.11 1073.84,-69.67 1063.55,-67.14 1064.21,-74.11"/>
<text text-anchor="middle" x="1039" y="-76.8" font-family="Helvetica,sans-Serif" font-size="14.00">e0</text>
</g>
<!-- n2 -->
<g id="node3" class="node">
<title>n2</title>
<polygon fill="#ffffff" stroke="black" points="646,-108 358,-108 358,-72 646,-72 646,-108"/>
<text text-anchor="start" x="368" y="-86.8" font-family="Helvetica,sans-Serif" font-size="10.00">n2</text>
<text text-anchor="start" x="379" y="-86.8" font-family="Helvetica,sans-Serif" font-size="14.00">: no developer capacity to automate orders</text>
</g>
<!-- n2&#45;&gt;n1 -->
<g id="edge2" class="edge">
<title>n2&#45;&gt;n1</title>
<path fill="none" stroke="#000000" stroke-width="3" d="M646,-90C665.68,-90 685.96,-90 705.81,-90"/>
<polygon fill="#000000" stroke="#000000" stroke-width="3" points="705.84,-93.5 715.84,-90 705.84,-86.5 705.84,-93.5"/>
<text text-anchor="middle" x="681" y="-93.8" font-family="Helvetica,sans-Serif" font-size="14.00">e1</text>
</g>
<!-- n3 -->
<g id="node4" class="node">
<title>n3</title>
<polygon fill="#ffffff" stroke="black" points="288,-72 0,-72 0,-36 288,-36 288,-72"/>
<text text-anchor="start" x="20" y="-50.8" font-family="Helvetica,sans-Serif" font-size="10.00">n3</text>
<text text-anchor="start" x="31" y="-50.8" font-family="Helvetica,sans-Serif" font-size="14.00">: developers engaged in low&#45;value work</text>
</g>
<!-- n3&#45;&gt;n2 -->
<g id="edge3" class="edge">
<title>n3&#45;&gt;n2</title>
<path fill="none" stroke="#000000" stroke-width="3" d="M288,-68.46C307.68,-70.45 327.96,-72.5 347.81,-74.51"/>
<polygon fill="#000000" stroke="#000000" stroke-width="3" points="347.54,-78 357.84,-75.52 348.24,-71.03 347.54,-78"/>
<text text-anchor="middle" x="323" y="-75.8" font-family="Helvetica,sans-Serif" font-size="14.00">e2</text>
</g>
<!-- n5 -->
<g id="node6" class="node">
<title>n5</title>
<polygon fill="#ffffff" stroke="black" points="646,-36 358,-36 358,0 646,0 646,-36"/>
<text text-anchor="start" x="375" y="-21.8" font-family="Helvetica,sans-Serif" font-size="10.00">n5</text>
<text text-anchor="start" x="386" y="-21.8" font-family="Helvetica,sans-Serif" font-size="14.00">: printers need rebooting but everyone in</text>
<text text-anchor="start" x="447" y="-7.8" font-family="Helvetica,sans-Serif" font-size="14.00">IT is busy util 3pm</text>
</g>
<!-- n3&#45;&gt;n5 -->
<g id="edge6" class="edge">
<title>n3&#45;&gt;n5</title>
<path fill="none" stroke="#000000" stroke-width="3" d="M288,-39.54C307.68,-37.55 327.96,-35.5 347.81,-33.49"/>
<polygon fill="#000000" stroke="#000000" stroke-width="3" points="348.24,-36.97 357.84,-32.48 347.54,-30 348.24,-36.97"/>
<text text-anchor="middle" x="323" y="-39.8" font-family="Helvetica,sans-Serif" font-size="14.00">e5</text>
</g>
<!-- n4 -->
<g id="node5" class="node">
<title>n4</title>
<polygon fill="#ffffff" stroke="black" points="1004,-36 716,-36 716,0 1004,0 1004,-36"/>
<text text-anchor="start" x="739" y="-14.8" font-family="Helvetica,sans-Serif" font-size="10.00">n4</text>
<text text-anchor="start" x="750" y="-14.8" font-family="Helvetica,sans-Serif" font-size="14.00">: shipping labels generated once a day</text>
</g>
<!-- n4&#45;&gt;n0 -->
<g id="edge4" class="edge">
<title>n4&#45;&gt;n0</title>
<path fill="none" stroke="#000000" stroke-width="3" d="M1004,-33.26C1023.68,-35.37 1043.96,-37.53 1063.81,-39.65"/>
<polygon fill="#000000" stroke="#000000" stroke-width="3" points="1063.52,-43.14 1073.84,-40.72 1064.26,-36.18 1063.52,-43.14"/>
<text text-anchor="middle" x="1039" y="-40.8" font-family="Helvetica,sans-Serif" font-size="14.00">e3</text>
</g>
<!-- n5&#45;&gt;n4 -->
<g id="edge5" class="edge">
<title>n5&#45;&gt;n4</title>
<path fill="none" stroke="#000000" stroke-width="3" d="M646,-18C665.68,-18 685.96,-18 705.81,-18"/>
<polygon fill="#000000" stroke="#000000" stroke-width="3" points="705.84,-21.5 715.84,-18 705.84,-14.5 705.84,-21.5"/>
<text text-anchor="middle" x="681" y="-21.8" font-family="Helvetica,sans-Serif" font-size="14.00">e4</text>
</g>
</g>
</svg>
