<?xml version="1.0" encoding="UTF-8" standalone="no"?>
<!DOCTYPE svg PUBLIC "-//W3C//DTD SVG 1.1//EN"
 "http://www.w3.org/Graphics/SVG/1.1/DTD/svg11.dtd">
<!-- Generated by graphviz version 9.0.0 (20230911.1827)
 -->
<!-- Pages: 1 -->
<svg width="1367pt" height="188pt"
 viewBox="0.00 0.00 1367.00 188.00" xmlns="http://www.w3.org/2000/svg" xmlns:xlink="http://www.w3.org/1999/xlink">
<g id="graph0" class="graph" transform="scale(1 1) rotate(0) translate(4 184)">
<polygon fill="white" stroke="none" points="-4,4 -4,-184 1363,-184 1363,4 -4,4"/>
<!-- n0 -->
<g id="node1" class="node">
<title>n0</title>
<polygon fill="#ffffff" stroke="black" points="1359,-132 1071,-132 1071,-60 1359,-60 1359,-132"/>
<text text-anchor="start" x="1106.62" y="-91.2" font-family="Helvetica,sans-Serif" font-size="10.00">n0</text>
<text text-anchor="start" x="1117.12" y="-91.2" font-family="Helvetica,sans-Serif" font-size="14.00">: customers get delivery too slowly</text>
</g>
<!-- n1 -->
<g id="node2" class="node">
<title>n1</title>
<polygon fill="#ffffff" stroke="black" points="1002,-180 714,-180 714,-108 1002,-108 1002,-180"/>
<text text-anchor="start" x="737.25" y="-139.2" font-family="Helvetica,sans-Serif" font-size="10.00">n1</text>
<text text-anchor="start" x="747.75" y="-139.2" font-family="Helvetica,sans-Serif" font-size="14.00">: orders need to be processed by hand</text>
</g>
<!-- n1&#45;&gt;n0 -->
<g id="edge1" class="edge">
<title>n1&#45;&gt;n0</title>
<path fill="none" stroke="#000000" stroke-width="3" d="M1002.37,-124.61C1020.13,-122.21 1038.37,-119.75 1056.34,-117.32"/>
<polygon fill="#000000" stroke="#000000" stroke-width="3" points="1056.73,-120.8 1066.17,-115.99 1055.79,-113.86 1056.73,-120.8"/>
<text text-anchor="middle" x="1036.5" y="-121.7" font-family="Helvetica,sans-Serif" font-size="14.00">e0</text>
</g>
<!-- n2 -->
<g id="node3" class="node">
<title>n2</title>
<polygon fill="#ffffff" stroke="black" points="645,-180 357,-180 357,-108 645,-108 645,-180"/>
<text text-anchor="start" x="367.5" y="-139.2" font-family="Helvetica,sans-Serif" font-size="10.00">n2</text>
<text text-anchor="start" x="378" y="-139.2" font-family="Helvetica,sans-Serif" font-size="14.00">: no developer capacity to automate orders</text>
</g>
<!-- n2&#45;&gt;n1 -->
<g id="edge2" class="edge">
<title>n2&#45;&gt;n1</title>
<path fill="none" stroke="#000000" stroke-width="3" d="M645.37,-144C663.13,-144 681.37,-144 699.34,-144"/>
<polygon fill="#000000" stroke="#000000" stroke-width="3" points="699.13,-147.5 709.13,-144 699.13,-140.5 699.13,-147.5"/>
<text text-anchor="middle" x="679.5" y="-145.7" font-family="Helvetica,sans-Serif" font-size="14.00">e1</text>
</g>
<!-- n3 -->
<g id="node4" class="node">
<title>n3</title>
<polygon fill="#ffffff" stroke="black" points="288,-126 0,-126 0,-54 288,-54 288,-126"/>
<text text-anchor="start" x="20.25" y="-85.2" font-family="Helvetica,sans-Serif" font-size="10.00">n3</text>
<text text-anchor="start" x="30.75" y="-85.2" font-family="Helvetica,sans-Serif" font-size="14.00">: developers engaged in low&#45;value work</text>
</g>
<!-- n3&#45;&gt;n2 -->
<g id="edge3" class="edge">
<title>n3&#45;&gt;n2</title>
<path fill="none" stroke="#000000" stroke-width="3" d="M288.37,-111.81C306.13,-114.51 324.37,-117.29 342.34,-120.02"/>
<polygon fill="#000000" stroke="#000000" stroke-width="3" points="341.77,-123.47 352.18,-121.52 342.82,-116.55 341.77,-123.47"/>
<text text-anchor="middle" x="322.5" y="-118.7" font-family="Helvetica,sans-Serif" font-size="14.00">e2</text>
</g>
<!-- n5 -->
<g id="node6" class="node">
<title>n5</title>
<polygon fill="#ffffff" stroke="black" points="645,-72 357,-72 357,0 645,0 645,-72"/>
<text text-anchor="start" x="374.62" y="-37.7" font-family="Helvetica,sans-Serif" font-size="10.00">n5</text>
<text text-anchor="start" x="385.12" y="-37.7" font-family="Helvetica,sans-Serif" font-size="14.00">: printers need rebooting but everyone in</text>
<text text-anchor="start" x="446.25" y="-23.7" font-family="Helvetica,sans-Serif" font-size="14.00">IT is busy util 3pm</text>
</g>
<!-- n3&#45;&gt;n5 -->
<g id="edge6" class="edge">
<title>n3&#45;&gt;n5</title>
<path fill="none" stroke="#000000" stroke-width="3" d="M288.37,-68.19C306.13,-65.49 324.37,-62.71 342.34,-59.98"/>
<polygon fill="#000000" stroke="#000000" stroke-width="3" points="342.82,-63.45 352.18,-58.48 341.77,-56.53 342.82,-63.45"/>
<text text-anchor="middle" x="322.5" y="-64.7" font-family="Helvetica,sans-Serif" font-size="14.00">e5</text>
</g>
<!-- n4 -->
<g id="node5" class="node">
<title>n4</title>
<polygon fill="#ffffff" stroke="black" points="1002,-72 714,-72 714,0 1002,0 1002,-72"/>
<text text-anchor="start" x="737.25" y="-31.2" font-family="Helvetica,sans-Serif" font-size="10.00">n4</text>
<text text-anchor="start" x="747.75" y="-31.2" font-family="Helvetica,sans-Serif" font-size="14.00">: shipping labels generated once a day</text>
</g>
<!-- n4&#45;&gt;n0 -->
<g id="edge4" class="edge">
<title>n4&#45;&gt;n0</title>
<path fill="none" stroke="#000000" stroke-width="3" d="M1002.37,-60.23C1020.13,-63.23 1038.37,-66.32 1056.34,-69.35"/>
<polygon fill="#000000" stroke="#000000" stroke-width="3" points="1055.75,-72.8 1066.2,-71.02 1056.92,-65.9 1055.75,-72.8"/>
<text text-anchor="middle" x="1036.5" y="-67.7" font-family="Helvetica,sans-Serif" font-size="14.00">e3</text>
</g>
<!-- n5&#45;&gt;n4 -->
<g id="edge5" class="edge">
<title>n5&#45;&gt;n4</title>
<path fill="none" stroke="#000000" stroke-width="3" d="M645.37,-36C663.13,-36 681.37,-36 699.34,-36"/>
<polygon fill="#000000" stroke="#000000" stroke-width="3" points="699.13,-39.5 709.13,-36 699.13,-32.5 699.13,-39.5"/>
<text text-anchor="middle" x="679.5" y="-37.7" font-family="Helvetica,sans-Serif" font-size="14.00">e4</text>
</g>
</g>
</svg>
