<?xml version="1.0" encoding="UTF-8" standalone="no"?>
<!DOCTYPE svg PUBLIC "-//W3C//DTD SVG 1.1//EN"
 "http://www.w3.org/Graphics/SVG/1.1/DTD/svg11.dtd">
<!-- Generated by graphviz version 7.0.0 (20221023.0053)
 -->
<!-- Pages: 1 -->
<svg width="1370pt" height="116pt"
 viewBox="0.00 0.00 1370.00 116.00" xmlns="http://www.w3.org/2000/svg" xmlns:xlink="http://www.w3.org/1999/xlink">
<g id="graph0" class="graph" transform="scale(1 1) rotate(0) translate(4 112)">
<polygon fill="white" stroke="none" points="-4,4 -4,-112 1366,-112 1366,4 -4,4"/>
<!-- n0 -->
<g id="node1" class="node">
<title>n0</title>
<polygon fill="#ffffff" stroke="black" points="1362,-74 1074,-74 1074,-38 1362,-38 1362,-74"/>
<text text-anchor="start" x="1109" y="-52.8" font-family="Helvetica,sans-Serif" font-size="10.00">n0</text>
<text text-anchor="start" x="1120" y="-52.8" font-family="Helvetica,sans-Serif" font-size="14.00">: customers get delivery too slowly</text>
</g>
<!-- n1 -->
<g id="node2" class="node">
<title>n1</title>
<polygon fill="#ffffff" stroke="black" points="1004,-108 716,-108 716,-72 1004,-72 1004,-108"/>
<text text-anchor="start" x="739" y="-86.8" font-family="Helvetica,sans-Serif" font-size="10.00">n1</text>
<text text-anchor="start" x="750" y="-86.8" font-family="Helvetica,sans-Serif" font-size="14.00">: orders need to be processed by hand</text>
</g>
<!-- n1&#45;&gt;n0 -->
<g id="edge1" class="edge">
<title>n1&#45;&gt;n0</title>
<path fill="none" stroke="#000000" stroke-width="3" d="M1004.26,-76.32C1022.42,-74.58 1041.07,-72.8 1059.44,-71.05"/>
<polygon fill="#000000" stroke="#000000" stroke-width="3" points="1059.6,-74.55 1069.22,-70.11 1058.94,-67.58 1059.6,-74.55"/>
<text text-anchor="middle" x="1039" y="-76.8" font-family="Helvetica,sans-Serif" font-size="14.00">e0</text>
</g>
<!-- n2 -->
<g id="node3" class="node">
<title>n2</title>
<polygon fill="#ffffff" stroke="black" points="646,-108 358,-108 358,-72 646,-72 646,-108"/>
<text text-anchor="start" x="368" y="-86.8" font-family="Helvetica,sans-Serif" font-size="10.00">n2</text>
<text text-anchor="start" x="379" y="-86.8" font-family="Helvetica,sans-Serif" font-size="14.00">: no developer capacity to automate orders</text>
</g>
<!-- n2&#45;&gt;n1 -->
<g id="edge2" class="edge">
<title>n2&#45;&gt;n1</title>
<path fill="none" stroke="#000000" stroke-width="3" d="M646.26,-90C664.42,-90 683.07,-90 701.44,-90"/>
<polygon fill="#000000" stroke="#000000" stroke-width="3" points="701.2,-93.5 711.2,-90 701.2,-86.5 701.2,-93.5"/>
<text text-anchor="middle" x="681" y="-93.8" font-family="Helvetica,sans-Serif" font-size="14.00">e1</text>
</g>
<!-- n3 -->
<g id="node4" class="node">
<title>n3</title>
<polygon fill="#ffffff" stroke="black" points="288,-72 0,-72 0,-36 288,-36 288,-72"/>
<text text-anchor="start" x="20" y="-50.8" font-family="Helvetica,sans-Serif" font-size="10.00">n3</text>
<text text-anchor="start" x="31" y="-50.8" font-family="Helvetica,sans-Serif" font-size="14.00">: developers engaged in low&#45;value work</text>
</g>
<!-- n3&#45;&gt;n2 -->
<g id="edge3" class="edge">
<title>n3&#45;&gt;n2</title>
<path fill="none" stroke="#000000" stroke-width="3" d="M288.26,-68.49C306.42,-70.32 325.07,-72.21 343.44,-74.07"/>
<polygon fill="#000000" stroke="#000000" stroke-width="3" points="342.92,-77.53 353.23,-75.06 343.63,-70.57 342.92,-77.53"/>
<text text-anchor="middle" x="323" y="-75.8" font-family="Helvetica,sans-Serif" font-size="14.00">e2</text>
</g>
<!-- n5 -->
<g id="node6" class="node">
<title>n5</title>
<polygon fill="#ffffff" stroke="black" points="646,-36 358,-36 358,0 646,0 646,-36"/>
<text text-anchor="start" x="375" y="-21.8" font-family="Helvetica,sans-Serif" font-size="10.00">n5</text>
<text text-anchor="start" x="386" y="-21.8" font-family="Helvetica,sans-Serif" font-size="14.00">: printers need rebooting but everyone in</text>
<text text-anchor="start" x="447" y="-7.8" font-family="Helvetica,sans-Serif" font-size="14.00">IT is busy util 3pm</text>
</g>
<!-- n3&#45;&gt;n5 -->
<g id="edge6" class="edge">
<title>n3&#45;&gt;n5</title>
<path fill="none" stroke="#000000" stroke-width="3" d="M288.26,-39.51C306.42,-37.68 325.07,-35.79 343.44,-33.93"/>
<polygon fill="#000000" stroke="#000000" stroke-width="3" points="343.63,-37.43 353.23,-32.94 342.92,-30.47 343.63,-37.43"/>
<text text-anchor="middle" x="323" y="-39.8" font-family="Helvetica,sans-Serif" font-size="14.00">e5</text>
</g>
<!-- n4 -->
<g id="node5" class="node">
<title>n4</title>
<polygon fill="#ffffff" stroke="black" points="1004,-36 716,-36 716,0 1004,0 1004,-36"/>
<text text-anchor="start" x="739" y="-14.8" font-family="Helvetica,sans-Serif" font-size="10.00">n4</text>
<text text-anchor="start" x="750" y="-14.8" font-family="Helvetica,sans-Serif" font-size="14.00">: shipping labels generated once a day</text>
</g>
<!-- n4&#45;&gt;n0 -->
<g id="edge4" class="edge">
<title>n4&#45;&gt;n0</title>
<path fill="none" stroke="#000000" stroke-width="3" d="M1004.26,-33.29C1022.42,-35.23 1041.07,-37.22 1059.44,-39.18"/>
<polygon fill="#000000" stroke="#000000" stroke-width="3" points="1058.91,-42.65 1069.23,-40.23 1059.66,-35.68 1058.91,-42.65"/>
<text text-anchor="middle" x="1039" y="-40.8" font-family="Helvetica,sans-Serif" font-size="14.00">e3</text>
</g>
<!-- n5&#45;&gt;n4 -->
<g id="edge5" class="edge">
<title>n5&#45;&gt;n4</title>
<path fill="none" stroke="#000000" stroke-width="3" d="M646.26,-18C664.42,-18 683.07,-18 701.44,-18"/>
<polygon fill="#000000" stroke="#000000" stroke-width="3" points="701.2,-21.5 711.2,-18 701.2,-14.5 701.2,-21.5"/>
<text text-anchor="middle" x="681" y="-21.8" font-family="Helvetica,sans-Serif" font-size="14.00">e4</text>
</g>
</g>
</svg>
