<?xml version="1.0" encoding="UTF-8" standalone="no"?>
<!DOCTYPE svg PUBLIC "-//W3C//DTD SVG 1.1//EN"
 "http://www.w3.org/Graphics/SVG/1.1/DTD/svg11.dtd">
<!-- Generated by graphviz version 3.0.0 (20220226.1711)
 -->
<!-- Pages: 1 -->
<svg width="1258pt" height="234pt"
 viewBox="0.00 0.00 1258.00 233.50" xmlns="http://www.w3.org/2000/svg" xmlns:xlink="http://www.w3.org/1999/xlink">
<g id="graph0" class="graph" transform="scale(1 1) rotate(0) translate(4 229.5)">
<polygon fill="white" stroke="transparent" points="-4,4 -4,-229.5 1254,-229.5 1254,4 -4,4"/>
<!-- n0 -->
<g id="node1" class="node">
<title>n0</title>
<text text-anchor="start" x="1025.5" y="-155" font-family="Helvetica,sans-Serif" font-size="10.00">n0</text>
<text text-anchor="start" x="1045" y="-152.8" font-family="Helvetica,sans-Serif" font-size="14.00">customers get delivery too slowly</text>
<polygon fill="#dddddd" stroke="transparent" points="1021,-83 1021,-147 1041,-147 1041,-83 1021,-83"/>
<polygon fill="none" stroke="black" points="1021,-83 1021,-147 1041,-147 1041,-83 1021,-83"/>
<polygon fill="none" stroke="black" points="1016,-78.5 1016,-169.5 1250,-169.5 1250,-78.5 1016,-78.5"/>
</g>
<!-- n1 -->
<g id="node2" class="node">
<title>n1</title>
<text text-anchor="start" x="697.5" y="-210" font-family="Helvetica,sans-Serif" font-size="10.00">n1</text>
<text text-anchor="start" x="717" y="-207.8" font-family="Helvetica,sans-Serif" font-size="14.00">orders need to be processed by hand</text>
<polygon fill="#dddddd" stroke="transparent" points="693,-138 693,-202 713,-202 713,-138 693,-138"/>
<polygon fill="none" stroke="black" points="693,-138 693,-202 713,-202 713,-138 693,-138"/>
<polygon fill="none" stroke="black" points="688,-133.5 688,-224.5 946,-224.5 946,-133.5 688,-133.5"/>
</g>
<!-- n1&#45;&gt;n0 -->
<g id="edge1" class="edge">
<title>n1&#45;&gt;n0</title>
<path fill="none" stroke="#000000" stroke-width="3" d="M946.17,-156.55C965.9,-153.09 986.26,-149.53 1005.94,-146.08"/>
<polygon fill="#000000" stroke="#000000" stroke-width="3" points="1006.61,-149.52 1015.85,-144.34 1005.4,-142.62 1006.61,-149.52"/>
<text text-anchor="middle" x="981" y="-154.8" font-family="Helvetica,sans-Serif" font-size="14.00">e0</text>
</g>
<!-- n2 -->
<g id="node3" class="node">
<title>n2</title>
<text text-anchor="start" x="343.5" y="-211" font-family="Helvetica,sans-Serif" font-size="10.00">n2</text>
<text text-anchor="start" x="363" y="-208.8" font-family="Helvetica,sans-Serif" font-size="14.00">no developer capacity to automate orders</text>
<polygon fill="#dddddd" stroke="transparent" points="339,-139 339,-203 359,-203 359,-139 339,-139"/>
<polygon fill="none" stroke="black" points="339,-139 339,-203 359,-203 359,-139 339,-139"/>
<polygon fill="none" stroke="black" points="334,-134.5 334,-225.5 618,-225.5 618,-134.5 334,-134.5"/>
</g>
<!-- n2&#45;&gt;n1 -->
<g id="edge2" class="edge">
<title>n2&#45;&gt;n1</title>
<path fill="none" stroke="#000000" stroke-width="3" d="M618.31,-179.58C637.96,-179.53 658.13,-179.47 677.72,-179.41"/>
<polygon fill="#000000" stroke="#000000" stroke-width="3" points="677.92,-182.91 687.91,-179.38 677.9,-175.91 677.92,-182.91"/>
<text text-anchor="middle" x="653" y="-182.8" font-family="Helvetica,sans-Serif" font-size="14.00">e1</text>
</g>
<!-- n3 -->
<g id="node4" class="node">
<title>n3</title>
<text text-anchor="start" x="9.5" y="-145" font-family="Helvetica,sans-Serif" font-size="10.00">n3</text>
<text text-anchor="start" x="29" y="-142.8" font-family="Helvetica,sans-Serif" font-size="14.00">developers engaged in low&#45;value work</text>
<polygon fill="#dddddd" stroke="transparent" points="5,-73 5,-137 25,-137 25,-73 5,-73"/>
<polygon fill="none" stroke="black" points="5,-73 5,-137 25,-137 25,-73 5,-73"/>
<polygon fill="none" stroke="black" points="0,-68.5 0,-159.5 264,-159.5 264,-68.5 0,-68.5"/>
</g>
<!-- n3&#45;&gt;n2 -->
<g id="edge3" class="edge">
<title>n3&#45;&gt;n2</title>
<path fill="none" stroke="#000000" stroke-width="3" d="M264.25,-139.33C283.75,-143.09 303.98,-147 323.84,-150.83"/>
<polygon fill="#000000" stroke="#000000" stroke-width="3" points="323.39,-154.31 333.87,-152.77 324.72,-147.43 323.39,-154.31"/>
<text text-anchor="middle" x="299" y="-150.8" font-family="Helvetica,sans-Serif" font-size="14.00">e2</text>
</g>
<!-- n5 -->
<g id="node6" class="node">
<title>n5</title>
<text text-anchor="start" x="351.5" y="-80.5" font-family="Helvetica,sans-Serif" font-size="10.00">n5</text>
<text text-anchor="start" x="371" y="-81.8" font-family="Helvetica,sans-Serif" font-size="14.00">printers need rebooting but everyone in</text>
<text text-anchor="start" x="433.5" y="-66.8" font-family="Helvetica,sans-Serif" font-size="14.00">IT is busy util 3pm</text>
<polygon fill="#dddddd" stroke="transparent" points="347,-5 347,-69 367,-69 367,-5 347,-5"/>
<polygon fill="none" stroke="black" points="347,-5 347,-69 367,-69 367,-5 347,-5"/>
<polygon fill="none" stroke="black" points="341.5,0 341.5,-98 610.5,-98 610.5,0 341.5,0"/>
</g>
<!-- n3&#45;&gt;n5 -->
<g id="edge6" class="edge">
<title>n3&#45;&gt;n5</title>
<path fill="none" stroke="#000000" stroke-width="3" d="M264.25,-89.06C286.24,-84.88 309.15,-80.52 331.43,-76.29"/>
<polygon fill="#000000" stroke="#000000" stroke-width="3" points="332.1,-79.72 341.27,-74.42 330.8,-72.84 332.1,-79.72"/>
<text text-anchor="middle" x="299" y="-87.8" font-family="Helvetica,sans-Serif" font-size="14.00">e5</text>
</g>
<!-- n4 -->
<g id="node5" class="node">
<title>n4</title>
<text text-anchor="start" x="697.5" y="-83" font-family="Helvetica,sans-Serif" font-size="10.00">n4</text>
<text text-anchor="start" x="717" y="-80.8" font-family="Helvetica,sans-Serif" font-size="14.00">shipping labels generated once a day</text>
<polygon fill="#dddddd" stroke="transparent" points="693,-11 693,-75 713,-75 713,-11 693,-11"/>
<polygon fill="none" stroke="black" points="693,-11 693,-75 713,-75 713,-11 693,-11"/>
<polygon fill="none" stroke="black" points="688,-6.5 688,-97.5 946,-97.5 946,-6.5 688,-6.5"/>
</g>
<!-- n4&#45;&gt;n0 -->
<g id="edge4" class="edge">
<title>n4&#45;&gt;n0</title>
<path fill="none" stroke="#000000" stroke-width="3" d="M946.17,-81.39C965.9,-85.91 986.26,-90.58 1005.94,-95.09"/>
<polygon fill="#000000" stroke="#000000" stroke-width="3" points="1005.32,-98.54 1015.85,-97.37 1006.89,-91.72 1005.32,-98.54"/>
<text text-anchor="middle" x="981" y="-94.8" font-family="Helvetica,sans-Serif" font-size="14.00">e3</text>
</g>
<!-- n5&#45;&gt;n4 -->
<g id="edge5" class="edge">
<title>n5&#45;&gt;n4</title>
<path fill="none" stroke="#000000" stroke-width="3" d="M610.98,-50.19C632.97,-50.38 655.79,-50.58 677.88,-50.78"/>
<polygon fill="#000000" stroke="#000000" stroke-width="3" points="677.94,-54.28 687.97,-50.87 678,-47.28 677.94,-54.28"/>
<text text-anchor="middle" x="653" y="-54.8" font-family="Helvetica,sans-Serif" font-size="14.00">e4</text>
</g>
</g>
</svg>
