<?xml version="1.0" encoding="UTF-8" standalone="no"?>
<!DOCTYPE svg PUBLIC "-//W3C//DTD SVG 1.1//EN"
 "http://www.w3.org/Graphics/SVG/1.1/DTD/svg11.dtd">
<!-- Generated by graphviz version 3.0.0 (20220226.1711)
 -->
<!-- Pages: 1 -->
<svg width="541pt" height="290pt"
 viewBox="0.00 0.00 541.00 290.00" xmlns="http://www.w3.org/2000/svg" xmlns:xlink="http://www.w3.org/1999/xlink">
<g id="graph0" class="graph" transform="scale(1 1) rotate(0) translate(4 286)">
<polygon fill="white" stroke="transparent" points="-4,4 -4,-286 537,-286 537,4 -4,4"/>
<!-- n0 -->
<g id="node1" class="node">
<title>n0</title>
<text text-anchor="middle" x="338.5" y="-3.8" font-family="Helvetica,sans-Serif" font-size="14.00">n0: customers get delivery too slowly</text>
</g>
<!-- n1 -->
<g id="node2" class="node">
<title>n1</title>
<text text-anchor="middle" x="126.5" y="-87.8" font-family="Helvetica,sans-Serif" font-size="14.00">n1: orders need to be processed by hand</text>
</g>
<!-- n1&#45;&gt;n0 -->
<g id="edge1" class="edge">
<title>n1&#45;&gt;n0</title>
<path fill="none" stroke="#000000" stroke-width="3" d="M143.49,-83.93C180.32,-69.68 267.73,-35.87 311.93,-18.78"/>
<polygon fill="#000000" stroke="#000000" stroke-width="3" points="313.36,-21.97 321.43,-15.1 310.84,-15.45 313.36,-21.97"/>
<text text-anchor="middle" x="259.5" y="-45.8" font-family="Helvetica,sans-Serif" font-size="14.00">e0</text>
</g>
<!-- n2 -->
<g id="node3" class="node">
<title>n2</title>
<text text-anchor="middle" x="126.5" y="-186.8" font-family="Helvetica,sans-Serif" font-size="14.00">n2: no developer capacity to automate</text>
<text text-anchor="middle" x="126.5" y="-171.8" font-family="Helvetica,sans-Serif" font-size="14.00">orders</text>
</g>
<!-- n2&#45;&gt;n1 -->
<g id="edge2" class="edge">
<title>n2&#45;&gt;n1</title>
<path fill="none" stroke="#000000" stroke-width="3" d="M126.5,-167.62C126.5,-151.72 126.5,-126.14 126.5,-109.32"/>
<polygon fill="#000000" stroke="#000000" stroke-width="3" points="130,-109.31 126.5,-99.31 123,-109.31 130,-109.31"/>
<text text-anchor="middle" x="134.5" y="-129.8" font-family="Helvetica,sans-Serif" font-size="14.00">e1</text>
</g>
<!-- n3 -->
<g id="node4" class="node">
<title>n3</title>
<text text-anchor="middle" x="126.5" y="-270.8" font-family="Helvetica,sans-Serif" font-size="14.00">n3: developers engaged in low&#45;value work</text>
</g>
<!-- n3&#45;&gt;n2 -->
<g id="edge3" class="edge">
<title>n3&#45;&gt;n2</title>
<path fill="none" stroke="#000000" stroke-width="3" d="M126.5,-266.77C126.5,-254.49 126.5,-227.89 126.5,-208.14"/>
<polygon fill="#000000" stroke="#000000" stroke-width="3" points="130,-208.01 126.5,-198.01 123,-208.01 130,-208.01"/>
<text text-anchor="middle" x="134.5" y="-228.8" font-family="Helvetica,sans-Serif" font-size="14.00">e2</text>
</g>
<!-- n4 -->
<g id="node5" class="node">
<title>n4</title>
<text text-anchor="middle" x="409.5" y="-87.8" font-family="Helvetica,sans-Serif" font-size="14.00">n4: shipping labels generated once a day</text>
</g>
<!-- n4&#45;&gt;n0 -->
<g id="edge4" class="edge">
<title>n4&#45;&gt;n0</title>
<path fill="none" stroke="#000000" stroke-width="3" d="M403.69,-83.79C392.19,-70.51 366.31,-40.62 350.84,-22.75"/>
<polygon fill="#000000" stroke="#000000" stroke-width="3" points="353.38,-20.34 344.19,-15.07 348.09,-24.92 353.38,-20.34"/>
<text text-anchor="middle" x="387.5" y="-45.8" font-family="Helvetica,sans-Serif" font-size="14.00">e3</text>
</g>
</g>
</svg>
