<?xml version="1.0" encoding="UTF-8" standalone="no"?>
<!DOCTYPE svg PUBLIC "-//W3C//DTD SVG 1.1//EN"
 "http://www.w3.org/Graphics/SVG/1.1/DTD/svg11.dtd">
<!-- Generated by graphviz version 9.0.0 (20230911.1827)
 -->
<!-- Pages: 1 -->
<svg width="1367pt" height="116pt"
 viewBox="0.00 0.00 1367.00 116.00" xmlns="http://www.w3.org/2000/svg" xmlns:xlink="http://www.w3.org/1999/xlink">
<g id="graph0" class="graph" transform="scale(1 1) rotate(0) translate(4 112)">
<polygon fill="white" stroke="none" points="-4,4 -4,-112 1363,-112 1363,4 -4,4"/>
<!-- n0 -->
<g id="node1" class="node">
<title>n0</title>
<polygon fill="#ffffff" stroke="black" points="1359,-74 1071,-74 1071,-38 1359,-38 1359,-74"/>
<text text-anchor="start" x="1106.62" y="-51.2" font-family="Helvetica,sans-Serif" font-size="10.00">n0</text>
<text text-anchor="start" x="1117.12" y="-51.2" font-family="Helvetica,sans-Serif" font-size="14.00">: customers get delivery too slowly</text>
</g>
<!-- n1 -->
<g id="node2" class="node">
<title>n1</title>
<polygon fill="#ffffff" stroke="black" points="1002,-108 714,-108 714,-72 1002,-72 1002,-108"/>
<text text-anchor="start" x="737.25" y="-85.2" font-family="Helvetica,sans-Serif" font-size="10.00">n1</text>
<text text-anchor="start" x="747.75" y="-85.2" font-family="Helvetica,sans-Serif" font-size="14.00">: orders need to be processed by hand</text>
</g>
<!-- n1&#45;&gt;n0 -->
<g id="edge1" class="edge">
<title>n1&#45;&gt;n0</title>
<path fill="none" stroke="#000000" stroke-width="3" d="M1002.37,-76.27C1020.13,-74.57 1038.37,-72.82 1056.34,-71.1"/>
<polygon fill="#000000" stroke="#000000" stroke-width="3" points="1056.53,-74.6 1066.15,-70.16 1055.87,-67.63 1056.53,-74.6"/>
<text text-anchor="middle" x="1036.5" y="-74.7" font-family="Helvetica,sans-Serif" font-size="14.00">e0</text>
</g>
<!-- n2 -->
<g id="node3" class="node">
<title>n2</title>
<polygon fill="#ffffff" stroke="black" points="645,-108 357,-108 357,-72 645,-72 645,-108"/>
<text text-anchor="start" x="367.5" y="-85.2" font-family="Helvetica,sans-Serif" font-size="10.00">n2</text>
<text text-anchor="start" x="378" y="-85.2" font-family="Helvetica,sans-Serif" font-size="14.00">: no developer capacity to automate orders</text>
</g>
<!-- n2&#45;&gt;n1 -->
<g id="edge2" class="edge">
<title>n2&#45;&gt;n1</title>
<path fill="none" stroke="#000000" stroke-width="3" d="M645.37,-90C663.13,-90 681.37,-90 699.34,-90"/>
<polygon fill="#000000" stroke="#000000" stroke-width="3" points="699.13,-93.5 709.13,-90 699.13,-86.5 699.13,-93.5"/>
<text text-anchor="middle" x="679.5" y="-91.7" font-family="Helvetica,sans-Serif" font-size="14.00">e1</text>
</g>
<!-- n3 -->
<g id="node4" class="node">
<title>n3</title>
<polygon fill="#ffffff" stroke="black" points="288,-72 0,-72 0,-36 288,-36 288,-72"/>
<text text-anchor="start" x="20.25" y="-49.2" font-family="Helvetica,sans-Serif" font-size="10.00">n3</text>
<text text-anchor="start" x="30.75" y="-49.2" font-family="Helvetica,sans-Serif" font-size="14.00">: developers engaged in low&#45;value work</text>
</g>
<!-- n3&#45;&gt;n2 -->
<g id="edge3" class="edge">
<title>n3&#45;&gt;n2</title>
<path fill="none" stroke="#000000" stroke-width="3" d="M288.37,-68.54C306.13,-70.34 324.37,-72.19 342.34,-74.01"/>
<polygon fill="#000000" stroke="#000000" stroke-width="3" points="341.85,-77.48 352.16,-75.01 342.56,-70.52 341.85,-77.48"/>
<text text-anchor="middle" x="322.5" y="-73.7" font-family="Helvetica,sans-Serif" font-size="14.00">e2</text>
</g>
<!-- n5 -->
<g id="node6" class="node">
<title>n5</title>
<polygon fill="#ffffff" stroke="black" points="645,-36 357,-36 357,0 645,0 645,-36"/>
<text text-anchor="start" x="374.62" y="-19.7" font-family="Helvetica,sans-Serif" font-size="10.00">n5</text>
<text text-anchor="start" x="385.12" y="-19.7" font-family="Helvetica,sans-Serif" font-size="14.00">: printers need rebooting but everyone in</text>
<text text-anchor="start" x="446.25" y="-5.7" font-family="Helvetica,sans-Serif" font-size="14.00">IT is busy util 3pm</text>
</g>
<!-- n3&#45;&gt;n5 -->
<g id="edge6" class="edge">
<title>n3&#45;&gt;n5</title>
<path fill="none" stroke="#000000" stroke-width="3" d="M288.37,-39.46C306.13,-37.66 324.37,-35.81 342.34,-33.99"/>
<polygon fill="#000000" stroke="#000000" stroke-width="3" points="342.56,-37.48 352.16,-32.99 341.85,-30.52 342.56,-37.48"/>
<text text-anchor="middle" x="322.5" y="-37.7" font-family="Helvetica,sans-Serif" font-size="14.00">e5</text>
</g>
<!-- n4 -->
<g id="node5" class="node">
<title>n4</title>
<polygon fill="#ffffff" stroke="black" points="1002,-36 714,-36 714,0 1002,0 1002,-36"/>
<text text-anchor="start" x="737.25" y="-13.2" font-family="Helvetica,sans-Serif" font-size="10.00">n4</text>
<text text-anchor="start" x="747.75" y="-13.2" font-family="Helvetica,sans-Serif" font-size="14.00">: shipping labels generated once a day</text>
</g>
<!-- n4&#45;&gt;n0 -->
<g id="edge4" class="edge">
<title>n4&#45;&gt;n0</title>
<path fill="none" stroke="#000000" stroke-width="3" d="M1002.37,-33.35C1020.13,-35.25 1038.37,-37.2 1056.34,-39.12"/>
<polygon fill="#000000" stroke="#000000" stroke-width="3" points="1055.84,-42.59 1066.16,-40.17 1056.59,-35.63 1055.84,-42.59"/>
<text text-anchor="middle" x="1036.5" y="-38.7" font-family="Helvetica,sans-Serif" font-size="14.00">e3</text>
</g>
<!-- n5&#45;&gt;n4 -->
<g id="edge5" class="edge">
<title>n5&#45;&gt;n4</title>
<path fill="none" stroke="#000000" stroke-width="3" d="M645.37,-18C663.13,-18 681.37,-18 699.34,-18"/>
<polygon fill="#000000" stroke="#000000" stroke-width="3" points="699.13,-21.5 709.13,-18 699.13,-14.5 699.13,-21.5"/>
<text text-anchor="middle" x="679.5" y="-19.7" font-family="Helvetica,sans-Serif" font-size="14.00">e4</text>
</g>
</g>
</svg>
