<?xml version="1.0" encoding="UTF-8" standalone="no"?>
<!DOCTYPE svg PUBLIC "-//W3C//DTD SVG 1.1//EN"
 "http://www.w3.org/Graphics/SVG/1.1/DTD/svg11.dtd">
<!-- Generated by graphviz version 3.0.0 (20220226.1711)
 -->
<!-- Pages: 1 -->
<svg width="1185pt" height="1073pt"
 viewBox="0.00 0.00 1184.50 1073.00" xmlns="http://www.w3.org/2000/svg" xmlns:xlink="http://www.w3.org/1999/xlink">
<g id="graph0" class="graph" transform="scale(1 1) rotate(0) translate(4 1069)">
<polygon fill="white" stroke="transparent" points="-4,4 -4,-1069 1180.5,-1069 1180.5,4 -4,4"/>
<!-- n0 -->
<g id="node1" class="node">
<title>n0</title>
<text text-anchor="start" x="9.5" y="-1050.5" font-family="Helvetica,sans-Serif" font-size="10.00">n0</text>
<text text-anchor="start" x="29" y="-1048.3" font-family="Helvetica,sans-Serif" font-size="14.00">Gandalf comes to the shire</text>
<polygon fill="#dddddd" stroke="transparent" points="5,-978.5 5,-1042.5 25,-1042.5 25,-978.5 5,-978.5"/>
<polygon fill="none" stroke="black" points="5,-978.5 5,-1042.5 25,-1042.5 25,-978.5 5,-978.5"/>
<polygon fill="none" stroke="black" points="0,-974 0,-1065 234,-1065 234,-974 0,-974"/>
</g>
<!-- n1 -->
<g id="node2" class="node">
<title>n1</title>
<text text-anchor="start" x="96.5" y="-890.5" font-family="Helvetica,sans-Serif" font-size="10.00">n1</text>
<text text-anchor="start" x="116" y="-888.3" font-family="Helvetica,sans-Serif" font-size="14.00">Frodo departs with the ring</text>
<polygon fill="#dddddd" stroke="transparent" points="92,-818.5 92,-882.5 112,-882.5 112,-818.5 92,-818.5"/>
<polygon fill="none" stroke="black" points="92,-818.5 92,-882.5 112,-882.5 112,-818.5 92,-818.5"/>
<polygon fill="none" stroke="black" points="87,-814 87,-905 321,-905 321,-814 87,-814"/>
</g>
<!-- n0&#45;&gt;n1 -->
<g id="edge1" class="edge">
<title>n0&#45;&gt;n1</title>
<path fill="none" stroke="#000000" stroke-width="3" d="M141.7,-973.65C151.89,-955.14 163.79,-933.53 174.44,-914.19"/>
<polygon fill="#000000" stroke="#000000" stroke-width="3" points="177.63,-915.64 179.39,-905.19 171.5,-912.26 177.63,-915.64"/>
<text text-anchor="middle" x="172" y="-935.8" font-family="Helvetica,sans-Serif" font-size="14.00">e0</text>
</g>
<!-- n9 -->
<g id="node10" class="node">
<title>n9</title>
<text text-anchor="start" x="362.5" y="-80.5" font-family="Helvetica,sans-Serif" font-size="10.00">n9</text>
<text text-anchor="start" x="382" y="-81.8" font-family="Helvetica,sans-Serif" font-size="14.00">the fellowship meets at Rivendell &quot;one</text>
<text text-anchor="start" x="394.5" y="-66.8" font-family="Helvetica,sans-Serif" font-size="14.00">does not simply walk into mordor&quot;</text>
<polygon fill="#dddddd" stroke="transparent" points="358,-5 358,-69 378,-69 378,-5 358,-5"/>
<polygon fill="none" stroke="black" points="358,-5 358,-69 378,-69 378,-5 358,-5"/>
<polygon fill="none" stroke="black" points="352.5,0 352.5,-98 615.5,-98 615.5,0 352.5,0"/>
</g>
<!-- n0&#45;&gt;n9 -->
<g id="edge11" class="edge">
<title>n0&#45;&gt;n9</title>
<path fill="none" stroke="#000000" stroke-width="3" d="M77.73,-973.82C55.46,-943.88 32,-902.39 32,-860.5 32,-860.5 32,-860.5 32,-211.5 32,-144.58 209.9,-98.06 342.49,-72.69"/>
<polygon fill="#000000" stroke="#000000" stroke-width="3" points="343.18,-76.12 352.35,-70.82 341.88,-69.24 343.18,-76.12"/>
<text text-anchor="middle" x="43.5" y="-535.8" font-family="Helvetica,sans-Serif" font-size="14.00">e10</text>
</g>
<!-- n2 -->
<g id="node3" class="node">
<title>n2</title>
<text text-anchor="start" x="297.5" y="-730.5" font-family="Helvetica,sans-Serif" font-size="10.00">n2</text>
<text text-anchor="start" x="317" y="-728.3" font-family="Helvetica,sans-Serif" font-size="14.00">the inn at Bree</text>
<polygon fill="#dddddd" stroke="transparent" points="293,-658.5 293,-722.5 313,-722.5 313,-658.5 293,-658.5"/>
<polygon fill="none" stroke="black" points="293,-658.5 293,-722.5 313,-722.5 313,-658.5 293,-658.5"/>
<polygon fill="none" stroke="black" points="288,-654 288,-745 522,-745 522,-654 288,-654"/>
</g>
<!-- n1&#45;&gt;n2 -->
<g id="edge2" class="edge">
<title>n1&#45;&gt;n2</title>
<path fill="none" stroke="#000000" stroke-width="3" d="M260.79,-813.86C285.51,-794.42 314.62,-771.55 340.18,-751.45"/>
<polygon fill="#000000" stroke="#000000" stroke-width="3" points="342.65,-753.96 348.35,-745.03 338.32,-748.46 342.65,-753.96"/>
<text text-anchor="middle" x="319" y="-775.8" font-family="Helvetica,sans-Serif" font-size="14.00">e1</text>
</g>
<!-- n3 -->
<g id="node4" class="node">
<title>n3</title>
<text text-anchor="start" x="383.5" y="-570.5" font-family="Helvetica,sans-Serif" font-size="10.00">n3</text>
<text text-anchor="start" x="403" y="-568.3" font-family="Helvetica,sans-Serif" font-size="14.00">the hobbits escape with Aragorn</text>
<polygon fill="#dddddd" stroke="transparent" points="379,-498.5 379,-562.5 399,-562.5 399,-498.5 379,-498.5"/>
<polygon fill="none" stroke="black" points="379,-498.5 379,-562.5 399,-562.5 399,-498.5 379,-498.5"/>
<polygon fill="none" stroke="black" points="374,-494 374,-585 608,-585 608,-494 374,-494"/>
</g>
<!-- n2&#45;&gt;n3 -->
<g id="edge3" class="edge">
<title>n2&#45;&gt;n3</title>
<path fill="none" stroke="#000000" stroke-width="3" d="M429.41,-653.65C439.49,-635.14 451.25,-613.53 461.78,-594.19"/>
<polygon fill="#000000" stroke="#000000" stroke-width="3" points="464.97,-595.65 466.67,-585.19 458.82,-592.3 464.97,-595.65"/>
<text text-anchor="middle" x="459" y="-615.8" font-family="Helvetica,sans-Serif" font-size="14.00">e2</text>
</g>
<!-- n6 -->
<g id="node7" class="node">
<title>n6</title>
<text text-anchor="start" x="108.5" y="-570.5" font-family="Helvetica,sans-Serif" font-size="10.00">n6</text>
<text text-anchor="start" x="128" y="-568.3" font-family="Helvetica,sans-Serif" font-size="14.00">the Nazghuls move to Weathertop</text>
<polygon fill="#dddddd" stroke="transparent" points="104,-498.5 104,-562.5 124,-562.5 124,-498.5 104,-498.5"/>
<polygon fill="none" stroke="black" points="104,-498.5 104,-562.5 124,-562.5 124,-498.5 104,-498.5"/>
<polygon fill="none" stroke="black" points="98.5,-494 98.5,-585 337.5,-585 337.5,-494 98.5,-494"/>
</g>
<!-- n2&#45;&gt;n6 -->
<g id="edge6" class="edge">
<title>n2&#45;&gt;n6</title>
<path fill="none" stroke="#000000" stroke-width="3" d="M351.91,-653.65C329.12,-634.38 302.35,-611.77 278.76,-591.84"/>
<polygon fill="#000000" stroke="#000000" stroke-width="3" points="280.79,-588.97 270.9,-585.19 276.27,-594.32 280.79,-588.97"/>
<text text-anchor="middle" x="326" y="-615.8" font-family="Helvetica,sans-Serif" font-size="14.00">e5</text>
</g>
<!-- n4 -->
<g id="node5" class="node">
<title>n4</title>
<text text-anchor="start" x="97.5" y="-407.5" font-family="Helvetica,sans-Serif" font-size="10.00">n4</text>
<text text-anchor="start" x="117" y="-408.8" font-family="Helvetica,sans-Serif" font-size="14.00">nazghuls catch up at Weathertop; Frodo</text>
<text text-anchor="start" x="210" y="-393.8" font-family="Helvetica,sans-Serif" font-size="14.00">is injured</text>
<polygon fill="#dddddd" stroke="transparent" points="93,-332 93,-396 113,-396 113,-332 93,-332"/>
<polygon fill="none" stroke="black" points="93,-332 93,-396 113,-396 113,-332 93,-332"/>
<polygon fill="none" stroke="black" points="87.5,-327 87.5,-425 362.5,-425 362.5,-327 87.5,-327"/>
</g>
<!-- n3&#45;&gt;n4 -->
<g id="edge4" class="edge">
<title>n3&#45;&gt;n4</title>
<path fill="none" stroke="#000000" stroke-width="3" d="M417.61,-493.94C385.28,-474.32 347.03,-451.09 313.17,-430.53"/>
<polygon fill="#000000" stroke="#000000" stroke-width="3" points="314.57,-427.29 304.21,-425.09 310.94,-433.27 314.57,-427.29"/>
<text text-anchor="middle" x="374" y="-455.8" font-family="Helvetica,sans-Serif" font-size="14.00">e3</text>
</g>
<!-- n8 -->
<g id="node9" class="node">
<title>n8</title>
<text text-anchor="start" x="106.5" y="-243.5" font-family="Helvetica,sans-Serif" font-size="10.00">n8</text>
<text text-anchor="start" x="126" y="-241.3" font-family="Helvetica,sans-Serif" font-size="14.00">flight to the ford</text>
<polygon fill="#dddddd" stroke="transparent" points="102,-171.5 102,-235.5 122,-235.5 122,-171.5 102,-171.5"/>
<polygon fill="none" stroke="black" points="102,-171.5 102,-235.5 122,-235.5 122,-171.5 102,-171.5"/>
<polygon fill="none" stroke="black" points="97,-167 97,-258 331,-258 331,-167 97,-167"/>
</g>
<!-- n4&#45;&gt;n8 -->
<g id="edge9" class="edge">
<title>n4&#45;&gt;n8</title>
<path fill="none" stroke="#000000" stroke-width="3" d="M221.73,-326.98C220.47,-308.46 219.02,-287.17 217.72,-268.08"/>
<polygon fill="#000000" stroke="#000000" stroke-width="3" points="221.2,-267.76 217.03,-258.02 214.22,-268.24 221.2,-267.76"/>
<text text-anchor="middle" x="228" y="-288.8" font-family="Helvetica,sans-Serif" font-size="14.00">e8</text>
</g>
<!-- n5 -->
<g id="node6" class="node">
<title>n5</title>
<text text-anchor="start" x="366.5" y="-890.5" font-family="Helvetica,sans-Serif" font-size="10.00">n5</text>
<text text-anchor="start" x="386" y="-888.3" font-family="Helvetica,sans-Serif" font-size="14.00">Nazghuls move to Bree</text>
<polygon fill="#dddddd" stroke="transparent" points="362,-818.5 362,-882.5 382,-882.5 382,-818.5 362,-818.5"/>
<polygon fill="none" stroke="black" points="362,-818.5 362,-882.5 382,-882.5 382,-818.5 362,-818.5"/>
<polygon fill="none" stroke="black" points="357,-814 357,-905 591,-905 591,-814 357,-814"/>
</g>
<!-- n5&#45;&gt;n2 -->
<g id="edge5" class="edge">
<title>n5&#45;&gt;n2</title>
<path fill="none" stroke="#000000" stroke-width="3" d="M454.41,-813.65C446.37,-795.22 436.98,-773.73 428.56,-754.45"/>
<polygon fill="#000000" stroke="#000000" stroke-width="3" points="431.73,-752.96 424.52,-745.19 425.31,-755.76 431.73,-752.96"/>
<text text-anchor="middle" x="450" y="-775.8" font-family="Helvetica,sans-Serif" font-size="14.00">e4</text>
</g>
<!-- n6&#45;&gt;n4 -->
<g id="edge7" class="edge">
<title>n6&#45;&gt;n4</title>
<path fill="none" stroke="#000000" stroke-width="3" d="M219.93,-493.94C220.72,-475.82 221.64,-454.63 222.47,-435.3"/>
<polygon fill="#000000" stroke="#000000" stroke-width="3" points="225.98,-435.23 222.92,-425.09 218.99,-434.93 225.98,-435.23"/>
<text text-anchor="middle" x="230" y="-455.8" font-family="Helvetica,sans-Serif" font-size="14.00">e6</text>
</g>
<!-- n7 -->
<g id="node8" class="node">
<title>n7</title>
<text text-anchor="start" x="364.5" y="-1050.5" font-family="Helvetica,sans-Serif" font-size="10.00">n7</text>
<text text-anchor="start" x="384" y="-1048.3" font-family="Helvetica,sans-Serif" font-size="14.00">Nazghuls dispatched from Mordor</text>
<polygon fill="#dddddd" stroke="transparent" points="360,-978.5 360,-1042.5 380,-1042.5 380,-978.5 360,-978.5"/>
<polygon fill="none" stroke="black" points="360,-978.5 360,-1042.5 380,-1042.5 380,-978.5 360,-978.5"/>
<polygon fill="none" stroke="black" points="354.5,-974 354.5,-1065 593.5,-1065 593.5,-974 354.5,-974"/>
</g>
<!-- n7&#45;&gt;n5 -->
<g id="edge8" class="edge">
<title>n7&#45;&gt;n5</title>
<path fill="none" stroke="#000000" stroke-width="3" d="M474,-973.65C474,-955.47 474,-934.31 474,-915.24"/>
<polygon fill="#000000" stroke="#000000" stroke-width="3" points="477.5,-915.19 474,-905.19 470.5,-915.19 477.5,-915.19"/>
<text text-anchor="middle" x="482" y="-935.8" font-family="Helvetica,sans-Serif" font-size="14.00">e7</text>
</g>
<!-- n8&#45;&gt;n9 -->
<g id="edge10" class="edge">
<title>n8&#45;&gt;n9</title>
<path fill="none" stroke="#000000" stroke-width="3" d="M288.49,-166.94C321.45,-147.23 360.46,-123.89 394.94,-103.27"/>
<polygon fill="#000000" stroke="#000000" stroke-width="3" points="396.82,-106.23 403.6,-98.09 393.22,-100.22 396.82,-106.23"/>
<text text-anchor="middle" x="366" y="-128.8" font-family="Helvetica,sans-Serif" font-size="14.00">e9</text>
</g>
<!-- n10 -->
<g id="node11" class="node">
<title>n10</title>
<text text-anchor="start" x="374" y="-243.5" font-family="Helvetica,sans-Serif" font-size="10.00">n10</text>
<text text-anchor="start" x="396" y="-241.3" font-family="Helvetica,sans-Serif" font-size="14.00">Gimli leaves the mountains</text>
<polygon fill="#dddddd" stroke="transparent" points="372,-171.5 372,-235.5 392,-235.5 392,-171.5 372,-171.5"/>
<polygon fill="none" stroke="black" points="372,-171.5 372,-235.5 392,-235.5 392,-171.5 372,-171.5"/>
<polygon fill="none" stroke="black" points="367,-167 367,-258 601,-258 601,-167 367,-167"/>
</g>
<!-- n10&#45;&gt;n9 -->
<g id="edge12" class="edge">
<title>n10&#45;&gt;n9</title>
<path fill="none" stroke="#000000" stroke-width="3" d="M484,-166.94C484,-148.82 484,-127.63 484,-108.3"/>
<polygon fill="#000000" stroke="#000000" stroke-width="3" points="487.5,-108.09 484,-98.09 480.5,-108.09 487.5,-108.09"/>
<text text-anchor="middle" x="495.5" y="-128.8" font-family="Helvetica,sans-Serif" font-size="14.00">e11</text>
</g>
<!-- n11 -->
<g id="node12" class="node">
<title>n11</title>
<text text-anchor="start" x="644" y="-243.5" font-family="Helvetica,sans-Serif" font-size="10.00">n11</text>
<text text-anchor="start" x="666" y="-241.3" font-family="Helvetica,sans-Serif" font-size="14.00">Legolas travels from Mirkwood</text>
<polygon fill="#dddddd" stroke="transparent" points="642,-171.5 642,-235.5 662,-235.5 662,-171.5 642,-171.5"/>
<polygon fill="none" stroke="black" points="642,-171.5 642,-235.5 662,-235.5 662,-171.5 642,-171.5"/>
<polygon fill="none" stroke="black" points="637,-167 637,-258 871,-258 871,-167 637,-167"/>
</g>
<!-- n11&#45;&gt;n9 -->
<g id="edge13" class="edge">
<title>n11&#45;&gt;n9</title>
<path fill="none" stroke="#000000" stroke-width="3" d="M679.51,-166.94C646.55,-147.23 607.54,-123.89 573.06,-103.27"/>
<polygon fill="#000000" stroke="#000000" stroke-width="3" points="574.78,-100.22 564.4,-98.09 571.18,-106.23 574.78,-100.22"/>
<text text-anchor="middle" x="638.5" y="-128.8" font-family="Helvetica,sans-Serif" font-size="14.00">e12</text>
</g>
<!-- n12 -->
<g id="node13" class="node">
<title>n12</title>
<text text-anchor="start" x="915" y="-243.5" font-family="Helvetica,sans-Serif" font-size="10.00">n12</text>
<text text-anchor="start" x="937" y="-241.3" font-family="Helvetica,sans-Serif" font-size="14.00">Boromir seeks the sword that is broken</text>
<polygon fill="#dddddd" stroke="transparent" points="913,-171.5 913,-235.5 933,-235.5 933,-171.5 913,-171.5"/>
<polygon fill="none" stroke="black" points="913,-171.5 913,-235.5 933,-235.5 933,-171.5 913,-171.5"/>
<polygon fill="none" stroke="black" points="907.5,-167 907.5,-258 1176.5,-258 1176.5,-167 907.5,-167"/>
</g>
<!-- n12&#45;&gt;n9 -->
<g id="edge14" class="edge">
<title>n12&#45;&gt;n9</title>
<path fill="none" stroke="#000000" stroke-width="3" d="M907.26,-172.3C901.09,-170.5 894.98,-168.73 889,-167 801.53,-141.65 703.42,-113.3 625.66,-90.86"/>
<polygon fill="#000000" stroke="#000000" stroke-width="3" points="626.38,-87.42 615.8,-88.01 624.44,-94.15 626.38,-87.42"/>
<text text-anchor="middle" x="800.5" y="-128.8" font-family="Helvetica,sans-Serif" font-size="14.00">e13</text>
</g>
<!-- n13 -->
<g id="node14" class="node">
<title>n13</title>
<text text-anchor="start" x="932" y="-407.5" font-family="Helvetica,sans-Serif" font-size="10.00">n13</text>
<text text-anchor="start" x="954" y="-408.8" font-family="Helvetica,sans-Serif" font-size="14.00">Boromir fights in the battle for</text>
<text text-anchor="start" x="1016" y="-393.8" font-family="Helvetica,sans-Serif" font-size="14.00">Osgiliath</text>
<polygon fill="#dddddd" stroke="transparent" points="930,-332 930,-396 950,-396 950,-332 930,-332"/>
<polygon fill="none" stroke="black" points="930,-332 930,-396 950,-396 950,-332 930,-332"/>
<polygon fill="none" stroke="black" points="925,-327 925,-425 1159,-425 1159,-327 925,-327"/>
</g>
<!-- n13&#45;&gt;n12 -->
<g id="edge15" class="edge">
<title>n13&#45;&gt;n12</title>
<path fill="none" stroke="#000000" stroke-width="3" d="M1042,-326.98C1042,-308.46 1042,-287.17 1042,-268.08"/>
<polygon fill="#000000" stroke="#000000" stroke-width="3" points="1045.5,-268.02 1042,-258.02 1038.5,-268.02 1045.5,-268.02"/>
<text text-anchor="middle" x="1053.5" y="-288.8" font-family="Helvetica,sans-Serif" font-size="14.00">e14</text>
</g>
</g>
</svg>
