<?xml version="1.0" encoding="UTF-8" standalone="no"?>
<!DOCTYPE svg PUBLIC "-//W3C//DTD SVG 1.1//EN"
 "http://www.w3.org/Graphics/SVG/1.1/DTD/svg11.dtd">
<!-- Generated by graphviz version 2.49.0 (20210828.1703)
 -->
<!-- Pages: 1 -->
<svg width="1223pt" height="836pt"
 viewBox="0.00 0.00 1223.00 836.00" xmlns="http://www.w3.org/2000/svg" xmlns:xlink="http://www.w3.org/1999/xlink">
<g id="graph0" class="graph" transform="scale(1 1) rotate(0) translate(4 832)">
<polygon fill="white" stroke="transparent" points="-4,4 -4,-832 1219,-832 1219,4 -4,4"/>
<!-- n0 -->
<g id="node1" class="node">
<title>n0</title>
<polygon fill="#fcf9fa" stroke="#000000" stroke-width="3" points="252,-828 0,-828 0,-756 252,-756 252,-828"/>
<text text-anchor="middle" x="126" y="-788.3" font-family="Helvetica,sans-Serif" font-size="14.00" fill="#000000">Gandalf comes to the shire</text>
</g>
<!-- n1 -->
<g id="node2" class="node">
<title>n1</title>
<polygon fill="#fcf9fa" stroke="#000000" stroke-width="3" points="342,-702 90,-702 90,-630 342,-630 342,-702"/>
<text text-anchor="middle" x="216" y="-662.3" font-family="Helvetica,sans-Serif" font-size="14.00" fill="#000000">Frodo departs with the ring</text>
</g>
<!-- n0&#45;&gt;n1 -->
<g id="edge1" class="edge">
<title>n0&#45;&gt;n1</title>
<path fill="none" stroke="#000000" stroke-width="3" d="M151.55,-755.8C161.72,-741.79 173.52,-725.53 184.23,-710.77"/>
<polygon fill="#000000" stroke="#000000" stroke-width="3" points="187.35,-712.44 190.39,-702.29 181.68,-708.33 187.35,-712.44"/>
</g>
<!-- n9 -->
<g id="node10" class="node">
<title>n9</title>
<polygon fill="#fcf9fa" stroke="#000000" stroke-width="3" points="633.5,-72 380.5,-72 380.5,0 633.5,0 633.5,-72"/>
<text text-anchor="middle" x="507" y="-39.8" font-family="Helvetica,sans-Serif" font-size="14.00" fill="#000000">the fellowship meets at Rivendell &quot;one</text>
<text text-anchor="middle" x="507" y="-24.8" font-family="Helvetica,sans-Serif" font-size="14.00" fill="#000000">does not simply walk into mordor&quot;</text>
</g>
<!-- n0&#45;&gt;n9 -->
<g id="edge11" class="edge">
<title>n0&#45;&gt;n9</title>
<path fill="none" stroke="#000000" stroke-width="3" d="M100.92,-755.58C90.7,-739.79 79.55,-720.59 72,-702 44.38,-633.97 35,-614.42 35,-541 35,-541 35,-541 35,-287 35,-213.27 21.82,-177.07 75,-126 116.77,-85.88 260.03,-62.1 370.24,-49.35"/>
<polygon fill="#000000" stroke="#000000" stroke-width="3" points="370.92,-52.8 380.46,-48.19 370.13,-45.84 370.92,-52.8"/>
</g>
<!-- n2 -->
<g id="node3" class="node">
<title>n2</title>
<polygon fill="#fcf9fa" stroke="#000000" stroke-width="3" points="487,-576 235,-576 235,-504 487,-504 487,-576"/>
<text text-anchor="middle" x="361" y="-536.3" font-family="Helvetica,sans-Serif" font-size="14.00" fill="#000000">the inn at Bree</text>
</g>
<!-- n1&#45;&gt;n2 -->
<g id="edge2" class="edge">
<title>n1&#45;&gt;n2</title>
<path fill="none" stroke="#000000" stroke-width="3" d="M257.16,-629.8C274.23,-615.21 294.16,-598.16 311.97,-582.93"/>
<polygon fill="#000000" stroke="#000000" stroke-width="3" points="314.66,-585.23 319.98,-576.07 310.11,-579.91 314.66,-585.23"/>
</g>
<!-- n3 -->
<g id="node4" class="node">
<title>n3</title>
<polygon fill="#fcf9fa" stroke="#000000" stroke-width="3" points="633,-450 381,-450 381,-378 633,-378 633,-450"/>
<text text-anchor="middle" x="507" y="-410.3" font-family="Helvetica,sans-Serif" font-size="14.00" fill="#000000">the hobbits escape with Aragorn</text>
</g>
<!-- n2&#45;&gt;n3 -->
<g id="edge3" class="edge">
<title>n2&#45;&gt;n3</title>
<path fill="none" stroke="#000000" stroke-width="3" d="M402.45,-503.8C419.63,-489.21 439.7,-472.16 457.63,-456.93"/>
<polygon fill="#000000" stroke="#000000" stroke-width="3" points="460.35,-459.22 465.7,-450.07 455.81,-453.88 460.35,-459.22"/>
</g>
<!-- n6 -->
<g id="node7" class="node">
<title>n6</title>
<polygon fill="#fcf9fa" stroke="#000000" stroke-width="3" points="345,-450 93,-450 93,-378 345,-378 345,-450"/>
<text text-anchor="middle" x="219" y="-410.3" font-family="Helvetica,sans-Serif" font-size="14.00" fill="#000000">the Nazghuls move to Weathertop</text>
</g>
<!-- n2&#45;&gt;n6 -->
<g id="edge6" class="edge">
<title>n2&#45;&gt;n6</title>
<path fill="none" stroke="#000000" stroke-width="3" d="M320.69,-503.8C304.05,-489.27 284.63,-472.31 267.24,-457.13"/>
<polygon fill="#000000" stroke="#000000" stroke-width="3" points="269.25,-454.23 259.41,-450.29 264.64,-459.5 269.25,-454.23"/>
</g>
<!-- n4 -->
<g id="node5" class="node">
<title>n4</title>
<polygon fill="#fcf9fa" stroke="#000000" stroke-width="3" points="355.5,-324 90.5,-324 90.5,-252 355.5,-252 355.5,-324"/>
<text text-anchor="middle" x="223" y="-291.8" font-family="Helvetica,sans-Serif" font-size="14.00" fill="#000000">nazghuls catch up at Weathertop; Frodo</text>
<text text-anchor="middle" x="223" y="-276.8" font-family="Helvetica,sans-Serif" font-size="14.00" fill="#000000">is injured</text>
</g>
<!-- n3&#45;&gt;n4 -->
<g id="edge4" class="edge">
<title>n3&#45;&gt;n4</title>
<path fill="none" stroke="#000000" stroke-width="3" d="M426.76,-377.96C391.22,-362.45 349.28,-344.14 312.71,-328.17"/>
<polygon fill="#000000" stroke="#000000" stroke-width="3" points="314.1,-324.96 303.54,-324.16 311.3,-331.37 314.1,-324.96"/>
</g>
<!-- n8 -->
<g id="node9" class="node">
<title>n8</title>
<polygon fill="#fcf9fa" stroke="#000000" stroke-width="3" points="345,-198 93,-198 93,-126 345,-126 345,-198"/>
<text text-anchor="middle" x="219" y="-158.3" font-family="Helvetica,sans-Serif" font-size="14.00" fill="#000000">flight to the ford</text>
</g>
<!-- n4&#45;&gt;n8 -->
<g id="edge9" class="edge">
<title>n4&#45;&gt;n8</title>
<path fill="none" stroke="#000000" stroke-width="3" d="M221.86,-251.8C221.43,-238.32 220.93,-222.74 220.47,-208.43"/>
<polygon fill="#000000" stroke="#000000" stroke-width="3" points="223.96,-208.17 220.14,-198.29 216.96,-208.4 223.96,-208.17"/>
</g>
<!-- n5 -->
<g id="node6" class="node">
<title>n5</title>
<polygon fill="#fcf9fa" stroke="#000000" stroke-width="3" points="630,-702 378,-702 378,-630 630,-630 630,-702"/>
<text text-anchor="middle" x="504" y="-662.3" font-family="Helvetica,sans-Serif" font-size="14.00" fill="#000000">Nazghuls move to Bree</text>
</g>
<!-- n5&#45;&gt;n2 -->
<g id="edge5" class="edge">
<title>n5&#45;&gt;n2</title>
<path fill="none" stroke="#000000" stroke-width="3" d="M463.4,-629.8C446.65,-615.27 427.09,-598.31 409.58,-583.13"/>
<polygon fill="#000000" stroke="#000000" stroke-width="3" points="411.55,-580.2 401.7,-576.29 406.96,-585.49 411.55,-580.2"/>
</g>
<!-- n6&#45;&gt;n4 -->
<g id="edge7" class="edge">
<title>n6&#45;&gt;n4</title>
<path fill="none" stroke="#000000" stroke-width="3" d="M220.14,-377.8C220.57,-364.32 221.07,-348.74 221.53,-334.43"/>
<polygon fill="#000000" stroke="#000000" stroke-width="3" points="225.04,-334.4 221.86,-324.29 218.04,-334.17 225.04,-334.4"/>
</g>
<!-- n7 -->
<g id="node8" class="node">
<title>n7</title>
<polygon fill="#fcf9fa" stroke="#000000" stroke-width="3" points="630,-828 378,-828 378,-756 630,-756 630,-828"/>
<text text-anchor="middle" x="504" y="-788.3" font-family="Helvetica,sans-Serif" font-size="14.00" fill="#000000">Nazghuls dispatched from Mordor</text>
</g>
<!-- n7&#45;&gt;n5 -->
<g id="edge8" class="edge">
<title>n7&#45;&gt;n5</title>
<path fill="none" stroke="#000000" stroke-width="3" d="M504,-755.8C504,-742.32 504,-726.74 504,-712.43"/>
<polygon fill="#000000" stroke="#000000" stroke-width="3" points="507.5,-712.29 504,-702.29 500.5,-712.29 507.5,-712.29"/>
</g>
<!-- n8&#45;&gt;n9 -->
<g id="edge10" class="edge">
<title>n8&#45;&gt;n9</title>
<path fill="none" stroke="#000000" stroke-width="3" d="M300.37,-125.96C336.41,-110.45 378.94,-92.14 416.02,-76.17"/>
<polygon fill="#000000" stroke="#000000" stroke-width="3" points="417.53,-79.33 425.33,-72.16 414.76,-72.9 417.53,-79.33"/>
</g>
<!-- n10 -->
<g id="node11" class="node">
<title>n10</title>
<polygon fill="#fcf9fa" stroke="#000000" stroke-width="3" points="633,-198 381,-198 381,-126 633,-126 633,-198"/>
<text text-anchor="middle" x="507" y="-158.3" font-family="Helvetica,sans-Serif" font-size="14.00" fill="#000000">Gimli leaves the mountains</text>
</g>
<!-- n10&#45;&gt;n9 -->
<g id="edge12" class="edge">
<title>n10&#45;&gt;n9</title>
<path fill="none" stroke="#000000" stroke-width="3" d="M507,-125.8C507,-112.32 507,-96.74 507,-82.43"/>
<polygon fill="#000000" stroke="#000000" stroke-width="3" points="510.5,-82.29 507,-72.29 503.5,-82.29 510.5,-82.29"/>
</g>
<!-- n11 -->
<g id="node12" class="node">
<title>n11</title>
<polygon fill="#fcf9fa" stroke="#000000" stroke-width="3" points="921,-198 669,-198 669,-126 921,-126 921,-198"/>
<text text-anchor="middle" x="795" y="-158.3" font-family="Helvetica,sans-Serif" font-size="14.00" fill="#000000">Legolas travels from Mirkwood</text>
</g>
<!-- n11&#45;&gt;n9 -->
<g id="edge13" class="edge">
<title>n11&#45;&gt;n9</title>
<path fill="none" stroke="#000000" stroke-width="3" d="M713.63,-125.96C677.59,-110.45 635.06,-92.14 597.98,-76.17"/>
<polygon fill="#000000" stroke="#000000" stroke-width="3" points="599.24,-72.9 588.67,-72.16 596.47,-79.33 599.24,-72.9"/>
</g>
<!-- n12 -->
<g id="node13" class="node">
<title>n12</title>
<polygon fill="#fcf9fa" stroke="#000000" stroke-width="3" points="1215,-198 957,-198 957,-126 1215,-126 1215,-198"/>
<text text-anchor="middle" x="1086" y="-158.3" font-family="Helvetica,sans-Serif" font-size="14.00" fill="#000000">Boromir seeks the sword that is broken</text>
</g>
<!-- n12&#45;&gt;n9 -->
<g id="edge14" class="edge">
<title>n12&#45;&gt;n9</title>
<path fill="none" stroke="#000000" stroke-width="3" d="M956.99,-130.05C950.91,-128.66 944.89,-127.31 939,-126 840.49,-104.13 728.92,-81.19 643.85,-64.08"/>
<polygon fill="#000000" stroke="#000000" stroke-width="3" points="644.36,-60.61 633.87,-62.08 642.98,-67.48 644.36,-60.61"/>
</g>
<!-- n13 -->
<g id="node14" class="node">
<title>n13</title>
<polygon fill="#fcf9fa" stroke="#000000" stroke-width="3" points="1212,-324 960,-324 960,-252 1212,-252 1212,-324"/>
<text text-anchor="middle" x="1086" y="-291.8" font-family="Helvetica,sans-Serif" font-size="14.00" fill="#000000">Boromir fights in the battle for</text>
<text text-anchor="middle" x="1086" y="-276.8" font-family="Helvetica,sans-Serif" font-size="14.00" fill="#000000">Osgiliath</text>
</g>
<!-- n13&#45;&gt;n12 -->
<g id="edge15" class="edge">
<title>n13&#45;&gt;n12</title>
<path fill="none" stroke="#000000" stroke-width="3" d="M1086,-251.8C1086,-238.32 1086,-222.74 1086,-208.43"/>
<polygon fill="#000000" stroke="#000000" stroke-width="3" points="1089.5,-208.29 1086,-198.29 1082.5,-208.29 1089.5,-208.29"/>
</g>
</g>
</svg>
