<?xml version="1.0" encoding="UTF-8" standalone="no"?>
<!DOCTYPE svg PUBLIC "-//W3C//DTD SVG 1.1//EN"
 "http://www.w3.org/Graphics/SVG/1.1/DTD/svg11.dtd">
<!-- Generated by graphviz version 7.0.0 (20221023.0053)
 -->
<!-- Pages: 1 -->
<svg width="1404pt" height="674pt"
 viewBox="0.00 0.00 1404.00 674.00" xmlns="http://www.w3.org/2000/svg" xmlns:xlink="http://www.w3.org/1999/xlink">
<g id="graph0" class="graph" transform="scale(1 1) rotate(0) translate(4 670)">
<polygon fill="white" stroke="none" points="-4,4 -4,-670 1400,-670 1400,4 -4,4"/>
<!-- n0 -->
<g id="node1" class="node">
<title>n0</title>
<polygon fill="#ffffff" stroke="black" points="288,-666 0,-666 0,-630 288,-630 288,-666"/>
<text text-anchor="start" x="53" y="-644.8" font-family="Helvetica,sans-Serif" font-size="10.00">n0</text>
<text text-anchor="start" x="64" y="-644.8" font-family="Helvetica,sans-Serif" font-size="14.00">: Gandalf comes to the shire</text>
</g>
<!-- n1 -->
<g id="node2" class="node">
<title>n1</title>
<polygon fill="#ffffff" stroke="black" points="422,-561 134,-561 134,-525 422,-525 422,-561"/>
<text text-anchor="start" x="188" y="-539.8" font-family="Helvetica,sans-Serif" font-size="10.00">n1</text>
<text text-anchor="start" x="199" y="-539.8" font-family="Helvetica,sans-Serif" font-size="14.00">: Frodo departs with the ring</text>
</g>
<!-- n0&#45;&gt;n1 -->
<g id="edge1" class="edge">
<title>n0&#45;&gt;n1</title>
<path fill="none" stroke="#000000" stroke-width="3" d="M166.73,-629.53C187.94,-613.23 219.86,-588.69 244.08,-570.08"/>
<polygon fill="#000000" stroke="#000000" stroke-width="3" points="246.21,-572.85 252,-563.98 241.94,-567.3 246.21,-572.85"/>
<text text-anchor="middle" x="228" y="-591.8" font-family="Helvetica,sans-Serif" font-size="14.00">e0</text>
</g>
<!-- n9 -->
<g id="node10" class="node">
<title>n9</title>
<polygon fill="#ffffff" stroke="black" points="748,-36 460,-36 460,0 748,0 748,-36"/>
<text text-anchor="start" x="480" y="-21.8" font-family="Helvetica,sans-Serif" font-size="10.00">n9</text>
<text text-anchor="start" x="491" y="-21.8" font-family="Helvetica,sans-Serif" font-size="14.00">: the fellowship meets at Rivendell &quot;one</text>
<text text-anchor="start" x="502" y="-7.8" font-family="Helvetica,sans-Serif" font-size="14.00">does not simply walk into mordor&quot;</text>
</g>
<!-- n0&#45;&gt;n9 -->
<g id="edge11" class="edge">
<title>n0&#45;&gt;n9</title>
<path fill="none" stroke="#000000" stroke-width="3" d="M124.5,-629.74C105.35,-610.8 79,-578.47 79,-544 79,-544 79,-544 79,-122 79,-46.45 290.98,-25.33 445.55,-19.96"/>
<polygon fill="#000000" stroke="#000000" stroke-width="3" points="445.43,-23.47 455.31,-19.65 445.2,-16.47 445.43,-23.47"/>
<text text-anchor="middle" x="90.5" y="-329.3" font-family="Helvetica,sans-Serif" font-size="14.00">e10</text>
</g>
<!-- n2 -->
<g id="node3" class="node">
<title>n2</title>
<polygon fill="#ffffff" stroke="black" points="544,-456 256,-456 256,-420 544,-420 544,-456"/>
<text text-anchor="start" x="347" y="-434.8" font-family="Helvetica,sans-Serif" font-size="10.00">n2</text>
<text text-anchor="start" x="358" y="-434.8" font-family="Helvetica,sans-Serif" font-size="14.00">: the inn at Bree</text>
</g>
<!-- n1&#45;&gt;n2 -->
<g id="edge2" class="edge">
<title>n1&#45;&gt;n2</title>
<path fill="none" stroke="#000000" stroke-width="3" d="M298.7,-524.53C317.83,-508.38 346.53,-484.14 368.51,-465.59"/>
<polygon fill="#000000" stroke="#000000" stroke-width="3" points="370.76,-468.27 376.14,-459.14 366.24,-462.92 370.76,-468.27"/>
<text text-anchor="middle" x="355" y="-486.8" font-family="Helvetica,sans-Serif" font-size="14.00">e1</text>
</g>
<!-- n3 -->
<g id="node4" class="node">
<title>n3</title>
<polygon fill="#d0cccc" stroke="black" points="750,-351 462,-351 462,-315 750,-315 750,-351"/>
<text text-anchor="start" x="500" y="-329.8" font-family="Helvetica,sans-Serif" font-size="10.00">n3</text>
<text text-anchor="start" x="511" y="-329.8" font-family="Helvetica,sans-Serif" font-size="14.00">: the hobbits escape with Aragorn</text>
</g>
<!-- n2&#45;&gt;n3 -->
<g id="edge3" class="edge">
<title>n2&#45;&gt;n3</title>
<path fill="none" stroke="#000000" stroke-width="3" d="M434.95,-419.53C468.93,-402.53 520.82,-376.59 558.53,-357.73"/>
<polygon fill="#000000" stroke="#000000" stroke-width="3" points="559.79,-361.02 567.17,-353.42 556.66,-354.76 559.79,-361.02"/>
<text text-anchor="middle" x="523" y="-381.8" font-family="Helvetica,sans-Serif" font-size="14.00">e2</text>
</g>
<!-- n6 -->
<g id="node7" class="node">
<title>n6</title>
<polygon fill="#ffffff" stroke="black" points="426,-351 138,-351 138,-315 426,-315 426,-351"/>
<text text-anchor="start" x="170" y="-329.8" font-family="Helvetica,sans-Serif" font-size="10.00">n6</text>
<text text-anchor="start" x="181" y="-329.8" font-family="Helvetica,sans-Serif" font-size="14.00">: the Nazghuls move to Weathertop</text>
</g>
<!-- n2&#45;&gt;n6 -->
<g id="edge6" class="edge">
<title>n2&#45;&gt;n6</title>
<path fill="none" stroke="#000000" stroke-width="3" d="M379.98,-419.53C361.48,-403.38 333.71,-379.14 312.46,-360.59"/>
<polygon fill="#000000" stroke="#000000" stroke-width="3" points="314.98,-358.14 305.14,-354.2 310.37,-363.41 314.98,-358.14"/>
<text text-anchor="middle" x="357" y="-381.8" font-family="Helvetica,sans-Serif" font-size="14.00">e5</text>
</g>
<!-- n4 -->
<g id="node5" class="node">
<title>n4</title>
<polygon fill="#ffffff" stroke="black" points="426,-246 138,-246 138,-210 426,-210 426,-246"/>
<text text-anchor="start" x="153" y="-231.8" font-family="Helvetica,sans-Serif" font-size="10.00">n4</text>
<text text-anchor="start" x="164" y="-231.8" font-family="Helvetica,sans-Serif" font-size="14.00">: nazghuls catch up at Weathertop; Frodo</text>
<text text-anchor="start" x="255" y="-217.8" font-family="Helvetica,sans-Serif" font-size="14.00">is injured</text>
</g>
<!-- n3&#45;&gt;n4 -->
<g id="edge4" class="edge">
<title>n3&#45;&gt;n4</title>
<path fill="none" stroke="#000000" stroke-width="3" d="M551.04,-314.53C495.8,-296.97 410.5,-269.85 350.8,-250.87"/>
<polygon fill="#000000" stroke="#000000" stroke-width="3" points="351.88,-247.54 341.29,-247.85 349.76,-254.21 351.88,-247.54"/>
<text text-anchor="middle" x="472" y="-276.8" font-family="Helvetica,sans-Serif" font-size="14.00">e3</text>
</g>
<!-- n8 -->
<g id="node9" class="node">
<title>n8</title>
<polygon fill="#ffffff" stroke="black" points="424,-141 136,-141 136,-105 424,-105 424,-141"/>
<text text-anchor="start" x="224" y="-119.8" font-family="Helvetica,sans-Serif" font-size="10.00">n8</text>
<text text-anchor="start" x="235" y="-119.8" font-family="Helvetica,sans-Serif" font-size="14.00">: flight to the ford</text>
</g>
<!-- n4&#45;&gt;n8 -->
<g id="edge9" class="edge">
<title>n4&#45;&gt;n8</title>
<path fill="none" stroke="#000000" stroke-width="3" d="M281.66,-209.53C281.37,-194.79 280.96,-173.32 280.61,-155.58"/>
<polygon fill="#000000" stroke="#000000" stroke-width="3" points="284.12,-155.68 280.42,-145.75 277.12,-155.82 284.12,-155.68"/>
<text text-anchor="middle" x="290" y="-171.8" font-family="Helvetica,sans-Serif" font-size="14.00">e8</text>
</g>
<!-- n5 -->
<g id="node6" class="node">
<title>n5</title>
<polygon fill="#ffffff" stroke="black" points="746,-561 458,-561 458,-525 746,-525 746,-561"/>
<text text-anchor="start" x="522" y="-539.8" font-family="Helvetica,sans-Serif" font-size="10.00">n5</text>
<text text-anchor="start" x="533" y="-539.8" font-family="Helvetica,sans-Serif" font-size="14.00">: Nazghuls move to Bree</text>
</g>
<!-- n5&#45;&gt;n2 -->
<g id="edge5" class="edge">
<title>n5&#45;&gt;n2</title>
<path fill="none" stroke="#000000" stroke-width="3" d="M567.73,-524.53C534.55,-507.61 483.97,-481.82 447.03,-462.98"/>
<polygon fill="#000000" stroke="#000000" stroke-width="3" points="448.64,-459.87 438.14,-458.45 445.46,-466.11 448.64,-459.87"/>
<text text-anchor="middle" x="521" y="-486.8" font-family="Helvetica,sans-Serif" font-size="14.00">e4</text>
</g>
<!-- n6&#45;&gt;n4 -->
<g id="edge7" class="edge">
<title>n6&#45;&gt;n4</title>
<path fill="none" stroke="#000000" stroke-width="3" d="M282,-314.53C282,-299.79 282,-278.32 282,-260.58"/>
<polygon fill="#000000" stroke="#000000" stroke-width="3" points="285.5,-260.76 282,-250.76 278.5,-260.76 285.5,-260.76"/>
<text text-anchor="middle" x="290" y="-276.8" font-family="Helvetica,sans-Serif" font-size="14.00">e6</text>
</g>
<!-- n7 -->
<g id="node8" class="node">
<title>n7</title>
<polygon fill="#ffffff" stroke="black" points="746,-666 458,-666 458,-630 746,-630 746,-666"/>
<text text-anchor="start" x="491" y="-644.8" font-family="Helvetica,sans-Serif" font-size="10.00">n7</text>
<text text-anchor="start" x="502" y="-644.8" font-family="Helvetica,sans-Serif" font-size="14.00">: Nazghuls dispatched from Mordor</text>
</g>
<!-- n7&#45;&gt;n5 -->
<g id="edge8" class="edge">
<title>n7&#45;&gt;n5</title>
<path fill="none" stroke="#000000" stroke-width="3" d="M602,-629.53C602,-614.79 602,-593.32 602,-575.58"/>
<polygon fill="#000000" stroke="#000000" stroke-width="3" points="605.5,-575.76 602,-565.76 598.5,-575.76 605.5,-575.76"/>
<text text-anchor="middle" x="610" y="-591.8" font-family="Helvetica,sans-Serif" font-size="14.00">e7</text>
</g>
<!-- n8&#45;&gt;n9 -->
<g id="edge10" class="edge">
<title>n8&#45;&gt;n9</title>
<path fill="none" stroke="#000000" stroke-width="3" d="M334.96,-104.53C390.2,-86.97 475.5,-59.85 535.2,-40.87"/>
<polygon fill="#000000" stroke="#000000" stroke-width="3" points="536.24,-44.21 544.71,-37.85 534.12,-37.54 536.24,-44.21"/>
<text text-anchor="middle" x="470" y="-66.8" font-family="Helvetica,sans-Serif" font-size="14.00">e9</text>
</g>
<!-- n10 -->
<g id="node11" class="node">
<title>n10</title>
<polygon fill="#ffffff" stroke="black" points="748,-141 460,-141 460,-105 748,-105 748,-141"/>
<text text-anchor="start" x="510" y="-119.8" font-family="Helvetica,sans-Serif" font-size="10.00">n10</text>
<text text-anchor="start" x="526" y="-119.8" font-family="Helvetica,sans-Serif" font-size="14.00">: Gimli leaves the mountains</text>
</g>
<!-- n10&#45;&gt;n9 -->
<g id="edge12" class="edge">
<title>n10&#45;&gt;n9</title>
<path fill="none" stroke="#000000" stroke-width="3" d="M604,-104.53C604,-89.79 604,-68.32 604,-50.58"/>
<polygon fill="#000000" stroke="#000000" stroke-width="3" points="607.5,-50.76 604,-40.76 600.5,-50.76 607.5,-50.76"/>
<text text-anchor="middle" x="615.5" y="-66.8" font-family="Helvetica,sans-Serif" font-size="14.00">e11</text>
</g>
<!-- n11 -->
<g id="node12" class="node">
<title>n11</title>
<polygon fill="#ffffff" stroke="black" points="1072,-141 784,-141 784,-105 1072,-105 1072,-141"/>
<text text-anchor="start" x="824" y="-119.8" font-family="Helvetica,sans-Serif" font-size="10.00">n11</text>
<text text-anchor="start" x="840" y="-119.8" font-family="Helvetica,sans-Serif" font-size="14.00">: Legolas travels from Mirkwood</text>
</g>
<!-- n11&#45;&gt;n9 -->
<g id="edge13" class="edge">
<title>n11&#45;&gt;n9</title>
<path fill="none" stroke="#000000" stroke-width="3" d="M873.04,-104.53C817.8,-86.97 732.5,-59.85 672.8,-40.87"/>
<polygon fill="#000000" stroke="#000000" stroke-width="3" points="673.88,-37.54 663.29,-37.85 671.76,-44.21 673.88,-37.54"/>
<text text-anchor="middle" x="796.5" y="-66.8" font-family="Helvetica,sans-Serif" font-size="14.00">e12</text>
</g>
<!-- n12 -->
<g id="node13" class="node">
<title>n12</title>
<polygon fill="#ffffff" stroke="black" points="1396,-141 1108,-141 1108,-105 1396,-105 1396,-141"/>
<text text-anchor="start" x="1123" y="-119.8" font-family="Helvetica,sans-Serif" font-size="10.00">n12</text>
<text text-anchor="start" x="1139" y="-119.8" font-family="Helvetica,sans-Serif" font-size="14.00">: Boromir seeks the sword that is broken</text>
</g>
<!-- n12&#45;&gt;n9 -->
<g id="edge14" class="edge">
<title>n12&#45;&gt;n9</title>
<path fill="none" stroke="#000000" stroke-width="3" d="M1142.08,-104.53C1027.4,-86.3 847.96,-57.78 728.22,-38.74"/>
<polygon fill="#000000" stroke="#000000" stroke-width="3" points="728.83,-35.3 718.41,-37.18 727.73,-42.21 728.83,-35.3"/>
<text text-anchor="middle" x="977.5" y="-66.8" font-family="Helvetica,sans-Serif" font-size="14.00">e13</text>
</g>
<!-- n13 -->
<g id="node14" class="node">
<title>n13</title>
<polygon fill="#ffffff" stroke="black" points="1396,-246 1108,-246 1108,-210 1396,-210 1396,-246"/>
<text text-anchor="start" x="1152" y="-231.8" font-family="Helvetica,sans-Serif" font-size="10.00">n13</text>
<text text-anchor="start" x="1168" y="-231.8" font-family="Helvetica,sans-Serif" font-size="14.00">: Boromir fights in the battle for</text>
<text text-anchor="start" x="1225.5" y="-217.8" font-family="Helvetica,sans-Serif" font-size="14.00">Osgiliath</text>
</g>
<!-- n13&#45;&gt;n12 -->
<g id="edge15" class="edge">
<title>n13&#45;&gt;n12</title>
<path fill="none" stroke="#000000" stroke-width="3" d="M1252,-209.53C1252,-194.79 1252,-173.32 1252,-155.58"/>
<polygon fill="#000000" stroke="#000000" stroke-width="3" points="1255.5,-155.76 1252,-145.76 1248.5,-155.76 1255.5,-155.76"/>
<text text-anchor="middle" x="1263.5" y="-171.8" font-family="Helvetica,sans-Serif" font-size="14.00">e14</text>
</g>
</g>
</svg>
