<?xml version="1.0" encoding="UTF-8" standalone="no"?>
<!DOCTYPE svg PUBLIC "-//W3C//DTD SVG 1.1//EN"
 "http://www.w3.org/Graphics/SVG/1.1/DTD/svg11.dtd">
<!-- Generated by graphviz version 2.49.1 (20210923.0004)
 -->
<!-- Pages: 1 -->
<svg width="1368pt" height="836pt"
 viewBox="0.00 0.00 1368.00 836.00" xmlns="http://www.w3.org/2000/svg" xmlns:xlink="http://www.w3.org/1999/xlink">
<g id="graph0" class="graph" transform="scale(1 1) rotate(0) translate(4 832)">
<polygon fill="white" stroke="transparent" points="-4,4 -4,-832 1364,-832 1364,4 -4,4"/>
<!-- n0 -->
<g id="node1" class="node">
<title>n0</title>
<polygon fill="#ffffff" stroke="#000000" stroke-width="3" points="288,-828 0,-828 0,-756 288,-756 288,-828"/>
<text text-anchor="middle" x="144" y="-788.3" font-family="Helvetica,sans-Serif" font-size="14.00" fill="#000000">Gandalf comes to the shire</text>
</g>
<!-- n1 -->
<g id="node2" class="node">
<title>n1</title>
<polygon fill="#ffffff" stroke="#000000" stroke-width="3" points="388,-702 100,-702 100,-630 388,-630 388,-702"/>
<text text-anchor="middle" x="244" y="-662.3" font-family="Helvetica,sans-Serif" font-size="14.00" fill="#000000">Frodo departs with the ring</text>
</g>
<!-- n0&#45;&gt;n1 -->
<g id="edge1" class="edge">
<title>n0&#45;&gt;n1</title>
<path fill="none" stroke="#000000" stroke-width="3" d="M172.39,-755.8C183.79,-741.66 197.05,-725.22 209.03,-710.36"/>
<polygon fill="#000000" stroke="#000000" stroke-width="3" points="211.99,-712.27 215.54,-702.29 206.54,-707.88 211.99,-712.27"/>
</g>
<!-- n9 -->
<g id="node10" class="node">
<title>n9</title>
<polygon fill="#ffffff" stroke="#000000" stroke-width="3" points="712,-72 424,-72 424,0 712,0 712,-72"/>
<text text-anchor="middle" x="568" y="-39.8" font-family="Helvetica,sans-Serif" font-size="14.00" fill="#000000">the fellowship meets at Rivendell &quot;one</text>
<text text-anchor="middle" x="568" y="-24.8" font-family="Helvetica,sans-Serif" font-size="14.00" fill="#000000">does not simply walk into mordor&quot;</text>
</g>
<!-- n0&#45;&gt;n9 -->
<g id="edge11" class="edge">
<title>n0&#45;&gt;n9</title>
<path fill="none" stroke="#000000" stroke-width="3" d="M114.69,-755.65C103.02,-740.03 90.39,-720.94 82,-702 52.25,-634.88 45,-614.42 45,-541 45,-541 45,-541 45,-287 45,-213.58 28.93,-176.74 82,-126 128.86,-81.2 289.82,-58.27 413.8,-47.01"/>
<polygon fill="#000000" stroke="#000000" stroke-width="3" points="414.14,-50.5 423.79,-46.12 413.52,-43.52 414.14,-50.5"/>
</g>
<!-- n2 -->
<g id="node3" class="node">
<title>n2</title>
<polygon fill="#ffffff" stroke="#000000" stroke-width="3" points="550,-576 262,-576 262,-504 550,-504 550,-576"/>
<text text-anchor="middle" x="406" y="-536.3" font-family="Helvetica,sans-Serif" font-size="14.00" fill="#000000">the inn at Bree</text>
</g>
<!-- n1&#45;&gt;n2 -->
<g id="edge2" class="edge">
<title>n1&#45;&gt;n2</title>
<path fill="none" stroke="#000000" stroke-width="3" d="M289.99,-629.8C309.31,-615.01 331.92,-597.7 352.02,-582.31"/>
<polygon fill="#000000" stroke="#000000" stroke-width="3" points="354.36,-584.93 360.18,-576.07 350.11,-579.37 354.36,-584.93"/>
</g>
<!-- n3 -->
<g id="node4" class="node">
<title>n3</title>
<polygon fill="#ffffff" stroke="#000000" stroke-width="3" points="712,-450 424,-450 424,-378 712,-378 712,-450"/>
<text text-anchor="middle" x="568" y="-410.3" font-family="Helvetica,sans-Serif" font-size="14.00" fill="#000000">the hobbits escape with Aragorn</text>
</g>
<!-- n2&#45;&gt;n3 -->
<g id="edge3" class="edge">
<title>n2&#45;&gt;n3</title>
<path fill="none" stroke="#000000" stroke-width="3" d="M451.99,-503.8C471.31,-489.01 493.92,-471.7 514.02,-456.31"/>
<polygon fill="#000000" stroke="#000000" stroke-width="3" points="516.36,-458.93 522.18,-450.07 512.11,-453.37 516.36,-458.93"/>
</g>
<!-- n6 -->
<g id="node7" class="node">
<title>n6</title>
<polygon fill="#ffffff" stroke="#000000" stroke-width="3" points="388,-450 100,-450 100,-378 388,-378 388,-450"/>
<text text-anchor="middle" x="244" y="-410.3" font-family="Helvetica,sans-Serif" font-size="14.00" fill="#000000">the Nazghuls move to Weathertop</text>
</g>
<!-- n2&#45;&gt;n6 -->
<g id="edge6" class="edge">
<title>n2&#45;&gt;n6</title>
<path fill="none" stroke="#000000" stroke-width="3" d="M360.01,-503.8C340.69,-489.01 318.08,-471.7 297.98,-456.31"/>
<polygon fill="#000000" stroke="#000000" stroke-width="3" points="299.89,-453.37 289.82,-450.07 295.64,-458.93 299.89,-453.37"/>
</g>
<!-- n4 -->
<g id="node5" class="node">
<title>n4</title>
<polygon fill="#ffffff" stroke="#000000" stroke-width="3" points="388,-324 100,-324 100,-252 388,-252 388,-324"/>
<text text-anchor="middle" x="244" y="-291.8" font-family="Helvetica,sans-Serif" font-size="14.00" fill="#000000">nazghuls catch up at Weathertop; Frodo</text>
<text text-anchor="middle" x="244" y="-276.8" font-family="Helvetica,sans-Serif" font-size="14.00" fill="#000000">is injured</text>
</g>
<!-- n3&#45;&gt;n4 -->
<g id="edge4" class="edge">
<title>n3&#45;&gt;n4</title>
<path fill="none" stroke="#000000" stroke-width="3" d="M476.45,-377.96C435.48,-362.28 387.05,-343.75 345.02,-327.66"/>
<polygon fill="#000000" stroke="#000000" stroke-width="3" points="346.19,-324.36 335.6,-324.06 343.69,-330.9 346.19,-324.36"/>
</g>
<!-- n8 -->
<g id="node9" class="node">
<title>n8</title>
<polygon fill="#ffffff" stroke="#000000" stroke-width="3" points="388,-198 100,-198 100,-126 388,-126 388,-198"/>
<text text-anchor="middle" x="244" y="-158.3" font-family="Helvetica,sans-Serif" font-size="14.00" fill="#000000">flight to the ford</text>
</g>
<!-- n4&#45;&gt;n8 -->
<g id="edge9" class="edge">
<title>n4&#45;&gt;n8</title>
<path fill="none" stroke="#000000" stroke-width="3" d="M244,-251.8C244,-238.32 244,-222.74 244,-208.43"/>
<polygon fill="#000000" stroke="#000000" stroke-width="3" points="247.5,-208.29 244,-198.29 240.5,-208.29 247.5,-208.29"/>
</g>
<!-- n5 -->
<g id="node6" class="node">
<title>n5</title>
<polygon fill="#ffffff" stroke="#000000" stroke-width="3" points="712,-702 424,-702 424,-630 712,-630 712,-702"/>
<text text-anchor="middle" x="568" y="-662.3" font-family="Helvetica,sans-Serif" font-size="14.00" fill="#000000">Nazghuls move to Bree</text>
</g>
<!-- n5&#45;&gt;n2 -->
<g id="edge5" class="edge">
<title>n5&#45;&gt;n2</title>
<path fill="none" stroke="#000000" stroke-width="3" d="M522.01,-629.8C502.69,-615.01 480.08,-597.7 459.98,-582.31"/>
<polygon fill="#000000" stroke="#000000" stroke-width="3" points="461.89,-579.37 451.82,-576.07 457.64,-584.93 461.89,-579.37"/>
</g>
<!-- n6&#45;&gt;n4 -->
<g id="edge7" class="edge">
<title>n6&#45;&gt;n4</title>
<path fill="none" stroke="#000000" stroke-width="3" d="M244,-377.8C244,-364.32 244,-348.74 244,-334.43"/>
<polygon fill="#000000" stroke="#000000" stroke-width="3" points="247.5,-334.29 244,-324.29 240.5,-334.29 247.5,-334.29"/>
</g>
<!-- n7 -->
<g id="node8" class="node">
<title>n7</title>
<polygon fill="#ffffff" stroke="#000000" stroke-width="3" points="712,-828 424,-828 424,-756 712,-756 712,-828"/>
<text text-anchor="middle" x="568" y="-788.3" font-family="Helvetica,sans-Serif" font-size="14.00" fill="#000000">Nazghuls dispatched from Mordor</text>
</g>
<!-- n7&#45;&gt;n5 -->
<g id="edge8" class="edge">
<title>n7&#45;&gt;n5</title>
<path fill="none" stroke="#000000" stroke-width="3" d="M568,-755.8C568,-742.32 568,-726.74 568,-712.43"/>
<polygon fill="#000000" stroke="#000000" stroke-width="3" points="571.5,-712.29 568,-702.29 564.5,-712.29 571.5,-712.29"/>
</g>
<!-- n8&#45;&gt;n9 -->
<g id="edge10" class="edge">
<title>n8&#45;&gt;n9</title>
<path fill="none" stroke="#000000" stroke-width="3" d="M335.55,-125.96C376.52,-110.28 424.95,-91.75 466.98,-75.66"/>
<polygon fill="#000000" stroke="#000000" stroke-width="3" points="468.31,-78.9 476.4,-72.06 465.81,-72.36 468.31,-78.9"/>
</g>
<!-- n10 -->
<g id="node11" class="node">
<title>n10</title>
<polygon fill="#ffffff" stroke="#000000" stroke-width="3" points="712,-198 424,-198 424,-126 712,-126 712,-198"/>
<text text-anchor="middle" x="568" y="-158.3" font-family="Helvetica,sans-Serif" font-size="14.00" fill="#000000">Gimli leaves the mountains</text>
</g>
<!-- n10&#45;&gt;n9 -->
<g id="edge12" class="edge">
<title>n10&#45;&gt;n9</title>
<path fill="none" stroke="#000000" stroke-width="3" d="M568,-125.8C568,-112.32 568,-96.74 568,-82.43"/>
<polygon fill="#000000" stroke="#000000" stroke-width="3" points="571.5,-82.29 568,-72.29 564.5,-82.29 571.5,-82.29"/>
</g>
<!-- n11 -->
<g id="node12" class="node">
<title>n11</title>
<polygon fill="#ffffff" stroke="#000000" stroke-width="3" points="1036,-198 748,-198 748,-126 1036,-126 1036,-198"/>
<text text-anchor="middle" x="892" y="-158.3" font-family="Helvetica,sans-Serif" font-size="14.00" fill="#000000">Legolas travels from Mirkwood</text>
</g>
<!-- n11&#45;&gt;n9 -->
<g id="edge13" class="edge">
<title>n11&#45;&gt;n9</title>
<path fill="none" stroke="#000000" stroke-width="3" d="M800.45,-125.96C759.48,-110.28 711.05,-91.75 669.02,-75.66"/>
<polygon fill="#000000" stroke="#000000" stroke-width="3" points="670.19,-72.36 659.6,-72.06 667.69,-78.9 670.19,-72.36"/>
</g>
<!-- n12 -->
<g id="node13" class="node">
<title>n12</title>
<polygon fill="#ffffff" stroke="#000000" stroke-width="3" points="1360,-198 1072,-198 1072,-126 1360,-126 1360,-198"/>
<text text-anchor="middle" x="1216" y="-158.3" font-family="Helvetica,sans-Serif" font-size="14.00" fill="#000000">Boromir seeks the sword that is broken</text>
</g>
<!-- n12&#45;&gt;n9 -->
<g id="edge14" class="edge">
<title>n12&#45;&gt;n9</title>
<path fill="none" stroke="#000000" stroke-width="3" d="M1071.64,-129.57C1065.68,-128.35 1059.78,-127.15 1054,-126 943.2,-103.89 817.76,-80.97 722.08,-63.93"/>
<polygon fill="#000000" stroke="#000000" stroke-width="3" points="722.5,-60.45 712.04,-62.14 721.27,-67.34 722.5,-60.45"/>
</g>
<!-- n13 -->
<g id="node14" class="node">
<title>n13</title>
<polygon fill="#ffffff" stroke="#000000" stroke-width="3" points="1360,-324 1072,-324 1072,-252 1360,-252 1360,-324"/>
<text text-anchor="middle" x="1216" y="-291.8" font-family="Helvetica,sans-Serif" font-size="14.00" fill="#000000">Boromir fights in the battle for</text>
<text text-anchor="middle" x="1216" y="-276.8" font-family="Helvetica,sans-Serif" font-size="14.00" fill="#000000">Osgiliath</text>
</g>
<!-- n13&#45;&gt;n12 -->
<g id="edge15" class="edge">
<title>n13&#45;&gt;n12</title>
<path fill="none" stroke="#000000" stroke-width="3" d="M1216,-251.8C1216,-238.32 1216,-222.74 1216,-208.43"/>
<polygon fill="#000000" stroke="#000000" stroke-width="3" points="1219.5,-208.29 1216,-198.29 1212.5,-208.29 1219.5,-208.29"/>
</g>
</g>
</svg>
