<?xml version="1.0" encoding="UTF-8" standalone="no"?>
<!DOCTYPE svg PUBLIC "-//W3C//DTD SVG 1.1//EN"
 "http://www.w3.org/Graphics/SVG/1.1/DTD/svg11.dtd">
<!-- Generated by graphviz version 2.49.1 (20210923.0004)
 -->
<!-- Pages: 1 -->
<svg width="1404pt" height="926pt"
 viewBox="0.00 0.00 1404.00 926.00" xmlns="http://www.w3.org/2000/svg" xmlns:xlink="http://www.w3.org/1999/xlink">
<g id="graph0" class="graph" transform="scale(1 1) rotate(0) translate(4 922)">
<polygon fill="white" stroke="transparent" points="-4,4 -4,-922 1400,-922 1400,4 -4,4"/>
<!-- n0 -->
<g id="node1" class="node">
<title>n0</title>
<polygon fill="#ffffff" stroke="#000000" stroke-width="3" points="288,-918 0,-918 0,-846 288,-846 288,-918"/>
<text text-anchor="middle" x="144" y="-878.3" font-family="Helvetica,sans-Serif" font-size="14.00" fill="#000000">n0: Gandalf comes to the shire</text>
</g>
<!-- n1 -->
<g id="node2" class="node">
<title>n1</title>
<polygon fill="#ffffff" stroke="#000000" stroke-width="3" points="422,-777 134,-777 134,-705 422,-705 422,-777"/>
<text text-anchor="middle" x="278" y="-737.3" font-family="Helvetica,sans-Serif" font-size="14.00" fill="#000000">n1: Frodo departs with the ring</text>
</g>
<!-- n0&#45;&gt;n1 -->
<g id="edge1" class="edge">
<title>n0&#45;&gt;n1</title>
<path fill="none" stroke="#000000" stroke-width="3" d="M177.81,-845.92C195.83,-827.24 218.12,-804.11 237.1,-784.43"/>
<polygon fill="#000000" stroke="#000000" stroke-width="3" points="239.78,-786.69 244.2,-777.06 234.74,-781.83 239.78,-786.69"/>
<text text-anchor="middle" x="224" y="-807.8" font-family="Helvetica,sans-Serif" font-size="14.00">e0</text>
</g>
<!-- n9 -->
<g id="node10" class="node">
<title>n9</title>
<polygon fill="#ffffff" stroke="#000000" stroke-width="3" points="748,-72 460,-72 460,0 748,0 748,-72"/>
<text text-anchor="middle" x="604" y="-39.8" font-family="Helvetica,sans-Serif" font-size="14.00" fill="#000000">n9: the fellowship meets at Rivendell</text>
<text text-anchor="middle" x="604" y="-24.8" font-family="Helvetica,sans-Serif" font-size="14.00" fill="#000000">&quot;one does not simply walk into mordor&quot;</text>
</g>
<!-- n0&#45;&gt;n9 -->
<g id="edge11" class="edge">
<title>n0&#45;&gt;n9</title>
<path fill="none" stroke="#000000" stroke-width="3" d="M117.19,-845.93C99.28,-819 79,-780.1 79,-742 79,-742 79,-742 79,-176 79,-98.62 294.84,-63.32 449.74,-47.96"/>
<polygon fill="#000000" stroke="#000000" stroke-width="3" points="450.23,-51.42 459.85,-46.97 449.56,-44.46 450.23,-51.42"/>
<text text-anchor="middle" x="91" y="-455.3" font-family="Helvetica,sans-Serif" font-size="14.00">e10</text>
</g>
<!-- n2 -->
<g id="node3" class="node">
<title>n2</title>
<polygon fill="#ffffff" stroke="#000000" stroke-width="3" points="545,-636 257,-636 257,-564 545,-564 545,-636"/>
<text text-anchor="middle" x="401" y="-596.3" font-family="Helvetica,sans-Serif" font-size="14.00" fill="#000000">n2: the inn at Bree</text>
</g>
<!-- n1&#45;&gt;n2 -->
<g id="edge2" class="edge">
<title>n1&#45;&gt;n2</title>
<path fill="none" stroke="#000000" stroke-width="3" d="M309.04,-704.92C325.5,-686.32 345.85,-663.32 363.23,-643.69"/>
<polygon fill="#000000" stroke="#000000" stroke-width="3" points="365.97,-645.87 369.97,-636.06 360.72,-641.23 365.97,-645.87"/>
<text text-anchor="middle" x="352" y="-666.8" font-family="Helvetica,sans-Serif" font-size="14.00">e1</text>
</g>
<!-- n3 -->
<g id="node4" class="node">
<title>n3</title>
<polygon fill="#ffffff" stroke="#000000" stroke-width="3" points="751,-495 463,-495 463,-423 751,-423 751,-495"/>
<text text-anchor="middle" x="607" y="-455.3" font-family="Helvetica,sans-Serif" font-size="14.00" fill="#000000">n3: the hobbits escape with Aragorn</text>
</g>
<!-- n2&#45;&gt;n3 -->
<g id="edge3" class="edge">
<title>n2&#45;&gt;n3</title>
<path fill="none" stroke="#000000" stroke-width="3" d="M452.98,-563.92C481.4,-544.75 516.76,-520.89 546.43,-500.87"/>
<polygon fill="#000000" stroke="#000000" stroke-width="3" points="548.7,-503.56 555.03,-495.06 544.79,-497.76 548.7,-503.56"/>
<text text-anchor="middle" x="518" y="-525.8" font-family="Helvetica,sans-Serif" font-size="14.00">e2</text>
</g>
<!-- n6 -->
<g id="node7" class="node">
<title>n6</title>
<polygon fill="#ffffff" stroke="#000000" stroke-width="3" points="427,-495 139,-495 139,-423 427,-423 427,-495"/>
<text text-anchor="middle" x="283" y="-455.3" font-family="Helvetica,sans-Serif" font-size="14.00" fill="#000000">n6: the Nazghuls move to Weathertop</text>
</g>
<!-- n2&#45;&gt;n6 -->
<g id="edge6" class="edge">
<title>n2&#45;&gt;n6</title>
<path fill="none" stroke="#000000" stroke-width="3" d="M371.22,-563.92C355.5,-545.4 336.08,-522.52 319.46,-502.95"/>
<polygon fill="#000000" stroke="#000000" stroke-width="3" points="321.91,-500.42 312.77,-495.06 316.57,-504.95 321.91,-500.42"/>
<text text-anchor="middle" x="354" y="-525.8" font-family="Helvetica,sans-Serif" font-size="14.00">e5</text>
</g>
<!-- n4 -->
<g id="node5" class="node">
<title>n4</title>
<polygon fill="#ffffff" stroke="#000000" stroke-width="3" points="427,-354 139,-354 139,-282 427,-282 427,-354"/>
<text text-anchor="middle" x="283" y="-321.8" font-family="Helvetica,sans-Serif" font-size="14.00" fill="#000000">n4: nazghuls catch up at Weathertop;</text>
<text text-anchor="middle" x="283" y="-306.8" font-family="Helvetica,sans-Serif" font-size="14.00" fill="#000000">Frodo is injured</text>
</g>
<!-- n3&#45;&gt;n4 -->
<g id="edge4" class="edge">
<title>n3&#45;&gt;n4</title>
<path fill="none" stroke="#000000" stroke-width="3" d="M525.24,-422.92C479.19,-403.17 421.58,-378.45 374.09,-358.08"/>
<polygon fill="#000000" stroke="#000000" stroke-width="3" points="375.3,-354.79 364.73,-354.06 372.54,-361.22 375.3,-354.79"/>
<text text-anchor="middle" x="463" y="-384.8" font-family="Helvetica,sans-Serif" font-size="14.00">e3</text>
</g>
<!-- n8 -->
<g id="node9" class="node">
<title>n8</title>
<polygon fill="#ffffff" stroke="#000000" stroke-width="3" points="424,-213 136,-213 136,-141 424,-141 424,-213"/>
<text text-anchor="middle" x="280" y="-173.3" font-family="Helvetica,sans-Serif" font-size="14.00" fill="#000000">n8: flight to the ford</text>
</g>
<!-- n4&#45;&gt;n8 -->
<g id="edge9" class="edge">
<title>n4&#45;&gt;n8</title>
<path fill="none" stroke="#000000" stroke-width="3" d="M282.24,-281.92C281.86,-264.15 281.39,-242.35 280.98,-223.31"/>
<polygon fill="#000000" stroke="#000000" stroke-width="3" points="284.47,-222.99 280.76,-213.06 277.47,-223.14 284.47,-222.99"/>
<text text-anchor="middle" x="290" y="-243.8" font-family="Helvetica,sans-Serif" font-size="14.00">e8</text>
</g>
<!-- n5 -->
<g id="node6" class="node">
<title>n5</title>
<polygon fill="#ffffff" stroke="#000000" stroke-width="3" points="746,-777 458,-777 458,-705 746,-705 746,-777"/>
<text text-anchor="middle" x="602" y="-737.3" font-family="Helvetica,sans-Serif" font-size="14.00" fill="#000000">n5: Nazghuls move to Bree</text>
</g>
<!-- n5&#45;&gt;n2 -->
<g id="edge5" class="edge">
<title>n5&#45;&gt;n2</title>
<path fill="none" stroke="#000000" stroke-width="3" d="M551.28,-704.92C523.55,-685.75 489.05,-661.89 460.1,-641.87"/>
<polygon fill="#000000" stroke="#000000" stroke-width="3" points="461.92,-638.87 451.7,-636.06 457.94,-644.63 461.92,-638.87"/>
<text text-anchor="middle" x="515" y="-666.8" font-family="Helvetica,sans-Serif" font-size="14.00">e4</text>
</g>
<!-- n6&#45;&gt;n4 -->
<g id="edge7" class="edge">
<title>n6&#45;&gt;n4</title>
<path fill="none" stroke="#000000" stroke-width="3" d="M283,-422.92C283,-405.15 283,-383.35 283,-364.31"/>
<polygon fill="#000000" stroke="#000000" stroke-width="3" points="286.5,-364.06 283,-354.06 279.5,-364.06 286.5,-364.06"/>
<text text-anchor="middle" x="291" y="-384.8" font-family="Helvetica,sans-Serif" font-size="14.00">e6</text>
</g>
<!-- n7 -->
<g id="node8" class="node">
<title>n7</title>
<polygon fill="#ffffff" stroke="#000000" stroke-width="3" points="746,-918 458,-918 458,-846 746,-846 746,-918"/>
<text text-anchor="middle" x="602" y="-878.3" font-family="Helvetica,sans-Serif" font-size="14.00" fill="#000000">n7: Nazghuls dispatched from Mordor</text>
</g>
<!-- n7&#45;&gt;n5 -->
<g id="edge8" class="edge">
<title>n7&#45;&gt;n5</title>
<path fill="none" stroke="#000000" stroke-width="3" d="M602,-845.92C602,-828.15 602,-806.35 602,-787.31"/>
<polygon fill="#000000" stroke="#000000" stroke-width="3" points="605.5,-787.06 602,-777.06 598.5,-787.06 605.5,-787.06"/>
<text text-anchor="middle" x="610" y="-807.8" font-family="Helvetica,sans-Serif" font-size="14.00">e7</text>
</g>
<!-- n8&#45;&gt;n9 -->
<g id="edge10" class="edge">
<title>n8&#45;&gt;n9</title>
<path fill="none" stroke="#000000" stroke-width="3" d="M361.76,-140.92C407.81,-121.17 465.42,-96.45 512.91,-76.08"/>
<polygon fill="#000000" stroke="#000000" stroke-width="3" points="514.46,-79.22 522.27,-72.06 511.7,-72.79 514.46,-79.22"/>
<text text-anchor="middle" x="460" y="-102.8" font-family="Helvetica,sans-Serif" font-size="14.00">e9</text>
</g>
<!-- n10 -->
<g id="node11" class="node">
<title>n10</title>
<polygon fill="#ffffff" stroke="#000000" stroke-width="3" points="748,-213 460,-213 460,-141 748,-141 748,-213"/>
<text text-anchor="middle" x="604" y="-173.3" font-family="Helvetica,sans-Serif" font-size="14.00" fill="#000000">n10: Gimli leaves the mountains</text>
</g>
<!-- n10&#45;&gt;n9 -->
<g id="edge12" class="edge">
<title>n10&#45;&gt;n9</title>
<path fill="none" stroke="#000000" stroke-width="3" d="M604,-140.92C604,-123.15 604,-101.35 604,-82.31"/>
<polygon fill="#000000" stroke="#000000" stroke-width="3" points="607.5,-82.06 604,-72.06 600.5,-82.06 607.5,-82.06"/>
<text text-anchor="middle" x="615.5" y="-102.8" font-family="Helvetica,sans-Serif" font-size="14.00">e11</text>
</g>
<!-- n11 -->
<g id="node12" class="node">
<title>n11</title>
<polygon fill="#ffffff" stroke="#000000" stroke-width="3" points="1072,-213 784,-213 784,-141 1072,-141 1072,-213"/>
<text text-anchor="middle" x="928" y="-173.3" font-family="Helvetica,sans-Serif" font-size="14.00" fill="#000000">n11: Legolas travels from Mirkwood</text>
</g>
<!-- n11&#45;&gt;n9 -->
<g id="edge13" class="edge">
<title>n11&#45;&gt;n9</title>
<path fill="none" stroke="#000000" stroke-width="3" d="M846.24,-140.92C800.19,-121.17 742.58,-96.45 695.09,-76.08"/>
<polygon fill="#000000" stroke="#000000" stroke-width="3" points="696.3,-72.79 685.73,-72.06 693.54,-79.22 696.3,-72.79"/>
<text text-anchor="middle" x="787" y="-102.8" font-family="Helvetica,sans-Serif" font-size="14.00">e12</text>
</g>
<!-- n12 -->
<g id="node13" class="node">
<title>n12</title>
<polygon fill="#ffffff" stroke="#000000" stroke-width="3" points="1396,-213 1108,-213 1108,-141 1396,-141 1396,-213"/>
<text text-anchor="middle" x="1252" y="-180.8" font-family="Helvetica,sans-Serif" font-size="14.00" fill="#000000">n12: Boromir seeks the sword that is</text>
<text text-anchor="middle" x="1252" y="-165.8" font-family="Helvetica,sans-Serif" font-size="14.00" fill="#000000">broken</text>
</g>
<!-- n12&#45;&gt;n9 -->
<g id="edge14" class="edge">
<title>n12&#45;&gt;n9</title>
<path fill="none" stroke="#000000" stroke-width="3" d="M1107.59,-144.79C1101.65,-143.51 1095.77,-142.24 1090,-141 978.99,-117.13 853.69,-90.32 758.12,-69.9"/>
<polygon fill="#000000" stroke="#000000" stroke-width="3" points="758.6,-66.42 748.09,-67.76 757.14,-73.27 758.6,-66.42"/>
<text text-anchor="middle" x="968" y="-102.8" font-family="Helvetica,sans-Serif" font-size="14.00">e13</text>
</g>
<!-- n13 -->
<g id="node14" class="node">
<title>n13</title>
<polygon fill="#ffffff" stroke="#000000" stroke-width="3" points="1396,-354 1108,-354 1108,-282 1396,-282 1396,-354"/>
<text text-anchor="middle" x="1252" y="-321.8" font-family="Helvetica,sans-Serif" font-size="14.00" fill="#000000">n13: Boromir fights in the battle for</text>
<text text-anchor="middle" x="1252" y="-306.8" font-family="Helvetica,sans-Serif" font-size="14.00" fill="#000000">Osgiliath</text>
</g>
<!-- n13&#45;&gt;n12 -->
<g id="edge15" class="edge">
<title>n13&#45;&gt;n12</title>
<path fill="none" stroke="#000000" stroke-width="3" d="M1252,-281.92C1252,-264.15 1252,-242.35 1252,-223.31"/>
<polygon fill="#000000" stroke="#000000" stroke-width="3" points="1255.5,-223.06 1252,-213.06 1248.5,-223.06 1255.5,-223.06"/>
<text text-anchor="middle" x="1264" y="-243.8" font-family="Helvetica,sans-Serif" font-size="14.00">e14</text>
</g>
</g>
</svg>
