<?xml version="1.0" encoding="UTF-8" standalone="no"?>
<!DOCTYPE svg PUBLIC "-//W3C//DTD SVG 1.1//EN"
 "http://www.w3.org/Graphics/SVG/1.1/DTD/svg11.dtd">
<!-- Generated by graphviz version 2.49.0 (20210828.1703)
 -->
<!-- Pages: 1 -->
<svg width="1246pt" height="926pt"
 viewBox="0.00 0.00 1246.00 926.00" xmlns="http://www.w3.org/2000/svg" xmlns:xlink="http://www.w3.org/1999/xlink">
<g id="graph0" class="graph" transform="scale(1 1) rotate(0) translate(4 922)">
<polygon fill="white" stroke="transparent" points="-4,4 -4,-922 1242,-922 1242,4 -4,4"/>
<!-- n0 -->
<g id="node1" class="node">
<title>n0</title>
<polygon fill="#fcf9fa" stroke="#000000" stroke-width="3" points="252,-918 0,-918 0,-846 252,-846 252,-918"/>
<text text-anchor="middle" x="126" y="-878.3" font-family="Helvetica,sans-Serif" font-size="14.00" fill="#000000">n0: Gandalf comes to the shire</text>
</g>
<!-- n1 -->
<g id="node2" class="node">
<title>n1</title>
<polygon fill="#fcf9fa" stroke="#000000" stroke-width="3" points="372,-777 120,-777 120,-705 372,-705 372,-777"/>
<text text-anchor="middle" x="246" y="-737.3" font-family="Helvetica,sans-Serif" font-size="14.00" fill="#000000">n1: Frodo departs with the ring</text>
</g>
<!-- n0&#45;&gt;n1 -->
<g id="edge1" class="edge">
<title>n0&#45;&gt;n1</title>
<path fill="none" stroke="#000000" stroke-width="3" d="M156.28,-845.92C172.34,-827.32 192.2,-804.32 209.15,-784.69"/>
<polygon fill="#000000" stroke="#000000" stroke-width="3" points="211.84,-786.92 215.73,-777.06 206.54,-782.35 211.84,-786.92"/>
<text text-anchor="middle" x="198" y="-807.8" font-family="Helvetica,sans-Serif" font-size="14.00">e0</text>
</g>
<!-- n9 -->
<g id="node10" class="node">
<title>n9</title>
<polygon fill="#fcf9fa" stroke="#000000" stroke-width="3" points="665,-72 407,-72 407,0 665,0 665,-72"/>
<text text-anchor="middle" x="536" y="-39.8" font-family="Helvetica,sans-Serif" font-size="14.00" fill="#000000">n9: the fellowship meets at Rivendell</text>
<text text-anchor="middle" x="536" y="-24.8" font-family="Helvetica,sans-Serif" font-size="14.00" fill="#000000">&quot;one does not simply walk into mordor&quot;</text>
</g>
<!-- n0&#45;&gt;n9 -->
<g id="edge11" class="edge">
<title>n0&#45;&gt;n9</title>
<path fill="none" stroke="#000000" stroke-width="3" d="M101.01,-845.97C84.17,-818.91 65,-779.82 65,-742 65,-742 65,-742 65,-176 65,-106.18 257.77,-68.81 396.66,-50.94"/>
<polygon fill="#000000" stroke="#000000" stroke-width="3" points="397.5,-54.36 406.99,-49.63 396.63,-47.42 397.5,-54.36"/>
<text text-anchor="middle" x="77" y="-455.3" font-family="Helvetica,sans-Serif" font-size="14.00">e10</text>
</g>
<!-- n2 -->
<g id="node3" class="node">
<title>n2</title>
<polygon fill="#fcf9fa" stroke="#000000" stroke-width="3" points="483,-636 231,-636 231,-564 483,-564 483,-636"/>
<text text-anchor="middle" x="357" y="-596.3" font-family="Helvetica,sans-Serif" font-size="14.00" fill="#000000">n2: the inn at Bree</text>
</g>
<!-- n1&#45;&gt;n2 -->
<g id="edge2" class="edge">
<title>n1&#45;&gt;n2</title>
<path fill="none" stroke="#000000" stroke-width="3" d="M274.01,-704.92C288.8,-686.4 307.07,-663.52 322.7,-643.95"/>
<polygon fill="#000000" stroke="#000000" stroke-width="3" points="325.49,-646.06 329,-636.06 320.02,-641.69 325.49,-646.06"/>
<text text-anchor="middle" x="313" y="-666.8" font-family="Helvetica,sans-Serif" font-size="14.00">e1</text>
</g>
<!-- n3 -->
<g id="node4" class="node">
<title>n3</title>
<polygon fill="#fcf9fa" stroke="#000000" stroke-width="3" points="665,-495 413,-495 413,-423 665,-423 665,-495"/>
<text text-anchor="middle" x="539" y="-455.3" font-family="Helvetica,sans-Serif" font-size="14.00" fill="#000000">n3: the hobbits escape with Aragorn</text>
</g>
<!-- n2&#45;&gt;n3 -->
<g id="edge3" class="edge">
<title>n2&#45;&gt;n3</title>
<path fill="none" stroke="#000000" stroke-width="3" d="M402.93,-563.92C427.82,-544.91 458.74,-521.3 484.81,-501.39"/>
<polygon fill="#000000" stroke="#000000" stroke-width="3" points="487.27,-503.92 493.09,-495.06 483.02,-498.35 487.27,-503.92"/>
<text text-anchor="middle" x="461" y="-525.8" font-family="Helvetica,sans-Serif" font-size="14.00">e2</text>
</g>
<!-- n6 -->
<g id="node7" class="node">
<title>n6</title>
<polygon fill="#fcf9fa" stroke="#000000" stroke-width="3" points="377,-495 125,-495 125,-423 377,-423 377,-495"/>
<text text-anchor="middle" x="251" y="-455.3" font-family="Helvetica,sans-Serif" font-size="14.00" fill="#000000">n6: the Nazghuls move to Weathertop</text>
</g>
<!-- n2&#45;&gt;n6 -->
<g id="edge6" class="edge">
<title>n2&#45;&gt;n6</title>
<path fill="none" stroke="#000000" stroke-width="3" d="M330.25,-563.92C316.19,-545.49 298.83,-522.73 283.95,-503.21"/>
<polygon fill="#000000" stroke="#000000" stroke-width="3" points="286.59,-500.89 277.74,-495.06 281.02,-505.14 286.59,-500.89"/>
<text text-anchor="middle" x="316" y="-525.8" font-family="Helvetica,sans-Serif" font-size="14.00">e5</text>
</g>
<!-- n4 -->
<g id="node5" class="node">
<title>n4</title>
<polygon fill="#fcf9fa" stroke="#000000" stroke-width="3" points="377,-354 125,-354 125,-282 377,-282 377,-354"/>
<text text-anchor="middle" x="251" y="-321.8" font-family="Helvetica,sans-Serif" font-size="14.00" fill="#000000">n4: nazghuls catch up at Weathertop;</text>
<text text-anchor="middle" x="251" y="-306.8" font-family="Helvetica,sans-Serif" font-size="14.00" fill="#000000">Frodo is injured</text>
</g>
<!-- n3&#45;&gt;n4 -->
<g id="edge4" class="edge">
<title>n3&#45;&gt;n4</title>
<path fill="none" stroke="#000000" stroke-width="3" d="M466.33,-422.92C425.65,-403.29 374.82,-378.76 332.76,-358.46"/>
<polygon fill="#000000" stroke="#000000" stroke-width="3" points="334.18,-355.26 323.65,-354.06 331.14,-361.56 334.18,-355.26"/>
<text text-anchor="middle" x="412" y="-384.8" font-family="Helvetica,sans-Serif" font-size="14.00">e3</text>
</g>
<!-- n8 -->
<g id="node9" class="node">
<title>n8</title>
<polygon fill="#fcf9fa" stroke="#000000" stroke-width="3" points="374,-213 122,-213 122,-141 374,-141 374,-213"/>
<text text-anchor="middle" x="248" y="-173.3" font-family="Helvetica,sans-Serif" font-size="14.00" fill="#000000">n8: flight to the ford</text>
</g>
<!-- n4&#45;&gt;n8 -->
<g id="edge9" class="edge">
<title>n4&#45;&gt;n8</title>
<path fill="none" stroke="#000000" stroke-width="3" d="M250.24,-281.92C249.86,-264.15 249.39,-242.35 248.98,-223.31"/>
<polygon fill="#000000" stroke="#000000" stroke-width="3" points="252.47,-222.99 248.76,-213.06 245.47,-223.14 252.47,-222.99"/>
<text text-anchor="middle" x="258" y="-243.8" font-family="Helvetica,sans-Serif" font-size="14.00">e8</text>
</g>
<!-- n5 -->
<g id="node6" class="node">
<title>n5</title>
<polygon fill="#fcf9fa" stroke="#000000" stroke-width="3" points="660,-777 408,-777 408,-705 660,-705 660,-777"/>
<text text-anchor="middle" x="534" y="-737.3" font-family="Helvetica,sans-Serif" font-size="14.00" fill="#000000">n5: Nazghuls move to Bree</text>
</g>
<!-- n5&#45;&gt;n2 -->
<g id="edge5" class="edge">
<title>n5&#45;&gt;n2</title>
<path fill="none" stroke="#000000" stroke-width="3" d="M489.34,-704.92C465.12,-685.91 435.06,-662.3 409.7,-642.39"/>
<polygon fill="#000000" stroke="#000000" stroke-width="3" points="411.68,-639.49 401.65,-636.06 407.35,-644.99 411.68,-639.49"/>
<text text-anchor="middle" x="458" y="-666.8" font-family="Helvetica,sans-Serif" font-size="14.00">e4</text>
</g>
<!-- n6&#45;&gt;n4 -->
<g id="edge7" class="edge">
<title>n6&#45;&gt;n4</title>
<path fill="none" stroke="#000000" stroke-width="3" d="M251,-422.92C251,-405.15 251,-383.35 251,-364.31"/>
<polygon fill="#000000" stroke="#000000" stroke-width="3" points="254.5,-364.06 251,-354.06 247.5,-364.06 254.5,-364.06"/>
<text text-anchor="middle" x="259" y="-384.8" font-family="Helvetica,sans-Serif" font-size="14.00">e6</text>
</g>
<!-- n7 -->
<g id="node8" class="node">
<title>n7</title>
<polygon fill="#fcf9fa" stroke="#000000" stroke-width="3" points="660,-918 408,-918 408,-846 660,-846 660,-918"/>
<text text-anchor="middle" x="534" y="-878.3" font-family="Helvetica,sans-Serif" font-size="14.00" fill="#000000">n7: Nazghuls dispatched from Mordor</text>
</g>
<!-- n7&#45;&gt;n5 -->
<g id="edge8" class="edge">
<title>n7&#45;&gt;n5</title>
<path fill="none" stroke="#000000" stroke-width="3" d="M534,-845.92C534,-828.15 534,-806.35 534,-787.31"/>
<polygon fill="#000000" stroke="#000000" stroke-width="3" points="537.5,-787.06 534,-777.06 530.5,-787.06 537.5,-787.06"/>
<text text-anchor="middle" x="542" y="-807.8" font-family="Helvetica,sans-Serif" font-size="14.00">e7</text>
</g>
<!-- n8&#45;&gt;n9 -->
<g id="edge10" class="edge">
<title>n8&#45;&gt;n9</title>
<path fill="none" stroke="#000000" stroke-width="3" d="M320.67,-140.92C361.35,-121.29 412.18,-96.76 454.24,-76.46"/>
<polygon fill="#000000" stroke="#000000" stroke-width="3" points="455.86,-79.56 463.35,-72.06 452.82,-73.26 455.86,-79.56"/>
<text text-anchor="middle" x="409" y="-102.8" font-family="Helvetica,sans-Serif" font-size="14.00">e9</text>
</g>
<!-- n10 -->
<g id="node11" class="node">
<title>n10</title>
<polygon fill="#fcf9fa" stroke="#000000" stroke-width="3" points="662,-213 410,-213 410,-141 662,-141 662,-213"/>
<text text-anchor="middle" x="536" y="-173.3" font-family="Helvetica,sans-Serif" font-size="14.00" fill="#000000">n10: Gimli leaves the mountains</text>
</g>
<!-- n10&#45;&gt;n9 -->
<g id="edge12" class="edge">
<title>n10&#45;&gt;n9</title>
<path fill="none" stroke="#000000" stroke-width="3" d="M536,-140.92C536,-123.15 536,-101.35 536,-82.31"/>
<polygon fill="#000000" stroke="#000000" stroke-width="3" points="539.5,-82.06 536,-72.06 532.5,-82.06 539.5,-82.06"/>
<text text-anchor="middle" x="547.5" y="-102.8" font-family="Helvetica,sans-Serif" font-size="14.00">e11</text>
</g>
<!-- n11 -->
<g id="node12" class="node">
<title>n11</title>
<polygon fill="#fcf9fa" stroke="#000000" stroke-width="3" points="950,-213 698,-213 698,-141 950,-141 950,-213"/>
<text text-anchor="middle" x="824" y="-173.3" font-family="Helvetica,sans-Serif" font-size="14.00" fill="#000000">n11: Legolas travels from Mirkwood</text>
</g>
<!-- n11&#45;&gt;n9 -->
<g id="edge13" class="edge">
<title>n11&#45;&gt;n9</title>
<path fill="none" stroke="#000000" stroke-width="3" d="M751.33,-140.92C710.65,-121.29 659.82,-96.76 617.76,-76.46"/>
<polygon fill="#000000" stroke="#000000" stroke-width="3" points="619.18,-73.26 608.65,-72.06 616.14,-79.56 619.18,-73.26"/>
<text text-anchor="middle" x="700" y="-102.8" font-family="Helvetica,sans-Serif" font-size="14.00">e12</text>
</g>
<!-- n12 -->
<g id="node13" class="node">
<title>n12</title>
<polygon fill="#fcf9fa" stroke="#000000" stroke-width="3" points="1238,-213 986,-213 986,-141 1238,-141 1238,-213"/>
<text text-anchor="middle" x="1112" y="-180.8" font-family="Helvetica,sans-Serif" font-size="14.00" fill="#000000">n12: Boromir seeks the sword that is</text>
<text text-anchor="middle" x="1112" y="-165.8" font-family="Helvetica,sans-Serif" font-size="14.00" fill="#000000">broken</text>
</g>
<!-- n12&#45;&gt;n9 -->
<g id="edge14" class="edge">
<title>n12&#45;&gt;n9</title>
<path fill="none" stroke="#000000" stroke-width="3" d="M985.96,-145.35C979.89,-143.88 973.88,-142.42 968,-141 870.09,-117.32 759.67,-90.73 674.97,-70.37"/>
<polygon fill="#000000" stroke="#000000" stroke-width="3" points="675.57,-66.92 665.03,-67.99 673.94,-73.73 675.57,-66.92"/>
<text text-anchor="middle" x="861" y="-102.8" font-family="Helvetica,sans-Serif" font-size="14.00">e13</text>
</g>
<!-- n13 -->
<g id="node14" class="node">
<title>n13</title>
<polygon fill="#fcf9fa" stroke="#000000" stroke-width="3" points="1238,-354 986,-354 986,-282 1238,-282 1238,-354"/>
<text text-anchor="middle" x="1112" y="-321.8" font-family="Helvetica,sans-Serif" font-size="14.00" fill="#000000">n13: Boromir fights in the battle for</text>
<text text-anchor="middle" x="1112" y="-306.8" font-family="Helvetica,sans-Serif" font-size="14.00" fill="#000000">Osgiliath</text>
</g>
<!-- n13&#45;&gt;n12 -->
<g id="edge15" class="edge">
<title>n13&#45;&gt;n12</title>
<path fill="none" stroke="#000000" stroke-width="3" d="M1112,-281.92C1112,-264.15 1112,-242.35 1112,-223.31"/>
<polygon fill="#000000" stroke="#000000" stroke-width="3" points="1115.5,-223.06 1112,-213.06 1108.5,-223.06 1115.5,-223.06"/>
<text text-anchor="middle" x="1124" y="-243.8" font-family="Helvetica,sans-Serif" font-size="14.00">e14</text>
</g>
</g>
</svg>
