<?xml version="1.0" encoding="UTF-8" standalone="no"?>
<!DOCTYPE svg PUBLIC "-//W3C//DTD SVG 1.1//EN"
 "http://www.w3.org/Graphics/SVG/1.1/DTD/svg11.dtd">
<!-- Generated by graphviz version 3.0.0 (20220226.1711)
 -->
<!-- Pages: 1 -->
<svg width="984pt" height="572pt"
 viewBox="0.00 0.00 984.00 572.00" xmlns="http://www.w3.org/2000/svg" xmlns:xlink="http://www.w3.org/1999/xlink">
<g id="graph0" class="graph" transform="scale(1 1) rotate(0) translate(4 568)">
<polygon fill="white" stroke="transparent" points="-4,4 -4,-568 980,-568 980,4 -4,4"/>
<!-- n0 -->
<g id="node1" class="node">
<title>n0</title>
<text text-anchor="middle" x="93" y="-552.8" font-family="Helvetica,sans-Serif" font-size="14.00">n0: Gandalf comes to the shire</text>
</g>
<!-- n1 -->
<g id="node2" class="node">
<title>n1</title>
<text text-anchor="middle" x="183" y="-468.8" font-family="Helvetica,sans-Serif" font-size="14.00">n1: Frodo departs with the ring</text>
</g>
<!-- n0&#45;&gt;n1 -->
<g id="edge1" class="edge">
<title>n0&#45;&gt;n1</title>
<path fill="none" stroke="#000000" stroke-width="3" d="M100.37,-548.79C115.14,-535.33 148.64,-504.8 168.15,-487.03"/>
<polygon fill="#000000" stroke="#000000" stroke-width="3" points="170.75,-489.4 175.78,-480.07 166.04,-484.22 170.75,-489.4"/>
<text text-anchor="middle" x="155" y="-510.8" font-family="Helvetica,sans-Serif" font-size="14.00">e0</text>
</g>
<!-- n9 -->
<g id="node10" class="node">
<title>n9</title>
<text text-anchor="middle" x="371" y="-18.8" font-family="Helvetica,sans-Serif" font-size="14.00">n9: the fellowship meets at Rivendell</text>
<text text-anchor="middle" x="371" y="-3.8" font-family="Helvetica,sans-Serif" font-size="14.00">&quot;one does not simply walk into mordor&quot;</text>
</g>
<!-- n0&#45;&gt;n9 -->
<g id="edge11" class="edge">
<title>n0&#45;&gt;n9</title>
<path fill="none" stroke="#000000" stroke-width="3" d="M84.09,-548.93C68.06,-536.27 36,-506.79 36,-473.5 36,-473.5 36,-473.5 36,-113 36,-68.04 148.72,-42.6 243.39,-29.17"/>
<polygon fill="#000000" stroke="#000000" stroke-width="3" points="243.94,-32.62 253.36,-27.79 242.98,-25.69 243.94,-32.62"/>
<text text-anchor="middle" x="47.5" y="-300.8" font-family="Helvetica,sans-Serif" font-size="14.00">e10</text>
</g>
<!-- n2 -->
<g id="node3" class="node">
<title>n2</title>
<text text-anchor="middle" x="307" y="-384.8" font-family="Helvetica,sans-Serif" font-size="14.00">n2: the inn at Bree</text>
</g>
<!-- n1&#45;&gt;n2 -->
<g id="edge2" class="edge">
<title>n1&#45;&gt;n2</title>
<path fill="none" stroke="#000000" stroke-width="3" d="M193.15,-464.79C214.05,-450.97 262.17,-419.15 288.67,-401.62"/>
<polygon fill="#000000" stroke="#000000" stroke-width="3" points="290.65,-404.51 297.06,-396.07 286.79,-398.67 290.65,-404.51"/>
<text text-anchor="middle" x="265" y="-426.8" font-family="Helvetica,sans-Serif" font-size="14.00">e1</text>
</g>
<!-- n3 -->
<g id="node4" class="node">
<title>n3</title>
<text text-anchor="middle" x="467" y="-300.8" font-family="Helvetica,sans-Serif" font-size="14.00">n3: the hobbits escape with Aragorn</text>
</g>
<!-- n2&#45;&gt;n3 -->
<g id="edge3" class="edge">
<title>n2&#45;&gt;n3</title>
<path fill="none" stroke="#000000" stroke-width="3" d="M319.82,-380.93C347.09,-366.95 411.1,-334.15 445.02,-316.77"/>
<polygon fill="#000000" stroke="#000000" stroke-width="3" points="446.81,-319.78 454.12,-312.1 443.62,-313.55 446.81,-319.78"/>
<text text-anchor="middle" x="409" y="-342.8" font-family="Helvetica,sans-Serif" font-size="14.00">e2</text>
</g>
<!-- n6 -->
<g id="node7" class="node">
<title>n6</title>
<text text-anchor="middle" x="209" y="-300.8" font-family="Helvetica,sans-Serif" font-size="14.00">n6: the Nazghuls move to Weathertop</text>
</g>
<!-- n2&#45;&gt;n6 -->
<g id="edge6" class="edge">
<title>n2&#45;&gt;n6</title>
<path fill="none" stroke="#000000" stroke-width="3" d="M298.98,-380.79C282.75,-367.21 245.75,-336.25 224.6,-318.55"/>
<polygon fill="#000000" stroke="#000000" stroke-width="3" points="226.77,-315.81 216.86,-312.07 222.28,-321.18 226.77,-315.81"/>
<text text-anchor="middle" x="275" y="-342.8" font-family="Helvetica,sans-Serif" font-size="14.00">e5</text>
</g>
<!-- n4 -->
<g id="node5" class="node">
<title>n4</title>
<text text-anchor="middle" x="209" y="-216.8" font-family="Helvetica,sans-Serif" font-size="14.00">n4: nazghuls catch up at Weathertop;</text>
<text text-anchor="middle" x="209" y="-201.8" font-family="Helvetica,sans-Serif" font-size="14.00">Frodo is injured</text>
</g>
<!-- n3&#45;&gt;n4 -->
<g id="edge4" class="edge">
<title>n3&#45;&gt;n4</title>
<path fill="none" stroke="#000000" stroke-width="3" d="M448.03,-296.92C408.65,-283.26 316.9,-251.43 259.21,-231.42"/>
<polygon fill="#000000" stroke="#000000" stroke-width="3" points="260.15,-228.04 249.56,-228.07 257.86,-234.65 260.15,-228.04"/>
<text text-anchor="middle" x="377" y="-258.8" font-family="Helvetica,sans-Serif" font-size="14.00">e3</text>
</g>
<!-- n8 -->
<g id="node9" class="node">
<title>n8</title>
<text text-anchor="middle" x="179" y="-110.3" font-family="Helvetica,sans-Serif" font-size="14.00">n8: flight to the ford</text>
</g>
<!-- n4&#45;&gt;n8 -->
<g id="edge9" class="edge">
<title>n4&#45;&gt;n8</title>
<path fill="none" stroke="#000000" stroke-width="3" d="M204.57,-197.69C199.09,-179.97 189.79,-149.88 184.04,-131.29"/>
<polygon fill="#000000" stroke="#000000" stroke-width="3" points="187.35,-130.16 181.05,-121.64 180.67,-132.23 187.35,-130.16"/>
<text text-anchor="middle" x="204" y="-159.8" font-family="Helvetica,sans-Serif" font-size="14.00">e8</text>
</g>
<!-- n5 -->
<g id="node6" class="node">
<title>n5</title>
<text text-anchor="middle" x="393" y="-468.8" font-family="Helvetica,sans-Serif" font-size="14.00">n5: Nazghuls move to Bree</text>
</g>
<!-- n5&#45;&gt;n2 -->
<g id="edge5" class="edge">
<title>n5&#45;&gt;n2</title>
<path fill="none" stroke="#000000" stroke-width="3" d="M385.96,-464.79C371.84,-451.33 339.83,-420.8 321.19,-403.03"/>
<polygon fill="#000000" stroke="#000000" stroke-width="3" points="323.55,-400.44 313.89,-396.07 318.72,-405.51 323.55,-400.44"/>
<text text-anchor="middle" x="366" y="-426.8" font-family="Helvetica,sans-Serif" font-size="14.00">e4</text>
</g>
<!-- n6&#45;&gt;n4 -->
<g id="edge7" class="edge">
<title>n6&#45;&gt;n4</title>
<path fill="none" stroke="#000000" stroke-width="3" d="M209,-296.77C209,-284.49 209,-257.89 209,-238.14"/>
<polygon fill="#000000" stroke="#000000" stroke-width="3" points="212.5,-238.01 209,-228.01 205.5,-238.01 212.5,-238.01"/>
<text text-anchor="middle" x="217" y="-258.8" font-family="Helvetica,sans-Serif" font-size="14.00">e6</text>
</g>
<!-- n7 -->
<g id="node8" class="node">
<title>n7</title>
<text text-anchor="middle" x="393" y="-552.8" font-family="Helvetica,sans-Serif" font-size="14.00">n7: Nazghuls dispatched from Mordor</text>
</g>
<!-- n7&#45;&gt;n5 -->
<g id="edge8" class="edge">
<title>n7&#45;&gt;n5</title>
<path fill="none" stroke="#000000" stroke-width="3" d="M393,-548.79C393,-536.11 393,-508.3 393,-490.26"/>
<polygon fill="#000000" stroke="#000000" stroke-width="3" points="396.5,-490.07 393,-480.07 389.5,-490.07 396.5,-490.07"/>
<text text-anchor="middle" x="401" y="-510.8" font-family="Helvetica,sans-Serif" font-size="14.00">e7</text>
</g>
<!-- n8&#45;&gt;n9 -->
<g id="edge10" class="edge">
<title>n8&#45;&gt;n9</title>
<path fill="none" stroke="#000000" stroke-width="3" d="M191.9,-106.48C220.57,-92 290.49,-56.68 334,-34.69"/>
<polygon fill="#000000" stroke="#000000" stroke-width="3" points="335.77,-37.72 343.12,-30.08 332.62,-31.47 335.77,-37.72"/>
<text text-anchor="middle" x="295" y="-60.8" font-family="Helvetica,sans-Serif" font-size="14.00">e9</text>
</g>
<!-- n10 -->
<g id="node11" class="node">
<title>n10</title>
<text text-anchor="middle" x="371" y="-110.3" font-family="Helvetica,sans-Serif" font-size="14.00">n10: Gimli leaves the mountains</text>
</g>
<!-- n10&#45;&gt;n9 -->
<g id="edge12" class="edge">
<title>n10&#45;&gt;n9</title>
<path fill="none" stroke="#000000" stroke-width="3" d="M371,-106.33C371,-92.93 371,-62.14 371,-40.24"/>
<polygon fill="#000000" stroke="#000000" stroke-width="3" points="374.5,-40.03 371,-30.03 367.5,-40.03 374.5,-40.03"/>
<text text-anchor="middle" x="382.5" y="-60.8" font-family="Helvetica,sans-Serif" font-size="14.00">e11</text>
</g>
<!-- n11 -->
<g id="node12" class="node">
<title>n11</title>
<text text-anchor="middle" x="612" y="-110.3" font-family="Helvetica,sans-Serif" font-size="14.00">n11: Legolas travels from Mirkwood</text>
</g>
<!-- n11&#45;&gt;n9 -->
<g id="edge13" class="edge">
<title>n11&#45;&gt;n9</title>
<path fill="none" stroke="#000000" stroke-width="3" d="M595.81,-106.48C559.37,-91.82 469.85,-55.78 415.4,-33.87"/>
<polygon fill="#000000" stroke="#000000" stroke-width="3" points="416.58,-30.57 405.99,-30.08 413.96,-37.07 416.58,-30.57"/>
<text text-anchor="middle" x="516.5" y="-60.8" font-family="Helvetica,sans-Serif" font-size="14.00">e12</text>
</g>
<!-- n12 -->
<g id="node13" class="node">
<title>n12</title>
<text text-anchor="middle" x="866" y="-117.8" font-family="Helvetica,sans-Serif" font-size="14.00">n12: Boromir seeks the sword that is</text>
<text text-anchor="middle" x="866" y="-102.8" font-family="Helvetica,sans-Serif" font-size="14.00">broken</text>
</g>
<!-- n12&#45;&gt;n9 -->
<g id="edge14" class="edge">
<title>n12&#45;&gt;n9</title>
<path fill="none" stroke="#000000" stroke-width="3" d="M794.55,-99C703.92,-81.24 547.98,-50.68 452.71,-32.01"/>
<polygon fill="#000000" stroke="#000000" stroke-width="3" points="453.32,-28.56 442.83,-30.08 451.97,-35.43 453.32,-28.56"/>
<text text-anchor="middle" x="659.5" y="-60.8" font-family="Helvetica,sans-Serif" font-size="14.00">e13</text>
</g>
<!-- n13 -->
<g id="node14" class="node">
<title>n13</title>
<text text-anchor="middle" x="866" y="-216.8" font-family="Helvetica,sans-Serif" font-size="14.00">n13: Boromir fights in the battle for</text>
<text text-anchor="middle" x="866" y="-201.8" font-family="Helvetica,sans-Serif" font-size="14.00">Osgiliath</text>
</g>
<!-- n13&#45;&gt;n12 -->
<g id="edge15" class="edge">
<title>n13&#45;&gt;n12</title>
<path fill="none" stroke="#000000" stroke-width="3" d="M866,-197.69C866,-182.34 866,-157.7 866,-139.31"/>
<polygon fill="#000000" stroke="#000000" stroke-width="3" points="869.5,-139.06 866,-129.06 862.5,-139.06 869.5,-139.06"/>
<text text-anchor="middle" x="877.5" y="-159.8" font-family="Helvetica,sans-Serif" font-size="14.00">e14</text>
</g>
</g>
</svg>
