<?xml version="1.0" encoding="UTF-8" standalone="no"?>
<!DOCTYPE svg PUBLIC "-//W3C//DTD SVG 1.1//EN"
 "http://www.w3.org/Graphics/SVG/1.1/DTD/svg11.dtd">
<!-- Generated by graphviz version 2.49.0 (20210828.1703)
 -->
<!-- Pages: 1 -->
<svg width="548pt" height="785pt"
 viewBox="0.00 0.00 548.00 785.00" xmlns="http://www.w3.org/2000/svg" xmlns:xlink="http://www.w3.org/1999/xlink">
<g id="graph0" class="graph" transform="scale(1 1) rotate(0) translate(4 781)">
<polygon fill="white" stroke="transparent" points="-4,4 -4,-781 544,-781 544,4 -4,4"/>
<!-- n0 -->
<g id="node1" class="node">
<title>n0</title>
<path fill="#f8f8fa" stroke="#485478" stroke-width="3" d="M240,-777C240,-777 12,-777 12,-777 6,-777 0,-771 0,-765 0,-765 0,-717 0,-717 0,-711 6,-705 12,-705 12,-705 240,-705 240,-705 246,-705 252,-711 252,-717 252,-717 252,-765 252,-765 252,-771 246,-777 240,-777"/>
<text text-anchor="middle" x="126" y="-737.3" font-family="Helvetica,sans-Serif" font-size="14.00" fill="#242d48">n0: Gandalf comes to the shire</text>
</g>
<!-- n1 -->
<g id="node2" class="node">
<title>n1</title>
<path fill="#f8f8fa" stroke="#485478" stroke-width="3" d="M240,-636C240,-636 12,-636 12,-636 6,-636 0,-630 0,-624 0,-624 0,-576 0,-576 0,-570 6,-564 12,-564 12,-564 240,-564 240,-564 246,-564 252,-570 252,-576 252,-576 252,-624 252,-624 252,-630 246,-636 240,-636"/>
<text text-anchor="middle" x="126" y="-596.3" font-family="Helvetica,sans-Serif" font-size="14.00" fill="#242d48">n1: Frodo departs with the ring</text>
</g>
<!-- n0&#45;&gt;n1 -->
<g id="edge1" class="edge">
<title>n0&#45;&gt;n1</title>
<path fill="none" stroke="#485478" stroke-width="3" d="M126,-704.92C126,-687.15 126,-665.35 126,-646.31"/>
<polygon fill="#485478" stroke="#485478" stroke-width="3" points="129.5,-646.06 126,-636.06 122.5,-646.06 129.5,-646.06"/>
<text text-anchor="middle" x="134" y="-666.8" font-family="Helvetica,sans-Serif" font-size="14.00">e0</text>
</g>
<!-- n2 -->
<g id="node3" class="node">
<title>n2</title>
<path fill="#f8f8fa" stroke="#485478" stroke-width="3" d="M383,-495C383,-495 155,-495 155,-495 149,-495 143,-489 143,-483 143,-483 143,-435 143,-435 143,-429 149,-423 155,-423 155,-423 383,-423 383,-423 389,-423 395,-429 395,-435 395,-435 395,-483 395,-483 395,-489 389,-495 383,-495"/>
<text text-anchor="middle" x="269" y="-455.3" font-family="Helvetica,sans-Serif" font-size="14.00" fill="#242d48">n2: the inn at Bree</text>
</g>
<!-- n1&#45;&gt;n2 -->
<g id="edge2" class="edge">
<title>n1&#45;&gt;n2</title>
<path fill="none" stroke="#485478" stroke-width="3" d="M162.08,-563.92C181.39,-545.16 205.31,-521.91 225.62,-502.17"/>
<polygon fill="#485478" stroke="#485478" stroke-width="3" points="228.2,-504.54 232.93,-495.06 223.32,-499.52 228.2,-504.54"/>
<text text-anchor="middle" x="210" y="-525.8" font-family="Helvetica,sans-Serif" font-size="14.00">e1</text>
</g>
<!-- n3 -->
<g id="node4" class="node">
<title>n3</title>
<path fill="#f8f8fa" stroke="#485478" stroke-width="3" d="M240,-354C240,-354 12,-354 12,-354 6,-354 0,-348 0,-342 0,-342 0,-294 0,-294 0,-288 6,-282 12,-282 12,-282 240,-282 240,-282 246,-282 252,-288 252,-294 252,-294 252,-342 252,-342 252,-348 246,-354 240,-354"/>
<text text-anchor="middle" x="126" y="-314.3" font-family="Helvetica,sans-Serif" font-size="14.00" fill="#242d48">n3: the hobbits escape with Aragorn</text>
</g>
<!-- n2&#45;&gt;n3 -->
<g id="edge3" class="edge">
<title>n2&#45;&gt;n3</title>
<path fill="none" stroke="#485478" stroke-width="3" d="M232.92,-422.92C213.61,-404.16 189.69,-380.91 169.38,-361.17"/>
<polygon fill="#485478" stroke="#485478" stroke-width="3" points="171.68,-358.52 162.07,-354.06 166.8,-363.54 171.68,-358.52"/>
<text text-anchor="middle" x="210" y="-384.8" font-family="Helvetica,sans-Serif" font-size="14.00">e2</text>
</g>
<!-- n6 -->
<g id="node7" class="node">
<title>n6</title>
<path fill="#f8f8fa" stroke="#485478" stroke-width="3" d="M528,-354C528,-354 300,-354 300,-354 294,-354 288,-348 288,-342 288,-342 288,-294 288,-294 288,-288 294,-282 300,-282 300,-282 528,-282 528,-282 534,-282 540,-288 540,-294 540,-294 540,-342 540,-342 540,-348 534,-354 528,-354"/>
<text text-anchor="middle" x="414" y="-314.3" font-family="Helvetica,sans-Serif" font-size="14.00" fill="#242d48">n6: the Nazghuls move to Weathertop</text>
</g>
<!-- n2&#45;&gt;n6 -->
<g id="edge6" class="edge">
<title>n2&#45;&gt;n6</title>
<path fill="none" stroke="#485478" stroke-width="3" d="M305.59,-422.92C325.17,-404.16 349.42,-380.91 370.01,-361.17"/>
<polygon fill="#485478" stroke="#485478" stroke-width="3" points="372.63,-363.51 377.42,-354.06 367.78,-358.46 372.63,-363.51"/>
<text text-anchor="middle" x="354" y="-384.8" font-family="Helvetica,sans-Serif" font-size="14.00">e5</text>
</g>
<!-- n4 -->
<g id="node5" class="node">
<title>n4</title>
<path fill="#f8f8fa" stroke="#485478" stroke-width="3" d="M383,-213C383,-213 155,-213 155,-213 149,-213 143,-207 143,-201 143,-201 143,-153 143,-153 143,-147 149,-141 155,-141 155,-141 383,-141 383,-141 389,-141 395,-147 395,-153 395,-153 395,-201 395,-201 395,-207 389,-213 383,-213"/>
<text text-anchor="middle" x="269" y="-180.8" font-family="Helvetica,sans-Serif" font-size="14.00" fill="#242d48">n4: nazghuls catch up at Weathertop;</text>
<text text-anchor="middle" x="269" y="-165.8" font-family="Helvetica,sans-Serif" font-size="14.00" fill="#242d48">Frodo is injured</text>
</g>
<!-- n3&#45;&gt;n4 -->
<g id="edge4" class="edge">
<title>n3&#45;&gt;n4</title>
<path fill="none" stroke="#485478" stroke-width="3" d="M162.08,-281.92C181.39,-263.16 205.31,-239.91 225.62,-220.17"/>
<polygon fill="#485478" stroke="#485478" stroke-width="3" points="228.2,-222.54 232.93,-213.06 223.32,-217.52 228.2,-222.54"/>
<text text-anchor="middle" x="210" y="-243.8" font-family="Helvetica,sans-Serif" font-size="14.00">e3</text>
</g>
<!-- n8 -->
<g id="node9" class="node">
<title>n8</title>
<path fill="#ffdd99" stroke="#000000" stroke-width="3" d="M383,-72C383,-72 155,-72 155,-72 149,-72 143,-66 143,-60 143,-60 143,-12 143,-12 143,-6 149,0 155,0 155,0 383,0 383,0 389,0 395,-6 395,-12 395,-12 395,-60 395,-60 395,-66 389,-72 383,-72"/>
<text text-anchor="middle" x="269" y="-32.3" font-family="Helvetica,sans-Serif" font-size="14.00" fill="#242d48">n8: flight to the ford</text>
</g>
<!-- n4&#45;&gt;n8 -->
<g id="edge9" class="edge">
<title>n4&#45;&gt;n8</title>
<path fill="none" stroke="#485478" stroke-width="3" d="M269,-140.92C269,-123.15 269,-101.35 269,-82.31"/>
<polygon fill="#485478" stroke="#485478" stroke-width="3" points="272.5,-82.06 269,-72.06 265.5,-82.06 272.5,-82.06"/>
<text text-anchor="middle" x="277" y="-102.8" font-family="Helvetica,sans-Serif" font-size="14.00">e8</text>
</g>
<!-- n5 -->
<g id="node6" class="node">
<title>n5</title>
<path fill="#f8f8fa" stroke="#485478" stroke-width="3" d="M528,-636C528,-636 300,-636 300,-636 294,-636 288,-630 288,-624 288,-624 288,-576 288,-576 288,-570 294,-564 300,-564 300,-564 528,-564 528,-564 534,-564 540,-570 540,-576 540,-576 540,-624 540,-624 540,-630 534,-636 528,-636"/>
<text text-anchor="middle" x="414" y="-596.3" font-family="Helvetica,sans-Serif" font-size="14.00" fill="#242d48">n5: Nazghuls move to Bree</text>
</g>
<!-- n5&#45;&gt;n2 -->
<g id="edge5" class="edge">
<title>n5&#45;&gt;n2</title>
<path fill="none" stroke="#485478" stroke-width="3" d="M377.41,-563.92C357.83,-545.16 333.58,-521.91 312.99,-502.17"/>
<polygon fill="#485478" stroke="#485478" stroke-width="3" points="315.22,-499.46 305.58,-495.06 310.37,-504.51 315.22,-499.46"/>
<text text-anchor="middle" x="354" y="-525.8" font-family="Helvetica,sans-Serif" font-size="14.00">e4</text>
</g>
<!-- n6&#45;&gt;n4 -->
<g id="edge7" class="edge">
<title>n6&#45;&gt;n4</title>
<path fill="none" stroke="#485478" stroke-width="3" d="M377.41,-281.92C357.83,-263.16 333.58,-239.91 312.99,-220.17"/>
<polygon fill="#485478" stroke="#485478" stroke-width="3" points="315.22,-217.46 305.58,-213.06 310.37,-222.51 315.22,-217.46"/>
<text text-anchor="middle" x="354" y="-243.8" font-family="Helvetica,sans-Serif" font-size="14.00">e6</text>
</g>
<!-- n7 -->
<g id="node8" class="node">
<title>n7</title>
<path fill="#f8f8fa" stroke="#485478" stroke-width="3" d="M528,-777C528,-777 300,-777 300,-777 294,-777 288,-771 288,-765 288,-765 288,-717 288,-717 288,-711 294,-705 300,-705 300,-705 528,-705 528,-705 534,-705 540,-711 540,-717 540,-717 540,-765 540,-765 540,-771 534,-777 528,-777"/>
<text text-anchor="middle" x="414" y="-737.3" font-family="Helvetica,sans-Serif" font-size="14.00" fill="#242d48">n7: Nazghuls dispatched from Mordor</text>
</g>
<!-- n7&#45;&gt;n5 -->
<g id="edge8" class="edge">
<title>n7&#45;&gt;n5</title>
<path fill="none" stroke="#485478" stroke-width="3" d="M414,-704.92C414,-687.15 414,-665.35 414,-646.31"/>
<polygon fill="#485478" stroke="#485478" stroke-width="3" points="417.5,-646.06 414,-636.06 410.5,-646.06 417.5,-646.06"/>
<text text-anchor="middle" x="422" y="-666.8" font-family="Helvetica,sans-Serif" font-size="14.00">e7</text>
</g>
</g>
</svg>
