<?xml version="1.0" encoding="UTF-8" standalone="no"?>
<!DOCTYPE svg PUBLIC "-//W3C//DTD SVG 1.1//EN"
 "http://www.w3.org/Graphics/SVG/1.1/DTD/svg11.dtd">
<!-- Generated by graphviz version 10.0.1 (20240210.2158)
 -->
<!-- Pages: 1 -->
<svg width="1419pt" height="926pt"
 viewBox="0.00 0.00 1419.00 926.00" xmlns="http://www.w3.org/2000/svg" xmlns:xlink="http://www.w3.org/1999/xlink">
<g id="graph0" class="graph" transform="scale(1 1) rotate(0) translate(4 922)">
<polygon fill="white" stroke="none" points="-4,4 -4,-922 1415,-922 1415,4 -4,4"/>
<!-- n0 -->
<g id="node1" class="node">
<title>n0</title>
<polygon fill="#ffffff" stroke="black" points="288,-918 0,-918 0,-846 288,-846 288,-918"/>
<text text-anchor="start" x="70.12" y="-883.7" font-family="Helvetica,sans-Serif" font-size="10.00">n0</text>
<text text-anchor="start" x="80.62" y="-883.7" font-family="Helvetica,sans-Serif" font-size="14.00">: Gandalf comes to the</text>
<text text-anchor="start" x="129.38" y="-869.7" font-family="Helvetica,sans-Serif" font-size="14.00">shire</text>
</g>
<!-- n1 -->
<g id="node2" class="node">
<title>n1</title>
<polygon fill="#ffffff" stroke="black" points="437,-777 149,-777 149,-705 437,-705 437,-777"/>
<text text-anchor="start" x="216.88" y="-742.7" font-family="Helvetica,sans-Serif" font-size="10.00">n1</text>
<text text-anchor="start" x="227.38" y="-742.7" font-family="Helvetica,sans-Serif" font-size="14.00">: Frodo departs with the</text>
<text text-anchor="start" x="281.75" y="-728.7" font-family="Helvetica,sans-Serif" font-size="14.00">ring</text>
</g>
<!-- n0&#45;&gt;n1 -->
<g id="edge1" class="edge">
<title>n0&#45;&gt;n1</title>
<path fill="none" stroke="#000000" stroke-width="3" d="M181.98,-845.56C200.99,-827.84 224.2,-806.18 244.48,-787.27"/>
<polygon fill="#000000" stroke="#000000" stroke-width="3" points="246.84,-789.85 251.76,-780.47 242.06,-784.73 246.84,-789.85"/>
<text text-anchor="middle" x="230.5" y="-805.7" font-family="Helvetica,sans-Serif" font-size="14.00">e0</text>
</g>
<!-- n9 -->
<g id="node10" class="node">
<title>n9</title>
<polygon fill="#ffffff" stroke="black" points="763,-72 475,-72 475,0 763,0 763,-72"/>
<text text-anchor="start" x="541" y="-44.7" font-family="Helvetica,sans-Serif" font-size="10.00">n9</text>
<text text-anchor="start" x="551.5" y="-44.7" font-family="Helvetica,sans-Serif" font-size="14.00">: the fellowship meets at</text>
<text text-anchor="start" x="547.75" y="-30.7" font-family="Helvetica,sans-Serif" font-size="14.00">Rivendell &quot;one does not</text>
<text text-anchor="start" x="545.12" y="-16.7" font-family="Helvetica,sans-Serif" font-size="14.00">simply walk into mordor&quot;</text>
</g>
<!-- n0&#45;&gt;n9 -->
<g id="edge11" class="edge">
<title>n0&#45;&gt;n9</title>
<path fill="none" stroke="#000000" stroke-width="3" d="M123.66,-845.67C109.82,-818.29 94,-778.93 94,-742 94,-742 94,-742 94,-176 94,-99.31 305.98,-63.96 460.55,-48.37"/>
<polygon fill="#000000" stroke="#000000" stroke-width="3" points="460.72,-51.88 470.33,-47.42 460.03,-44.91 460.72,-51.88"/>
<text text-anchor="middle" x="105.25" y="-453.2" font-family="Helvetica,sans-Serif" font-size="14.00">e10</text>
</g>
<!-- n2 -->
<g id="node3" class="node">
<title>n2</title>
<polygon fill="#ffffff" stroke="black" points="663,-636 375,-636 375,-564 663,-564 663,-636"/>
<text text-anchor="start" x="466.12" y="-595.2" font-family="Helvetica,sans-Serif" font-size="10.00">n2</text>
<text text-anchor="start" x="476.62" y="-595.2" font-family="Helvetica,sans-Serif" font-size="14.00">: the inn at Bree</text>
</g>
<!-- n1&#45;&gt;n2 -->
<g id="edge2" class="edge">
<title>n1&#45;&gt;n2</title>
<path fill="none" stroke="#000000" stroke-width="3" d="M350.61,-704.56C380.63,-686.1 417.58,-663.38 449.21,-643.93"/>
<polygon fill="#000000" stroke="#000000" stroke-width="3" points="450.94,-646.97 457.62,-638.75 447.27,-641.01 450.94,-646.97"/>
<text text-anchor="middle" x="420.5" y="-664.7" font-family="Helvetica,sans-Serif" font-size="14.00">e1</text>
</g>
<!-- n3 -->
<g id="node4" class="node">
<title>n3</title>
<polygon fill="#d0cccc" stroke="black" points="765,-495 477,-495 477,-423 765,-423 765,-495"/>
<text text-anchor="start" x="541.5" y="-460.7" font-family="Helvetica,sans-Serif" font-size="10.00">n3</text>
<text text-anchor="start" x="552" y="-460.7" font-family="Helvetica,sans-Serif" font-size="14.00">: the hobbits escape with</text>
<text text-anchor="start" x="597" y="-446.7" font-family="Helvetica,sans-Serif" font-size="14.00">Aragorn</text>
</g>
<!-- n2&#45;&gt;n3 -->
<g id="edge3" class="edge">
<title>n2&#45;&gt;n3</title>
<path fill="none" stroke="#000000" stroke-width="3" d="M545,-563.56C557.65,-546.33 573.03,-525.38 586.63,-506.84"/>
<polygon fill="#000000" stroke="#000000" stroke-width="3" points="589.26,-509.16 592.36,-499.03 583.62,-505.02 589.26,-509.16"/>
<text text-anchor="middle" x="581.5" y="-523.7" font-family="Helvetica,sans-Serif" font-size="14.00">e2</text>
</g>
<!-- n6 -->
<g id="node7" class="node">
<title>n6</title>
<polygon fill="#ffffff" stroke="black" points="441,-495 153,-495 153,-423 441,-423 441,-495"/>
<text text-anchor="start" x="222.38" y="-460.7" font-family="Helvetica,sans-Serif" font-size="10.00">n6</text>
<text text-anchor="start" x="232.88" y="-460.7" font-family="Helvetica,sans-Serif" font-size="14.00">: the Nazghuls move to</text>
<text text-anchor="start" x="262.12" y="-446.7" font-family="Helvetica,sans-Serif" font-size="14.00">Weathertop</text>
</g>
<!-- n2&#45;&gt;n6 -->
<g id="edge6" class="edge">
<title>n2&#45;&gt;n6</title>
<path fill="none" stroke="#000000" stroke-width="3" d="M462.41,-563.56C432.92,-545.1 396.63,-522.38 365.56,-502.93"/>
<polygon fill="#000000" stroke="#000000" stroke-width="3" points="367.67,-500.12 357.34,-497.78 363.96,-506.05 367.67,-500.12"/>
<text text-anchor="middle" x="422.5" y="-523.7" font-family="Helvetica,sans-Serif" font-size="14.00">e5</text>
</g>
<!-- n4 -->
<g id="node5" class="node">
<title>n4</title>
<polygon fill="#ffffff" stroke="black" points="441,-354 153,-354 153,-282 441,-282 441,-354"/>
<text text-anchor="start" x="226.12" y="-326.7" font-family="Helvetica,sans-Serif" font-size="10.00">n4</text>
<text text-anchor="start" x="236.62" y="-326.7" font-family="Helvetica,sans-Serif" font-size="14.00">: nazghuls catch up at</text>
<text text-anchor="start" x="234" y="-312.7" font-family="Helvetica,sans-Serif" font-size="14.00">Weathertop; Frodo is</text>
<text text-anchor="start" x="276.75" y="-298.7" font-family="Helvetica,sans-Serif" font-size="14.00">injured</text>
</g>
<!-- n3&#45;&gt;n4 -->
<g id="edge4" class="edge">
<title>n3&#45;&gt;n4</title>
<path fill="none" stroke="#000000" stroke-width="3" d="M538.4,-422.56C494.03,-403.53 439.09,-379.96 392.84,-360.12"/>
<polygon fill="#000000" stroke="#000000" stroke-width="3" points="394.47,-357.01 383.9,-356.28 391.71,-363.44 394.47,-357.01"/>
<text text-anchor="middle" x="476.5" y="-382.7" font-family="Helvetica,sans-Serif" font-size="14.00">e3</text>
</g>
<!-- n8 -->
<g id="node9" class="node">
<title>n8</title>
<polygon fill="#ffffff" stroke="black" points="439,-213 151,-213 151,-141 439,-141 439,-213"/>
<text text-anchor="start" x="239.5" y="-172.2" font-family="Helvetica,sans-Serif" font-size="10.00">n8</text>
<text text-anchor="start" x="250" y="-172.2" font-family="Helvetica,sans-Serif" font-size="14.00">: flight to the ford</text>
</g>
<!-- n4&#45;&gt;n8 -->
<g id="edge9" class="edge">
<title>n4&#45;&gt;n8</title>
<path fill="none" stroke="#000000" stroke-width="3" d="M296.49,-281.56C296.26,-265.23 295.97,-245.55 295.72,-227.76"/>
<polygon fill="#000000" stroke="#000000" stroke-width="3" points="299.22,-227.86 295.57,-217.91 292.22,-227.96 299.22,-227.86"/>
<text text-anchor="middle" x="304.5" y="-241.7" font-family="Helvetica,sans-Serif" font-size="14.00">e8</text>
</g>
<!-- n5 -->
<g id="node6" class="node">
<title>n5</title>
<polygon fill="#ffffff" stroke="black" points="761,-777 473,-777 473,-705 761,-705 761,-777"/>
<text text-anchor="start" x="537.5" y="-736.2" font-family="Helvetica,sans-Serif" font-size="10.00">n5</text>
<text text-anchor="start" x="548" y="-736.2" font-family="Helvetica,sans-Serif" font-size="14.00">: Nazghuls move to Bree</text>
</g>
<!-- n5&#45;&gt;n2 -->
<g id="edge5" class="edge">
<title>n5&#45;&gt;n2</title>
<path fill="none" stroke="#000000" stroke-width="3" d="M592.02,-704.56C579.92,-687.41 565.23,-666.58 552.21,-648.1"/>
<polygon fill="#000000" stroke="#000000" stroke-width="3" points="555.18,-646.24 546.55,-640.08 549.46,-650.27 555.18,-646.24"/>
<text text-anchor="middle" x="578.5" y="-664.7" font-family="Helvetica,sans-Serif" font-size="14.00">e4</text>
</g>
<!-- n6&#45;&gt;n4 -->
<g id="edge7" class="edge">
<title>n6&#45;&gt;n4</title>
<path fill="none" stroke="#000000" stroke-width="3" d="M297,-422.56C297,-406.23 297,-386.55 297,-368.76"/>
<polygon fill="#000000" stroke="#000000" stroke-width="3" points="300.5,-368.91 297,-358.91 293.5,-368.91 300.5,-368.91"/>
<text text-anchor="middle" x="304.5" y="-382.7" font-family="Helvetica,sans-Serif" font-size="14.00">e6</text>
</g>
<!-- n7 -->
<g id="node8" class="node">
<title>n7</title>
<polygon fill="#ffffff" stroke="black" points="761,-918 473,-918 473,-846 761,-846 761,-918"/>
<text text-anchor="start" x="529.62" y="-883.7" font-family="Helvetica,sans-Serif" font-size="10.00">n7</text>
<text text-anchor="start" x="540.12" y="-883.7" font-family="Helvetica,sans-Serif" font-size="14.00">: Nazghuls dispatched from</text>
<text text-anchor="start" x="595.25" y="-869.7" font-family="Helvetica,sans-Serif" font-size="14.00">Mordor</text>
</g>
<!-- n7&#45;&gt;n5 -->
<g id="edge8" class="edge">
<title>n7&#45;&gt;n5</title>
<path fill="none" stroke="#000000" stroke-width="3" d="M617,-845.56C617,-829.23 617,-809.55 617,-791.76"/>
<polygon fill="#000000" stroke="#000000" stroke-width="3" points="620.5,-791.91 617,-781.91 613.5,-791.91 620.5,-791.91"/>
<text text-anchor="middle" x="624.5" y="-805.7" font-family="Helvetica,sans-Serif" font-size="14.00">e7</text>
</g>
<!-- n8&#45;&gt;n9 -->
<g id="edge10" class="edge">
<title>n8&#45;&gt;n9</title>
<path fill="none" stroke="#000000" stroke-width="3" d="M377.6,-140.56C421.97,-121.53 476.91,-97.96 523.16,-78.12"/>
<polygon fill="#000000" stroke="#000000" stroke-width="3" points="524.29,-81.44 532.1,-74.28 521.53,-75.01 524.29,-81.44"/>
<text text-anchor="middle" x="474.5" y="-100.7" font-family="Helvetica,sans-Serif" font-size="14.00">e9</text>
</g>
<!-- n10 -->
<g id="node11" class="node">
<title>n10</title>
<polygon fill="#ffffff" stroke="black" points="763,-213 475,-213 475,-141 763,-141 763,-213"/>
<text text-anchor="start" x="537.25" y="-178.7" font-family="Helvetica,sans-Serif" font-size="10.00">n10</text>
<text text-anchor="start" x="553" y="-178.7" font-family="Helvetica,sans-Serif" font-size="14.00">: Gimli leaves the moun&#45;</text>
<text text-anchor="start" x="604.75" y="-164.7" font-family="Helvetica,sans-Serif" font-size="14.00">tains</text>
</g>
<!-- n10&#45;&gt;n9 -->
<g id="edge12" class="edge">
<title>n10&#45;&gt;n9</title>
<path fill="none" stroke="#000000" stroke-width="3" d="M619,-140.56C619,-124.23 619,-104.55 619,-86.76"/>
<polygon fill="#000000" stroke="#000000" stroke-width="3" points="622.5,-86.91 619,-76.91 615.5,-86.91 622.5,-86.91"/>
<text text-anchor="middle" x="630.25" y="-100.7" font-family="Helvetica,sans-Serif" font-size="14.00">e11</text>
</g>
<!-- n11 -->
<g id="node12" class="node">
<title>n11</title>
<polygon fill="#ffffff" stroke="black" points="1087,-213 799,-213 799,-141 1087,-141 1087,-213"/>
<text text-anchor="start" x="870.25" y="-178.7" font-family="Helvetica,sans-Serif" font-size="10.00">n11</text>
<text text-anchor="start" x="886" y="-178.7" font-family="Helvetica,sans-Serif" font-size="14.00">: Legolas travels from</text>
<text text-anchor="start" x="913.75" y="-164.7" font-family="Helvetica,sans-Serif" font-size="14.00">Mirkwood</text>
</g>
<!-- n11&#45;&gt;n9 -->
<g id="edge13" class="edge">
<title>n11&#45;&gt;n9</title>
<path fill="none" stroke="#000000" stroke-width="3" d="M860.4,-140.56C816.03,-121.53 761.09,-97.96 714.84,-78.12"/>
<polygon fill="#000000" stroke="#000000" stroke-width="3" points="716.47,-75.01 705.9,-74.28 713.71,-81.44 716.47,-75.01"/>
<text text-anchor="middle" x="801.25" y="-100.7" font-family="Helvetica,sans-Serif" font-size="14.00">e12</text>
</g>
<!-- n12 -->
<g id="node13" class="node">
<title>n12</title>
<polygon fill="#ffffff" stroke="black" points="1411,-213 1123,-213 1123,-141 1411,-141 1411,-213"/>
<text text-anchor="start" x="1180.75" y="-178.7" font-family="Helvetica,sans-Serif" font-size="10.00">n12</text>
<text text-anchor="start" x="1196.5" y="-178.7" font-family="Helvetica,sans-Serif" font-size="14.00">: Boromir seeks the sword</text>
<text text-anchor="start" x="1226.5" y="-164.7" font-family="Helvetica,sans-Serif" font-size="14.00">that is broken</text>
</g>
<!-- n12&#45;&gt;n9 -->
<g id="edge14" class="edge">
<title>n12&#45;&gt;n9</title>
<path fill="none" stroke="#000000" stroke-width="3" d="M1122.59,-144.79C1116.65,-143.51 1110.77,-142.24 1105,-141 995.66,-117.49 872.46,-91.13 777.46,-70.83"/>
<polygon fill="#000000" stroke="#000000" stroke-width="3" points="778.31,-67.43 767.8,-68.76 776.85,-74.27 778.31,-67.43"/>
<text text-anchor="middle" x="982.25" y="-100.7" font-family="Helvetica,sans-Serif" font-size="14.00">e13</text>
</g>
<!-- n13 -->
<g id="node14" class="node">
<title>n13</title>
<polygon fill="#ffffff" stroke="black" points="1411,-354 1123,-354 1123,-282 1411,-282 1411,-354"/>
<text text-anchor="start" x="1195" y="-319.7" font-family="Helvetica,sans-Serif" font-size="10.00">n13</text>
<text text-anchor="start" x="1210.75" y="-319.7" font-family="Helvetica,sans-Serif" font-size="14.00">: Boromir fights in the</text>
<text text-anchor="start" x="1212.25" y="-305.7" font-family="Helvetica,sans-Serif" font-size="14.00">battle for Osgiliath</text>
</g>
<!-- n13&#45;&gt;n12 -->
<g id="edge15" class="edge">
<title>n13&#45;&gt;n12</title>
<path fill="none" stroke="#000000" stroke-width="3" d="M1267,-281.56C1267,-265.23 1267,-245.55 1267,-227.76"/>
<polygon fill="#000000" stroke="#000000" stroke-width="3" points="1270.5,-227.91 1267,-217.91 1263.5,-227.91 1270.5,-227.91"/>
<text text-anchor="middle" x="1278.25" y="-241.7" font-family="Helvetica,sans-Serif" font-size="14.00">e14</text>
</g>
</g>
</svg>
