<?xml version="1.0" encoding="UTF-8" standalone="no"?>
<!DOCTYPE svg PUBLIC "-//W3C//DTD SVG 1.1//EN"
 "http://www.w3.org/Graphics/SVG/1.1/DTD/svg11.dtd">
<!-- Generated by graphviz version 7.0.0 (20221023.0053)
 -->
<!-- Pages: 1 -->
<svg width="923pt" height="702pt"
 viewBox="0.00 0.00 922.50 702.00" xmlns="http://www.w3.org/2000/svg" xmlns:xlink="http://www.w3.org/1999/xlink">
<g id="graph0" class="graph" transform="scale(1 1) rotate(0) translate(4 698)">
<polygon fill="white" stroke="none" points="-4,4 -4,-698 918.5,-698 918.5,4 -4,4"/>
<!-- n0 -->
<g id="node1" class="node">
<title>n0</title>
<polygon fill="#ffffff" stroke="black" points="180,-694 0,-694 0,-658 180,-658 180,-694"/>
<text text-anchor="start" x="16" y="-679.8" font-family="Helvetica,sans-Serif" font-size="10.00">n0</text>
<text text-anchor="start" x="27" y="-679.8" font-family="Helvetica,sans-Serif" font-size="14.00">: Gandalf comes to the</text>
<text text-anchor="start" x="75.5" y="-665.8" font-family="Helvetica,sans-Serif" font-size="14.00">shire</text>
</g>
<!-- n1 -->
<g id="node2" class="node">
<title>n1</title>
<polygon fill="#ffffff" stroke="black" points="255,-589 75,-589 75,-553 255,-553 255,-589"/>
<text text-anchor="start" x="89" y="-574.8" font-family="Helvetica,sans-Serif" font-size="10.00">n1</text>
<text text-anchor="start" x="100" y="-574.8" font-family="Helvetica,sans-Serif" font-size="14.00">: Frodo departs with the</text>
<text text-anchor="start" x="154" y="-560.8" font-family="Helvetica,sans-Serif" font-size="14.00">ring</text>
</g>
<!-- n0&#45;&gt;n1 -->
<g id="edge1" class="edge">
<title>n0&#45;&gt;n1</title>
<path fill="none" stroke="#000000" stroke-width="3" d="M102.72,-657.53C114,-642.05 130.68,-619.14 143.94,-600.92"/>
<polygon fill="#000000" stroke="#000000" stroke-width="3" points="146.74,-603.03 149.79,-592.89 141.08,-598.91 146.74,-603.03"/>
<text text-anchor="middle" x="140" y="-619.8" font-family="Helvetica,sans-Serif" font-size="14.00">e0</text>
</g>
<!-- n9 -->
<g id="node10" class="node">
<title>n9</title>
<polygon fill="#ffffff" stroke="black" points="473,-50 293,-50 293,0 473,0 473,-50"/>
<text text-anchor="start" x="305" y="-35.8" font-family="Helvetica,sans-Serif" font-size="10.00">n9</text>
<text text-anchor="start" x="316" y="-35.8" font-family="Helvetica,sans-Serif" font-size="14.00">: the fellowship meets at</text>
<text text-anchor="start" x="312" y="-21.8" font-family="Helvetica,sans-Serif" font-size="14.00">Rivendell &quot;one does not</text>
<text text-anchor="start" x="309.5" y="-7.8" font-family="Helvetica,sans-Serif" font-size="14.00">simply walk into mordor&quot;</text>
</g>
<!-- n0&#45;&gt;n9 -->
<g id="edge11" class="edge">
<title>n0&#45;&gt;n9</title>
<path fill="none" stroke="#000000" stroke-width="3" d="M68.62,-657.7C48.03,-638.97 20,-607.03 20,-572 20,-572 20,-572 20,-136 20,-81.57 171.4,-51.56 278.64,-37.14"/>
<polygon fill="#000000" stroke="#000000" stroke-width="3" points="278.84,-40.64 288.3,-35.88 277.93,-33.7 278.84,-40.64"/>
<text text-anchor="middle" x="31.5" y="-357.3" font-family="Helvetica,sans-Serif" font-size="14.00">e10</text>
</g>
<!-- n2 -->
<g id="node3" class="node">
<title>n2</title>
<polygon fill="#ffffff" stroke="black" points="414,-484 234,-484 234,-448 414,-448 414,-484"/>
<text text-anchor="start" x="271" y="-462.8" font-family="Helvetica,sans-Serif" font-size="10.00">n2</text>
<text text-anchor="start" x="282" y="-462.8" font-family="Helvetica,sans-Serif" font-size="14.00">: the inn at Bree</text>
</g>
<!-- n1&#45;&gt;n2 -->
<g id="edge2" class="edge">
<title>n1&#45;&gt;n2</title>
<path fill="none" stroke="#000000" stroke-width="3" d="M191.97,-552.53C217.52,-535.98 256.16,-510.94 285.05,-492.23"/>
<polygon fill="#000000" stroke="#000000" stroke-width="3" points="286.86,-495.23 293.35,-486.85 283.05,-489.35 286.86,-495.23"/>
<text text-anchor="middle" x="263" y="-514.8" font-family="Helvetica,sans-Serif" font-size="14.00">e1</text>
</g>
<!-- n3 -->
<g id="node4" class="node">
<title>n3</title>
<polygon fill="#d0cccc" stroke="black" points="475,-379 295,-379 295,-343 475,-343 475,-379"/>
<text text-anchor="start" x="305" y="-364.8" font-family="Helvetica,sans-Serif" font-size="10.00">n3</text>
<text text-anchor="start" x="316" y="-364.8" font-family="Helvetica,sans-Serif" font-size="14.00">: the hobbits escape with</text>
<text text-anchor="start" x="360.5" y="-350.8" font-family="Helvetica,sans-Serif" font-size="14.00">Aragorn</text>
</g>
<!-- n2&#45;&gt;n3 -->
<g id="edge3" class="edge">
<title>n2&#45;&gt;n3</title>
<path fill="none" stroke="#000000" stroke-width="3" d="M334.35,-447.53C343.38,-432.27 356.69,-409.8 367.4,-391.71"/>
<polygon fill="#000000" stroke="#000000" stroke-width="3" points="370.41,-393.51 372.49,-383.12 364.38,-389.94 370.41,-393.51"/>
<text text-anchor="middle" x="367" y="-409.8" font-family="Helvetica,sans-Serif" font-size="14.00">e2</text>
</g>
<!-- n6 -->
<g id="node7" class="node">
<title>n6</title>
<polygon fill="#ffffff" stroke="black" points="259,-379 79,-379 79,-343 259,-343 259,-379"/>
<text text-anchor="start" x="94" y="-364.8" font-family="Helvetica,sans-Serif" font-size="10.00">n6</text>
<text text-anchor="start" x="105" y="-364.8" font-family="Helvetica,sans-Serif" font-size="14.00">: the Nazghuls move to</text>
<text text-anchor="start" x="134" y="-350.8" font-family="Helvetica,sans-Serif" font-size="14.00">Weathertop</text>
</g>
<!-- n2&#45;&gt;n6 -->
<g id="edge6" class="edge">
<title>n2&#45;&gt;n6</title>
<path fill="none" stroke="#000000" stroke-width="3" d="M297.71,-447.53C272.8,-430.98 235.13,-405.94 206.97,-387.23"/>
<polygon fill="#000000" stroke="#000000" stroke-width="3" points="209.21,-384.52 198.95,-381.9 205.34,-390.35 209.21,-384.52"/>
<text text-anchor="middle" x="264" y="-409.8" font-family="Helvetica,sans-Serif" font-size="14.00">e5</text>
</g>
<!-- n4 -->
<g id="node5" class="node">
<title>n4</title>
<polygon fill="#ffffff" stroke="black" points="259,-274 79,-274 79,-224 259,-224 259,-274"/>
<text text-anchor="start" x="98" y="-259.8" font-family="Helvetica,sans-Serif" font-size="10.00">n4</text>
<text text-anchor="start" x="109" y="-259.8" font-family="Helvetica,sans-Serif" font-size="14.00">: nazghuls catch up at</text>
<text text-anchor="start" x="106" y="-245.8" font-family="Helvetica,sans-Serif" font-size="14.00">Weathertop; Frodo is</text>
<text text-anchor="start" x="149" y="-231.8" font-family="Helvetica,sans-Serif" font-size="14.00">injured</text>
</g>
<!-- n3&#45;&gt;n4 -->
<g id="edge4" class="edge">
<title>n3&#45;&gt;n4</title>
<path fill="none" stroke="#000000" stroke-width="3" d="M350.77,-342.57C318.28,-326.02 268.73,-300.79 229.56,-280.84"/>
<polygon fill="#000000" stroke="#000000" stroke-width="3" points="231.27,-277.78 220.77,-276.36 228.09,-284.02 231.27,-277.78"/>
<text text-anchor="middle" x="305" y="-304.8" font-family="Helvetica,sans-Serif" font-size="14.00">e3</text>
</g>
<!-- n8 -->
<g id="node9" class="node">
<title>n8</title>
<polygon fill="#ffffff" stroke="black" points="257,-155 77,-155 77,-119 257,-119 257,-155"/>
<text text-anchor="start" x="111" y="-133.8" font-family="Helvetica,sans-Serif" font-size="10.00">n8</text>
<text text-anchor="start" x="122" y="-133.8" font-family="Helvetica,sans-Serif" font-size="14.00">: flight to the ford</text>
</g>
<!-- n4&#45;&gt;n8 -->
<g id="edge9" class="edge">
<title>n4&#45;&gt;n8</title>
<path fill="none" stroke="#000000" stroke-width="3" d="M168.56,-223.59C168.27,-207.69 167.89,-186.8 167.58,-169.64"/>
<polygon fill="#000000" stroke="#000000" stroke-width="3" points="171.08,-169.65 167.39,-159.71 164.08,-169.77 171.08,-169.65"/>
<text text-anchor="middle" x="177" y="-185.8" font-family="Helvetica,sans-Serif" font-size="14.00">e8</text>
</g>
<!-- n5 -->
<g id="node6" class="node">
<title>n5</title>
<polygon fill="#ffffff" stroke="black" points="471,-589 291,-589 291,-553 471,-553 471,-589"/>
<text text-anchor="start" x="301" y="-567.8" font-family="Helvetica,sans-Serif" font-size="10.00">n5</text>
<text text-anchor="start" x="312" y="-567.8" font-family="Helvetica,sans-Serif" font-size="14.00">: Nazghuls move to Bree</text>
</g>
<!-- n5&#45;&gt;n2 -->
<g id="edge5" class="edge">
<title>n5&#45;&gt;n2</title>
<path fill="none" stroke="#000000" stroke-width="3" d="M371.33,-552.53C362.89,-537.27 350.45,-514.8 340.44,-496.71"/>
<polygon fill="#000000" stroke="#000000" stroke-width="3" points="343.63,-495.24 335.73,-488.19 337.5,-498.63 343.63,-495.24"/>
<text text-anchor="middle" x="364" y="-514.8" font-family="Helvetica,sans-Serif" font-size="14.00">e4</text>
</g>
<!-- n6&#45;&gt;n4 -->
<g id="edge7" class="edge">
<title>n6&#45;&gt;n4</title>
<path fill="none" stroke="#000000" stroke-width="3" d="M169,-342.81C169,-328.39 169,-307.24 169,-288.78"/>
<polygon fill="#000000" stroke="#000000" stroke-width="3" points="172.5,-288.95 169,-278.95 165.5,-288.95 172.5,-288.95"/>
<text text-anchor="middle" x="177" y="-304.8" font-family="Helvetica,sans-Serif" font-size="14.00">e6</text>
</g>
<!-- n7 -->
<g id="node8" class="node">
<title>n7</title>
<polygon fill="#ffffff" stroke="black" points="477,-694 285,-694 285,-658 477,-658 477,-694"/>
<text text-anchor="start" x="293" y="-679.8" font-family="Helvetica,sans-Serif" font-size="10.00">n7</text>
<text text-anchor="start" x="304" y="-679.8" font-family="Helvetica,sans-Serif" font-size="14.00">: Nazghuls dispatched from</text>
<text text-anchor="start" x="359" y="-665.8" font-family="Helvetica,sans-Serif" font-size="14.00">Mordor</text>
</g>
<!-- n7&#45;&gt;n5 -->
<g id="edge8" class="edge">
<title>n7&#45;&gt;n5</title>
<path fill="none" stroke="#000000" stroke-width="3" d="M381,-657.53C381,-642.79 381,-621.32 381,-603.58"/>
<polygon fill="#000000" stroke="#000000" stroke-width="3" points="384.5,-603.76 381,-593.76 377.5,-603.76 384.5,-603.76"/>
<text text-anchor="middle" x="389" y="-619.8" font-family="Helvetica,sans-Serif" font-size="14.00">e7</text>
</g>
<!-- n8&#45;&gt;n9 -->
<g id="edge10" class="edge">
<title>n8&#45;&gt;n9</title>
<path fill="none" stroke="#000000" stroke-width="3" d="M201.23,-118.57C233.72,-102.02 283.27,-76.79 322.44,-56.84"/>
<polygon fill="#000000" stroke="#000000" stroke-width="3" points="323.91,-60.02 331.23,-52.36 320.73,-53.78 323.91,-60.02"/>
<text text-anchor="middle" x="290" y="-80.8" font-family="Helvetica,sans-Serif" font-size="14.00">e9</text>
</g>
<!-- n10 -->
<g id="node11" class="node">
<title>n10</title>
<polygon fill="#ffffff" stroke="black" points="473,-155 293,-155 293,-119 473,-119 473,-155"/>
<text text-anchor="start" x="301" y="-140.8" font-family="Helvetica,sans-Serif" font-size="10.00">n10</text>
<text text-anchor="start" x="317" y="-140.8" font-family="Helvetica,sans-Serif" font-size="14.00">: Gimli leaves the moun&#45;</text>
<text text-anchor="start" x="368.5" y="-126.8" font-family="Helvetica,sans-Serif" font-size="14.00">tains</text>
</g>
<!-- n10&#45;&gt;n9 -->
<g id="edge12" class="edge">
<title>n10&#45;&gt;n9</title>
<path fill="none" stroke="#000000" stroke-width="3" d="M383,-118.81C383,-104.39 383,-83.24 383,-64.78"/>
<polygon fill="#000000" stroke="#000000" stroke-width="3" points="386.5,-64.95 383,-54.95 379.5,-64.95 386.5,-64.95"/>
<text text-anchor="middle" x="394.5" y="-80.8" font-family="Helvetica,sans-Serif" font-size="14.00">e11</text>
</g>
<!-- n11 -->
<g id="node12" class="node">
<title>n11</title>
<polygon fill="#ffffff" stroke="black" points="689,-155 509,-155 509,-119 689,-119 689,-155"/>
<text text-anchor="start" x="526" y="-140.8" font-family="Helvetica,sans-Serif" font-size="10.00">n11</text>
<text text-anchor="start" x="542" y="-140.8" font-family="Helvetica,sans-Serif" font-size="14.00">: Legolas travels from</text>
<text text-anchor="start" x="569.5" y="-126.8" font-family="Helvetica,sans-Serif" font-size="14.00">Mirkwood</text>
</g>
<!-- n11&#45;&gt;n9 -->
<g id="edge13" class="edge">
<title>n11&#45;&gt;n9</title>
<path fill="none" stroke="#000000" stroke-width="3" d="M564.77,-118.57C532.28,-102.02 482.73,-76.79 443.56,-56.84"/>
<polygon fill="#000000" stroke="#000000" stroke-width="3" points="445.27,-53.78 434.77,-52.36 442.09,-60.02 445.27,-53.78"/>
<text text-anchor="middle" x="521.5" y="-80.8" font-family="Helvetica,sans-Serif" font-size="14.00">e12</text>
</g>
<!-- n12 -->
<g id="node13" class="node">
<title>n12</title>
<polygon fill="#ffffff" stroke="black" points="914.5,-155 725.5,-155 725.5,-119 914.5,-119 914.5,-155"/>
<text text-anchor="start" x="734" y="-140.8" font-family="Helvetica,sans-Serif" font-size="10.00">n12</text>
<text text-anchor="start" x="750" y="-140.8" font-family="Helvetica,sans-Serif" font-size="14.00">: Boromir seeks the sword</text>
<text text-anchor="start" x="779.5" y="-126.8" font-family="Helvetica,sans-Serif" font-size="14.00">that is broken</text>
</g>
<!-- n12&#45;&gt;n9 -->
<g id="edge14" class="edge">
<title>n12&#45;&gt;n9</title>
<path fill="none" stroke="#000000" stroke-width="3" d="M750.76,-118.57C679.85,-100.72 568.77,-72.76 487.23,-52.24"/>
<polygon fill="#000000" stroke="#000000" stroke-width="3" points="488.09,-48.84 477.54,-49.8 486.38,-55.63 488.09,-48.84"/>
<text text-anchor="middle" x="651.5" y="-80.8" font-family="Helvetica,sans-Serif" font-size="14.00">e13</text>
</g>
<!-- n13 -->
<g id="node14" class="node">
<title>n13</title>
<polygon fill="#ffffff" stroke="black" points="910,-267 730,-267 730,-231 910,-231 910,-267"/>
<text text-anchor="start" x="748" y="-252.8" font-family="Helvetica,sans-Serif" font-size="10.00">n13</text>
<text text-anchor="start" x="764" y="-252.8" font-family="Helvetica,sans-Serif" font-size="14.00">: Boromir fights in the</text>
<text text-anchor="start" x="765.5" y="-238.8" font-family="Helvetica,sans-Serif" font-size="14.00">battle for Osgiliath</text>
</g>
<!-- n13&#45;&gt;n12 -->
<g id="edge15" class="edge">
<title>n13&#45;&gt;n12</title>
<path fill="none" stroke="#000000" stroke-width="3" d="M820,-230.81C820,-214.52 820,-189.65 820,-169.76"/>
<polygon fill="#000000" stroke="#000000" stroke-width="3" points="823.5,-169.97 820,-159.97 816.5,-169.97 823.5,-169.97"/>
<text text-anchor="middle" x="831.5" y="-185.8" font-family="Helvetica,sans-Serif" font-size="14.00">e14</text>
</g>
</g>
</svg>
