<?xml version="1.0" encoding="UTF-8" standalone="no"?>
<!DOCTYPE svg PUBLIC "-//W3C//DTD SVG 1.1//EN"
 "http://www.w3.org/Graphics/SVG/1.1/DTD/svg11.dtd">
<!-- Generated by graphviz version 3.0.0 (20220226.1711)
 -->
<!-- Pages: 1 -->
<svg width="917pt" height="557pt"
 viewBox="0.00 0.00 917.00 557.00" xmlns="http://www.w3.org/2000/svg" xmlns:xlink="http://www.w3.org/1999/xlink">
<g id="graph0" class="graph" transform="scale(1 1) rotate(0) translate(4 553)">
<polygon fill="white" stroke="transparent" points="-4,4 -4,-553 913,-553 913,4 -4,4"/>
<!-- n0 -->
<g id="node1" class="node">
<title>n0</title>
<text text-anchor="middle" x="81.5" y="-537.8" font-family="Helvetica,sans-Serif" font-size="14.00">Gandalf comes to the shire</text>
</g>
<!-- n1 -->
<g id="node2" class="node">
<title>n1</title>
<text text-anchor="middle" x="165.5" y="-453.8" font-family="Helvetica,sans-Serif" font-size="14.00">Frodo departs with the ring</text>
</g>
<!-- n0&#45;&gt;n1 -->
<g id="edge1" class="edge">
<title>n0&#45;&gt;n1</title>
<path fill="none" stroke="#000000" stroke-width="3" d="M88.37,-533.79C102.1,-520.39 133.15,-490.08 151.39,-472.27"/>
<polygon fill="#000000" stroke="#000000" stroke-width="3" points="154.05,-474.56 158.77,-465.07 149.17,-469.55 154.05,-474.56"/>
<text text-anchor="middle" x="139.5" y="-495.8" font-family="Helvetica,sans-Serif" font-size="14.00">e0</text>
</g>
<!-- n9 -->
<g id="node10" class="node">
<title>n9</title>
<text text-anchor="middle" x="334.5" y="-18.8" font-family="Helvetica,sans-Serif" font-size="14.00">the fellowship meets at Rivendell &quot;one</text>
<text text-anchor="middle" x="334.5" y="-3.8" font-family="Helvetica,sans-Serif" font-size="14.00">does not simply walk into mordor&quot;</text>
</g>
<!-- n0&#45;&gt;n9 -->
<g id="edge11" class="edge">
<title>n0&#45;&gt;n9</title>
<path fill="none" stroke="#000000" stroke-width="3" d="M73.38,-533.76C58.75,-520.81 29.5,-490.87 29.5,-458.5 29.5,-458.5 29.5,-458.5 29.5,-105.5 29.5,-65.89 125.42,-42.56 209.68,-29.7"/>
<polygon fill="#000000" stroke="#000000" stroke-width="3" points="210.25,-33.16 219.63,-28.23 209.22,-26.23 210.25,-33.16"/>
<text text-anchor="middle" x="41" y="-285.8" font-family="Helvetica,sans-Serif" font-size="14.00">e10</text>
</g>
<!-- n2 -->
<g id="node3" class="node">
<title>n2</title>
<text text-anchor="middle" x="284.5" y="-369.8" font-family="Helvetica,sans-Serif" font-size="14.00">the inn at Bree</text>
</g>
<!-- n1&#45;&gt;n2 -->
<g id="edge2" class="edge">
<title>n1&#45;&gt;n2</title>
<path fill="none" stroke="#000000" stroke-width="3" d="M175.24,-449.79C195.21,-436.03 241.07,-404.42 266.57,-386.85"/>
<polygon fill="#000000" stroke="#000000" stroke-width="3" points="268.71,-389.63 274.96,-381.07 264.74,-383.87 268.71,-389.63"/>
<text text-anchor="middle" x="244.5" y="-411.8" font-family="Helvetica,sans-Serif" font-size="14.00">e1</text>
</g>
<!-- n3 -->
<g id="node4" class="node">
<title>n3</title>
<text text-anchor="middle" x="433.5" y="-285.8" font-family="Helvetica,sans-Serif" font-size="14.00">the hobbits escape with Aragorn</text>
</g>
<!-- n2&#45;&gt;n3 -->
<g id="edge3" class="edge">
<title>n2&#45;&gt;n3</title>
<path fill="none" stroke="#000000" stroke-width="3" d="M296.44,-365.93C321.72,-352.01 380.93,-319.43 412.62,-301.99"/>
<polygon fill="#000000" stroke="#000000" stroke-width="3" points="414.43,-304.99 421.5,-297.1 411.05,-298.86 414.43,-304.99"/>
<text text-anchor="middle" x="379.5" y="-327.8" font-family="Helvetica,sans-Serif" font-size="14.00">e2</text>
</g>
<!-- n6 -->
<g id="node7" class="node">
<title>n6</title>
<text text-anchor="middle" x="198.5" y="-285.8" font-family="Helvetica,sans-Serif" font-size="14.00">the Nazghuls move to Weathertop</text>
</g>
<!-- n2&#45;&gt;n6 -->
<g id="edge6" class="edge">
<title>n2&#45;&gt;n6</title>
<path fill="none" stroke="#000000" stroke-width="3" d="M277.46,-365.79C263.34,-352.33 231.33,-321.8 212.69,-304.03"/>
<polygon fill="#000000" stroke="#000000" stroke-width="3" points="215.05,-301.44 205.39,-297.07 210.22,-306.51 215.05,-301.44"/>
<text text-anchor="middle" x="257.5" y="-327.8" font-family="Helvetica,sans-Serif" font-size="14.00">e5</text>
</g>
<!-- n4 -->
<g id="node5" class="node">
<title>n4</title>
<text text-anchor="middle" x="205.5" y="-201.8" font-family="Helvetica,sans-Serif" font-size="14.00">nazghuls catch up at Weathertop; Frodo</text>
<text text-anchor="middle" x="205.5" y="-186.8" font-family="Helvetica,sans-Serif" font-size="14.00">is injured</text>
</g>
<!-- n3&#45;&gt;n4 -->
<g id="edge4" class="edge">
<title>n3&#45;&gt;n4</title>
<path fill="none" stroke="#000000" stroke-width="3" d="M416.73,-281.92C382.15,-268.34 301.85,-236.82 250.82,-216.79"/>
<polygon fill="#000000" stroke="#000000" stroke-width="3" points="251.93,-213.47 241.34,-213.07 249.37,-219.98 251.93,-213.47"/>
<text text-anchor="middle" x="355.5" y="-243.8" font-family="Helvetica,sans-Serif" font-size="14.00">e3</text>
</g>
<!-- n8 -->
<g id="node9" class="node">
<title>n8</title>
<text text-anchor="middle" x="168.5" y="-102.8" font-family="Helvetica,sans-Serif" font-size="14.00">flight to the ford</text>
</g>
<!-- n4&#45;&gt;n8 -->
<g id="edge9" class="edge">
<title>n4&#45;&gt;n8</title>
<path fill="none" stroke="#000000" stroke-width="3" d="M199.56,-182.62C192.92,-166.57 182.2,-140.65 175.26,-123.84"/>
<polygon fill="#000000" stroke="#000000" stroke-width="3" points="178.37,-122.21 171.31,-114.31 171.9,-124.89 178.37,-122.21"/>
<text text-anchor="middle" x="196.5" y="-144.8" font-family="Helvetica,sans-Serif" font-size="14.00">e8</text>
</g>
<!-- n5 -->
<g id="node6" class="node">
<title>n5</title>
<text text-anchor="middle" x="353.5" y="-453.8" font-family="Helvetica,sans-Serif" font-size="14.00">Nazghuls move to Bree</text>
</g>
<!-- n5&#45;&gt;n2 -->
<g id="edge5" class="edge">
<title>n5&#45;&gt;n2</title>
<path fill="none" stroke="#000000" stroke-width="3" d="M347.85,-449.79C336.68,-436.51 311.53,-406.62 296.49,-388.75"/>
<polygon fill="#000000" stroke="#000000" stroke-width="3" points="299.15,-386.47 290.03,-381.07 293.79,-390.98 299.15,-386.47"/>
<text text-anchor="middle" x="333.5" y="-411.8" font-family="Helvetica,sans-Serif" font-size="14.00">e4</text>
</g>
<!-- n6&#45;&gt;n4 -->
<g id="edge7" class="edge">
<title>n6&#45;&gt;n4</title>
<path fill="none" stroke="#000000" stroke-width="3" d="M199.03,-281.77C199.99,-269.49 202.07,-242.89 203.61,-223.14"/>
<polygon fill="#000000" stroke="#000000" stroke-width="3" points="207.11,-223.25 204.4,-213.01 200.14,-222.71 207.11,-223.25"/>
<text text-anchor="middle" x="210.5" y="-243.8" font-family="Helvetica,sans-Serif" font-size="14.00">e6</text>
</g>
<!-- n7 -->
<g id="node8" class="node">
<title>n7</title>
<text text-anchor="middle" x="353.5" y="-537.8" font-family="Helvetica,sans-Serif" font-size="14.00">Nazghuls dispatched from Mordor</text>
</g>
<!-- n7&#45;&gt;n5 -->
<g id="edge8" class="edge">
<title>n7&#45;&gt;n5</title>
<path fill="none" stroke="#000000" stroke-width="3" d="M353.5,-533.79C353.5,-521.11 353.5,-493.3 353.5,-475.26"/>
<polygon fill="#000000" stroke="#000000" stroke-width="3" points="357,-475.07 353.5,-465.07 350,-475.07 357,-475.07"/>
<text text-anchor="middle" x="361.5" y="-495.8" font-family="Helvetica,sans-Serif" font-size="14.00">e7</text>
</g>
<!-- n8&#45;&gt;n9 -->
<g id="edge10" class="edge">
<title>n8&#45;&gt;n9</title>
<path fill="none" stroke="#000000" stroke-width="3" d="M180.71,-98.92C205.42,-85.6 262.17,-55 299.39,-34.93"/>
<polygon fill="#000000" stroke="#000000" stroke-width="3" points="301.26,-37.9 308.4,-30.07 297.94,-31.73 301.26,-37.9"/>
<text text-anchor="middle" x="264.5" y="-60.8" font-family="Helvetica,sans-Serif" font-size="14.00">e9</text>
</g>
<!-- n10 -->
<g id="node11" class="node">
<title>n10</title>
<text text-anchor="middle" x="334.5" y="-102.8" font-family="Helvetica,sans-Serif" font-size="14.00">Gimli leaves the mountains</text>
</g>
<!-- n10&#45;&gt;n9 -->
<g id="edge12" class="edge">
<title>n10&#45;&gt;n9</title>
<path fill="none" stroke="#000000" stroke-width="3" d="M334.5,-98.77C334.5,-86.49 334.5,-59.89 334.5,-40.14"/>
<polygon fill="#000000" stroke="#000000" stroke-width="3" points="338,-40.01 334.5,-30.01 331,-40.01 338,-40.01"/>
<text text-anchor="middle" x="346" y="-60.8" font-family="Helvetica,sans-Serif" font-size="14.00">e11</text>
</g>
<!-- n11 -->
<g id="node12" class="node">
<title>n11</title>
<text text-anchor="middle" x="545.5" y="-102.8" font-family="Helvetica,sans-Serif" font-size="14.00">Legolas travels from Mirkwood</text>
</g>
<!-- n11&#45;&gt;n9 -->
<g id="edge13" class="edge">
<title>n11&#45;&gt;n9</title>
<path fill="none" stroke="#000000" stroke-width="3" d="M529.98,-98.92C498.11,-85.4 424.29,-54.08 377.04,-34.04"/>
<polygon fill="#000000" stroke="#000000" stroke-width="3" points="378.24,-30.75 367.67,-30.07 375.51,-37.2 378.24,-30.75"/>
<text text-anchor="middle" x="476" y="-60.8" font-family="Helvetica,sans-Serif" font-size="14.00">e12</text>
</g>
<!-- n12 -->
<g id="node13" class="node">
<title>n12</title>
<text text-anchor="middle" x="791.5" y="-102.8" font-family="Helvetica,sans-Serif" font-size="14.00">Boromir seeks the sword that is broken</text>
</g>
<!-- n12&#45;&gt;n9 -->
<g id="edge14" class="edge">
<title>n12&#45;&gt;n9</title>
<path fill="none" stroke="#000000" stroke-width="3" d="M758.27,-98.99C687,-85.04 517.73,-51.89 416.01,-31.96"/>
<polygon fill="#000000" stroke="#000000" stroke-width="3" points="416.56,-28.5 406.07,-30.02 415.21,-35.37 416.56,-28.5"/>
<text text-anchor="middle" x="628" y="-60.8" font-family="Helvetica,sans-Serif" font-size="14.00">e13</text>
</g>
<!-- n13 -->
<g id="node14" class="node">
<title>n13</title>
<text text-anchor="middle" x="791.5" y="-201.8" font-family="Helvetica,sans-Serif" font-size="14.00">Boromir fights in the battle for</text>
<text text-anchor="middle" x="791.5" y="-186.8" font-family="Helvetica,sans-Serif" font-size="14.00">Osgiliath</text>
</g>
<!-- n13&#45;&gt;n12 -->
<g id="edge15" class="edge">
<title>n13&#45;&gt;n12</title>
<path fill="none" stroke="#000000" stroke-width="3" d="M791.5,-182.62C791.5,-166.72 791.5,-141.14 791.5,-124.32"/>
<polygon fill="#000000" stroke="#000000" stroke-width="3" points="795,-124.31 791.5,-114.31 788,-124.31 795,-124.31"/>
<text text-anchor="middle" x="803" y="-144.8" font-family="Helvetica,sans-Serif" font-size="14.00">e14</text>
</g>
</g>
</svg>
