<?xml version="1.0" encoding="UTF-8" standalone="no"?>
<!DOCTYPE svg PUBLIC "-//W3C//DTD SVG 1.1//EN"
 "http://www.w3.org/Graphics/SVG/1.1/DTD/svg11.dtd">
<!-- Generated by graphviz version 2.49.0 (20210828.1703)
 -->
<!-- Pages: 1 -->
<svg width="1238pt" height="836pt"
 viewBox="0.00 0.00 1238.00 836.00" xmlns="http://www.w3.org/2000/svg" xmlns:xlink="http://www.w3.org/1999/xlink">
<g id="graph0" class="graph" transform="scale(1 1) rotate(0) translate(4 832)">
<polygon fill="white" stroke="transparent" points="-4,4 -4,-832 1234,-832 1234,4 -4,4"/>
<!-- n0 -->
<g id="node1" class="node">
<title>n0</title>
<path fill="#f8f8fa" stroke="#485478" stroke-width="3" d="M240,-828C240,-828 12,-828 12,-828 6,-828 0,-822 0,-816 0,-816 0,-768 0,-768 0,-762 6,-756 12,-756 12,-756 240,-756 240,-756 246,-756 252,-762 252,-768 252,-768 252,-816 252,-816 252,-822 246,-828 240,-828"/>
<text text-anchor="middle" x="126" y="-788.3" font-family="Helvetica,sans-Serif" font-size="14.00" fill="#242d48">Gandalf comes to the shire</text>
</g>
<!-- n1 -->
<g id="node2" class="node">
<title>n1</title>
<path fill="#f8f8fa" stroke="#485478" stroke-width="3" d="M330,-702C330,-702 102,-702 102,-702 96,-702 90,-696 90,-690 90,-690 90,-642 90,-642 90,-636 96,-630 102,-630 102,-630 330,-630 330,-630 336,-630 342,-636 342,-642 342,-642 342,-690 342,-690 342,-696 336,-702 330,-702"/>
<text text-anchor="middle" x="216" y="-662.3" font-family="Helvetica,sans-Serif" font-size="14.00" fill="#242d48">Frodo departs with the ring</text>
</g>
<!-- n0&#45;&gt;n1 -->
<g id="edge1" class="edge">
<title>n0&#45;&gt;n1</title>
<path fill="none" stroke="#485478" stroke-width="3" d="M151.55,-755.8C161.72,-741.79 173.52,-725.53 184.23,-710.77"/>
<polygon fill="#485478" stroke="#485478" stroke-width="3" points="187.35,-712.44 190.39,-702.29 181.68,-708.33 187.35,-712.44"/>
</g>
<!-- n9 -->
<g id="node10" class="node">
<title>n9</title>
<path fill="#f8f8fa" stroke="#485478" stroke-width="3" d="M742.5,-72C742.5,-72 301.5,-72 301.5,-72 295.5,-72 289.5,-66 289.5,-60 289.5,-60 289.5,-12 289.5,-12 289.5,-6 295.5,0 301.5,0 301.5,0 742.5,0 742.5,0 748.5,0 754.5,-6 754.5,-12 754.5,-12 754.5,-60 754.5,-60 754.5,-66 748.5,-72 742.5,-72"/>
<text text-anchor="middle" x="522" y="-32.3" font-family="Helvetica,sans-Serif" font-size="14.00" fill="#242d48">the fellowship meets at Rivendell &quot;one does not simply walk into mordor&quot;</text>
</g>
<!-- n0&#45;&gt;n9 -->
<g id="edge11" class="edge">
<title>n0&#45;&gt;n9</title>
<path fill="none" stroke="#485478" stroke-width="3" d="M100.92,-755.58C90.7,-739.79 79.55,-720.59 72,-702 44.38,-633.97 35,-614.42 35,-541 35,-541 35,-541 35,-287 35,-211.38 33.27,-176 90,-126 120.09,-99.48 197.87,-79.77 279.29,-65.73"/>
<polygon fill="#485478" stroke="#485478" stroke-width="3" points="279.96,-69.16 289.23,-64.04 278.79,-62.26 279.96,-69.16"/>
</g>
<!-- n2 -->
<g id="node3" class="node">
<title>n2</title>
<path fill="#f8f8fa" stroke="#485478" stroke-width="3" d="M483,-576C483,-576 255,-576 255,-576 249,-576 243,-570 243,-564 243,-564 243,-516 243,-516 243,-510 249,-504 255,-504 255,-504 483,-504 483,-504 489,-504 495,-510 495,-516 495,-516 495,-564 495,-564 495,-570 489,-576 483,-576"/>
<text text-anchor="middle" x="369" y="-536.3" font-family="Helvetica,sans-Serif" font-size="14.00" fill="#242d48">the inn at Bree</text>
</g>
<!-- n1&#45;&gt;n2 -->
<g id="edge2" class="edge">
<title>n1&#45;&gt;n2</title>
<path fill="none" stroke="#485478" stroke-width="3" d="M259.43,-629.8C277.6,-615.08 298.85,-597.86 317.77,-582.52"/>
<polygon fill="#485478" stroke="#485478" stroke-width="3" points="320.16,-585.09 325.72,-576.07 315.75,-579.65 320.16,-585.09"/>
</g>
<!-- n3 -->
<g id="node4" class="node">
<title>n3</title>
<path fill="#f8f8fa" stroke="#485478" stroke-width="3" d="M636,-450C636,-450 408,-450 408,-450 402,-450 396,-444 396,-438 396,-438 396,-390 396,-390 396,-384 402,-378 408,-378 408,-378 636,-378 636,-378 642,-378 648,-384 648,-390 648,-390 648,-438 648,-438 648,-444 642,-450 636,-450"/>
<text text-anchor="middle" x="522" y="-410.3" font-family="Helvetica,sans-Serif" font-size="14.00" fill="#242d48">the hobbits escape with Aragorn</text>
</g>
<!-- n2&#45;&gt;n3 -->
<g id="edge3" class="edge">
<title>n2&#45;&gt;n3</title>
<path fill="none" stroke="#485478" stroke-width="3" d="M412.43,-503.8C430.6,-489.08 451.85,-471.86 470.77,-456.52"/>
<polygon fill="#485478" stroke="#485478" stroke-width="3" points="473.16,-459.09 478.72,-450.07 468.75,-453.65 473.16,-459.09"/>
</g>
<!-- n6 -->
<g id="node7" class="node">
<title>n6</title>
<path fill="#f8f8fa" stroke="#485478" stroke-width="3" d="M348,-450C348,-450 120,-450 120,-450 114,-450 108,-444 108,-438 108,-438 108,-390 108,-390 108,-384 114,-378 120,-378 120,-378 348,-378 348,-378 354,-378 360,-384 360,-390 360,-390 360,-438 360,-438 360,-444 354,-450 348,-450"/>
<text text-anchor="middle" x="234" y="-410.3" font-family="Helvetica,sans-Serif" font-size="14.00" fill="#242d48">the Nazghuls move to Weathertop</text>
</g>
<!-- n2&#45;&gt;n6 -->
<g id="edge6" class="edge">
<title>n2&#45;&gt;n6</title>
<path fill="none" stroke="#485478" stroke-width="3" d="M330.68,-503.8C314.86,-489.27 296.39,-472.31 279.86,-457.13"/>
<polygon fill="#485478" stroke="#485478" stroke-width="3" points="282.15,-454.48 272.42,-450.29 277.42,-459.63 282.15,-454.48"/>
</g>
<!-- n4 -->
<g id="node5" class="node">
<title>n4</title>
<path fill="#f8f8fa" stroke="#485478" stroke-width="3" d="M403.5,-324C403.5,-324 102.5,-324 102.5,-324 96.5,-324 90.5,-318 90.5,-312 90.5,-312 90.5,-264 90.5,-264 90.5,-258 96.5,-252 102.5,-252 102.5,-252 403.5,-252 403.5,-252 409.5,-252 415.5,-258 415.5,-264 415.5,-264 415.5,-312 415.5,-312 415.5,-318 409.5,-324 403.5,-324"/>
<text text-anchor="middle" x="253" y="-284.3" font-family="Helvetica,sans-Serif" font-size="14.00" fill="#242d48">nazghuls catch up at Weathertop; Frodo is injured</text>
</g>
<!-- n3&#45;&gt;n4 -->
<g id="edge4" class="edge">
<title>n3&#45;&gt;n4</title>
<path fill="none" stroke="#485478" stroke-width="3" d="M445.99,-377.96C412.48,-362.51 372.94,-344.29 338.41,-328.37"/>
<polygon fill="#485478" stroke="#485478" stroke-width="3" points="339.83,-325.17 329.28,-324.16 336.9,-331.53 339.83,-325.17"/>
</g>
<!-- n8 -->
<g id="node9" class="node">
<title>n8</title>
<path fill="#f8f8fa" stroke="#485478" stroke-width="3" d="M348,-198C348,-198 120,-198 120,-198 114,-198 108,-192 108,-186 108,-186 108,-138 108,-138 108,-132 114,-126 120,-126 120,-126 348,-126 348,-126 354,-126 360,-132 360,-138 360,-138 360,-186 360,-186 360,-192 354,-198 348,-198"/>
<text text-anchor="middle" x="234" y="-158.3" font-family="Helvetica,sans-Serif" font-size="14.00" fill="#242d48">flight to the ford</text>
</g>
<!-- n4&#45;&gt;n8 -->
<g id="edge9" class="edge">
<title>n4&#45;&gt;n8</title>
<path fill="none" stroke="#485478" stroke-width="3" d="M247.61,-251.8C245.54,-238.32 243.15,-222.74 240.96,-208.43"/>
<polygon fill="#485478" stroke="#485478" stroke-width="3" points="244.38,-207.64 239.41,-198.29 237.46,-208.7 244.38,-207.64"/>
</g>
<!-- n5 -->
<g id="node6" class="node">
<title>n5</title>
<path fill="#f8f8fa" stroke="#485478" stroke-width="3" d="M618,-702C618,-702 390,-702 390,-702 384,-702 378,-696 378,-690 378,-690 378,-642 378,-642 378,-636 384,-630 390,-630 390,-630 618,-630 618,-630 624,-630 630,-636 630,-642 630,-642 630,-690 630,-690 630,-696 624,-702 618,-702"/>
<text text-anchor="middle" x="504" y="-662.3" font-family="Helvetica,sans-Serif" font-size="14.00" fill="#242d48">Nazghuls move to Bree</text>
</g>
<!-- n5&#45;&gt;n2 -->
<g id="edge5" class="edge">
<title>n5&#45;&gt;n2</title>
<path fill="none" stroke="#485478" stroke-width="3" d="M465.68,-629.8C449.86,-615.27 431.39,-598.31 414.86,-583.13"/>
<polygon fill="#485478" stroke="#485478" stroke-width="3" points="417.15,-580.48 407.42,-576.29 412.42,-585.63 417.15,-580.48"/>
</g>
<!-- n6&#45;&gt;n4 -->
<g id="edge7" class="edge">
<title>n6&#45;&gt;n4</title>
<path fill="none" stroke="#485478" stroke-width="3" d="M239.39,-377.8C241.46,-364.32 243.85,-348.74 246.04,-334.43"/>
<polygon fill="#485478" stroke="#485478" stroke-width="3" points="249.54,-334.7 247.59,-324.29 242.62,-333.64 249.54,-334.7"/>
</g>
<!-- n7 -->
<g id="node8" class="node">
<title>n7</title>
<path fill="#f8f8fa" stroke="#485478" stroke-width="3" d="M618,-828C618,-828 390,-828 390,-828 384,-828 378,-822 378,-816 378,-816 378,-768 378,-768 378,-762 384,-756 390,-756 390,-756 618,-756 618,-756 624,-756 630,-762 630,-768 630,-768 630,-816 630,-816 630,-822 624,-828 618,-828"/>
<text text-anchor="middle" x="504" y="-788.3" font-family="Helvetica,sans-Serif" font-size="14.00" fill="#242d48">Nazghuls dispatched from Mordor</text>
</g>
<!-- n7&#45;&gt;n5 -->
<g id="edge8" class="edge">
<title>n7&#45;&gt;n5</title>
<path fill="none" stroke="#485478" stroke-width="3" d="M504,-755.8C504,-742.32 504,-726.74 504,-712.43"/>
<polygon fill="#485478" stroke="#485478" stroke-width="3" points="507.5,-712.29 504,-702.29 500.5,-712.29 507.5,-712.29"/>
</g>
<!-- n8&#45;&gt;n9 -->
<g id="edge10" class="edge">
<title>n8&#45;&gt;n9</title>
<path fill="none" stroke="#485478" stroke-width="3" d="M315.37,-125.96C351.41,-110.45 393.94,-92.14 431.02,-76.17"/>
<polygon fill="#485478" stroke="#485478" stroke-width="3" points="432.53,-79.33 440.33,-72.16 429.76,-72.9 432.53,-79.33"/>
</g>
<!-- n10 -->
<g id="node11" class="node">
<title>n10</title>
<path fill="#f8f8fa" stroke="#485478" stroke-width="3" d="M636,-198C636,-198 408,-198 408,-198 402,-198 396,-192 396,-186 396,-186 396,-138 396,-138 396,-132 402,-126 408,-126 408,-126 636,-126 636,-126 642,-126 648,-132 648,-138 648,-138 648,-186 648,-186 648,-192 642,-198 636,-198"/>
<text text-anchor="middle" x="522" y="-158.3" font-family="Helvetica,sans-Serif" font-size="14.00" fill="#242d48">Gimli leaves the mountains</text>
</g>
<!-- n10&#45;&gt;n9 -->
<g id="edge12" class="edge">
<title>n10&#45;&gt;n9</title>
<path fill="none" stroke="#485478" stroke-width="3" d="M522,-125.8C522,-112.32 522,-96.74 522,-82.43"/>
<polygon fill="#485478" stroke="#485478" stroke-width="3" points="525.5,-82.29 522,-72.29 518.5,-82.29 525.5,-82.29"/>
</g>
<!-- n11 -->
<g id="node12" class="node">
<title>n11</title>
<path fill="#f8f8fa" stroke="#485478" stroke-width="3" d="M924,-198C924,-198 696,-198 696,-198 690,-198 684,-192 684,-186 684,-186 684,-138 684,-138 684,-132 690,-126 696,-126 696,-126 924,-126 924,-126 930,-126 936,-132 936,-138 936,-138 936,-186 936,-186 936,-192 930,-198 924,-198"/>
<text text-anchor="middle" x="810" y="-158.3" font-family="Helvetica,sans-Serif" font-size="14.00" fill="#242d48">Legolas travels from Mirkwood</text>
</g>
<!-- n11&#45;&gt;n9 -->
<g id="edge13" class="edge">
<title>n11&#45;&gt;n9</title>
<path fill="none" stroke="#485478" stroke-width="3" d="M728.63,-125.96C692.59,-110.45 650.06,-92.14 612.98,-76.17"/>
<polygon fill="#485478" stroke="#485478" stroke-width="3" points="614.24,-72.9 603.67,-72.16 611.47,-79.33 614.24,-72.9"/>
</g>
<!-- n12 -->
<g id="node13" class="node">
<title>n12</title>
<path fill="#f8f8fa" stroke="#485478" stroke-width="3" d="M1218,-198C1218,-198 984,-198 984,-198 978,-198 972,-192 972,-186 972,-186 972,-138 972,-138 972,-132 978,-126 984,-126 984,-126 1218,-126 1218,-126 1224,-126 1230,-132 1230,-138 1230,-138 1230,-186 1230,-186 1230,-192 1224,-198 1218,-198"/>
<text text-anchor="middle" x="1101" y="-158.3" font-family="Helvetica,sans-Serif" font-size="14.00" fill="#242d48">Boromir seeks the sword that is broken</text>
</g>
<!-- n12&#45;&gt;n9 -->
<g id="edge14" class="edge">
<title>n12&#45;&gt;n9</title>
<path fill="none" stroke="#485478" stroke-width="3" d="M971.99,-130.05C965.91,-128.66 959.89,-127.31 954,-126 873.69,-108.17 784.71,-89.63 708.48,-74.12"/>
<polygon fill="#485478" stroke="#485478" stroke-width="3" points="708.79,-70.61 698.29,-72.05 707.39,-77.47 708.79,-70.61"/>
</g>
<!-- n13 -->
<g id="node14" class="node">
<title>n13</title>
<path fill="#ffdd99" stroke="#000000" stroke-width="3" d="M1218,-324C1218,-324 984,-324 984,-324 978,-324 972,-318 972,-312 972,-312 972,-264 972,-264 972,-258 978,-252 984,-252 984,-252 1218,-252 1218,-252 1224,-252 1230,-258 1230,-264 1230,-264 1230,-312 1230,-312 1230,-318 1224,-324 1218,-324"/>
<text text-anchor="middle" x="1101" y="-284.3" font-family="Helvetica,sans-Serif" font-size="14.00" fill="#242d48">Boromir fights in the battle for Osgiliath</text>
</g>
<!-- n13&#45;&gt;n12 -->
<g id="edge15" class="edge">
<title>n13&#45;&gt;n12</title>
<path fill="none" stroke="#485478" stroke-width="3" d="M1101,-251.8C1101,-238.32 1101,-222.74 1101,-208.43"/>
<polygon fill="#485478" stroke="#485478" stroke-width="3" points="1104.5,-208.29 1101,-198.29 1097.5,-208.29 1104.5,-208.29"/>
</g>
</g>
</svg>
