<?xml version="1.0" encoding="UTF-8" standalone="no"?>
<!DOCTYPE svg PUBLIC "-//W3C//DTD SVG 1.1//EN"
 "http://www.w3.org/Graphics/SVG/1.1/DTD/svg11.dtd">
<!-- Generated by graphviz version 5.0.0 (20220707.1540)
 -->
<!-- Pages: 1 -->
<svg width="1404pt" height="674pt"
 viewBox="0.00 0.00 1404.00 674.00" xmlns="http://www.w3.org/2000/svg" xmlns:xlink="http://www.w3.org/1999/xlink">
<g id="graph0" class="graph" transform="scale(1 1) rotate(0) translate(4 670)">
<polygon fill="white" stroke="transparent" points="-4,4 -4,-670 1400,-670 1400,4 -4,4"/>
<!-- n0 -->
<g id="node1" class="node">
<title>n0</title>
<polygon fill="#ffffff" stroke="black" points="288,-666 0,-666 0,-630 288,-630 288,-666"/>
<text text-anchor="start" x="53" y="-644.8" font-family="Helvetica,sans-Serif" font-size="10.00">n0</text>
<text text-anchor="start" x="64" y="-644.8" font-family="Helvetica,sans-Serif" font-size="14.00">: Gandalf comes to the shire</text>
</g>
<!-- n1 -->
<g id="node2" class="node">
<title>n1</title>
<polygon fill="#ffffff" stroke="black" points="422,-561 134,-561 134,-525 422,-525 422,-561"/>
<text text-anchor="start" x="188" y="-539.8" font-family="Helvetica,sans-Serif" font-size="10.00">n1</text>
<text text-anchor="start" x="199" y="-539.8" font-family="Helvetica,sans-Serif" font-size="14.00">: Frodo departs with the ring</text>
</g>
<!-- n0&#45;&gt;n1 -->
<g id="edge1" class="edge">
<title>n0&#45;&gt;n1</title>
<path fill="none" stroke="#000000" stroke-width="3" d="M166.13,-629.99C188.43,-612.85 223.02,-586.26 247.83,-567.19"/>
<polygon fill="#000000" stroke="#000000" stroke-width="3" points="250.04,-569.9 255.84,-561.03 245.78,-564.35 250.04,-569.9"/>
<text text-anchor="middle" x="228" y="-591.8" font-family="Helvetica,sans-Serif" font-size="14.00">e0</text>
</g>
<!-- n9 -->
<g id="node10" class="node">
<title>n9</title>
<polygon fill="#ffffff" stroke="black" points="748,-36 460,-36 460,0 748,0 748,-36"/>
<text text-anchor="start" x="480" y="-21.8" font-family="Helvetica,sans-Serif" font-size="10.00">n9</text>
<text text-anchor="start" x="491" y="-21.8" font-family="Helvetica,sans-Serif" font-size="14.00">: the fellowship meets at Rivendell &quot;one</text>
<text text-anchor="start" x="502" y="-7.8" font-family="Helvetica,sans-Serif" font-size="14.00">does not simply walk into mordor&quot;</text>
</g>
<!-- n0&#45;&gt;n9 -->
<g id="edge11" class="edge">
<title>n0&#45;&gt;n9</title>
<path fill="none" stroke="#000000" stroke-width="3" d="M124.5,-629.74C105.35,-610.8 79,-578.47 79,-544 79,-544 79,-544 79,-122 79,-45.77 294.84,-24.95 449.74,-19.82"/>
<polygon fill="#000000" stroke="#000000" stroke-width="3" points="449.96,-23.32 459.85,-19.51 449.74,-16.32 449.96,-23.32"/>
<text text-anchor="middle" x="90.5" y="-329.3" font-family="Helvetica,sans-Serif" font-size="14.00">e10</text>
</g>
<!-- n2 -->
<g id="node3" class="node">
<title>n2</title>
<polygon fill="#ffffff" stroke="black" points="544,-456 256,-456 256,-420 544,-420 544,-456"/>
<text text-anchor="start" x="347" y="-434.8" font-family="Helvetica,sans-Serif" font-size="10.00">n2</text>
<text text-anchor="start" x="358" y="-434.8" font-family="Helvetica,sans-Serif" font-size="14.00">: the inn at Bree</text>
</g>
<!-- n1&#45;&gt;n2 -->
<g id="edge2" class="edge">
<title>n1&#45;&gt;n2</title>
<path fill="none" stroke="#000000" stroke-width="3" d="M298.15,-524.99C318.28,-507.99 349.4,-481.72 371.94,-462.69"/>
<polygon fill="#000000" stroke="#000000" stroke-width="3" points="374.44,-465.16 379.82,-456.03 369.93,-459.81 374.44,-465.16"/>
<text text-anchor="middle" x="355" y="-486.8" font-family="Helvetica,sans-Serif" font-size="14.00">e1</text>
</g>
<!-- n3 -->
<g id="node4" class="node">
<title>n3</title>
<polygon fill="#d0cccc" stroke="black" points="750,-351 462,-351 462,-315 750,-315 750,-351"/>
<text text-anchor="start" x="500" y="-329.8" font-family="Helvetica,sans-Serif" font-size="10.00">n3</text>
<text text-anchor="start" x="511" y="-329.8" font-family="Helvetica,sans-Serif" font-size="14.00">: the hobbits escape with Aragorn</text>
</g>
<!-- n2&#45;&gt;n3 -->
<g id="edge3" class="edge">
<title>n2&#45;&gt;n3</title>
<path fill="none" stroke="#000000" stroke-width="3" d="M434.02,-419.99C469.2,-402.4 524.27,-374.87 562.58,-355.71"/>
<polygon fill="#000000" stroke="#000000" stroke-width="3" points="564.55,-358.64 571.93,-351.03 561.42,-352.38 564.55,-358.64"/>
<text text-anchor="middle" x="523" y="-381.8" font-family="Helvetica,sans-Serif" font-size="14.00">e2</text>
</g>
<!-- n6 -->
<g id="node7" class="node">
<title>n6</title>
<polygon fill="#ffffff" stroke="black" points="426,-351 138,-351 138,-315 426,-315 426,-351"/>
<text text-anchor="start" x="170" y="-329.8" font-family="Helvetica,sans-Serif" font-size="10.00">n6</text>
<text text-anchor="start" x="181" y="-329.8" font-family="Helvetica,sans-Serif" font-size="14.00">: the Nazghuls move to Weathertop</text>
</g>
<!-- n2&#45;&gt;n6 -->
<g id="edge6" class="edge">
<title>n2&#45;&gt;n6</title>
<path fill="none" stroke="#000000" stroke-width="3" d="M380.51,-419.99C361.04,-402.99 330.94,-376.72 309.14,-357.69"/>
<polygon fill="#000000" stroke="#000000" stroke-width="3" points="311.35,-354.97 301.51,-351.03 306.75,-360.25 311.35,-354.97"/>
<text text-anchor="middle" x="357" y="-381.8" font-family="Helvetica,sans-Serif" font-size="14.00">e5</text>
</g>
<!-- n4 -->
<g id="node5" class="node">
<title>n4</title>
<polygon fill="#ffffff" stroke="black" points="426,-246 138,-246 138,-210 426,-210 426,-246"/>
<text text-anchor="start" x="153" y="-231.8" font-family="Helvetica,sans-Serif" font-size="10.00">n4</text>
<text text-anchor="start" x="164" y="-231.8" font-family="Helvetica,sans-Serif" font-size="14.00">: nazghuls catch up at Weathertop; Frodo</text>
<text text-anchor="start" x="255" y="-217.8" font-family="Helvetica,sans-Serif" font-size="14.00">is injured</text>
</g>
<!-- n3&#45;&gt;n4 -->
<g id="edge4" class="edge">
<title>n3&#45;&gt;n4</title>
<path fill="none" stroke="#000000" stroke-width="3" d="M552.5,-314.99C495.63,-296.91 405.76,-268.34 345.38,-249.15"/>
<polygon fill="#000000" stroke="#000000" stroke-width="3" points="346.17,-245.73 335.58,-246.03 344.05,-252.4 346.17,-245.73"/>
<text text-anchor="middle" x="472" y="-276.8" font-family="Helvetica,sans-Serif" font-size="14.00">e3</text>
</g>
<!-- n8 -->
<g id="node9" class="node">
<title>n8</title>
<polygon fill="#ffffff" stroke="black" points="424,-141 136,-141 136,-105 424,-105 424,-141"/>
<text text-anchor="start" x="224" y="-119.8" font-family="Helvetica,sans-Serif" font-size="10.00">n8</text>
<text text-anchor="start" x="235" y="-119.8" font-family="Helvetica,sans-Serif" font-size="14.00">: flight to the ford</text>
</g>
<!-- n4&#45;&gt;n8 -->
<g id="edge9" class="edge">
<title>n4&#45;&gt;n8</title>
<path fill="none" stroke="#000000" stroke-width="3" d="M281.67,-209.99C281.36,-194.04 280.89,-169.91 280.53,-151.27"/>
<polygon fill="#000000" stroke="#000000" stroke-width="3" points="284.02,-150.96 280.33,-141.03 277.03,-151.1 284.02,-150.96"/>
<text text-anchor="middle" x="290" y="-171.8" font-family="Helvetica,sans-Serif" font-size="14.00">e8</text>
</g>
<!-- n5 -->
<g id="node6" class="node">
<title>n5</title>
<polygon fill="#ffffff" stroke="black" points="746,-561 458,-561 458,-525 746,-525 746,-561"/>
<text text-anchor="start" x="522" y="-539.8" font-family="Helvetica,sans-Serif" font-size="10.00">n5</text>
<text text-anchor="start" x="533" y="-539.8" font-family="Helvetica,sans-Serif" font-size="14.00">: Nazghuls move to Bree</text>
</g>
<!-- n5&#45;&gt;n2 -->
<g id="edge5" class="edge">
<title>n5&#45;&gt;n2</title>
<path fill="none" stroke="#000000" stroke-width="3" d="M568.64,-524.99C534.14,-507.4 480.15,-479.87 442.58,-460.71"/>
<polygon fill="#000000" stroke="#000000" stroke-width="3" points="443.9,-457.46 433.41,-456.03 440.72,-463.69 443.9,-457.46"/>
<text text-anchor="middle" x="521" y="-486.8" font-family="Helvetica,sans-Serif" font-size="14.00">e4</text>
</g>
<!-- n6&#45;&gt;n4 -->
<g id="edge7" class="edge">
<title>n6&#45;&gt;n4</title>
<path fill="none" stroke="#000000" stroke-width="3" d="M282,-314.99C282,-299.04 282,-274.91 282,-256.27"/>
<polygon fill="#000000" stroke="#000000" stroke-width="3" points="285.5,-256.03 282,-246.03 278.5,-256.03 285.5,-256.03"/>
<text text-anchor="middle" x="290" y="-276.8" font-family="Helvetica,sans-Serif" font-size="14.00">e6</text>
</g>
<!-- n7 -->
<g id="node8" class="node">
<title>n7</title>
<polygon fill="#ffffff" stroke="black" points="746,-666 458,-666 458,-630 746,-630 746,-666"/>
<text text-anchor="start" x="491" y="-644.8" font-family="Helvetica,sans-Serif" font-size="10.00">n7</text>
<text text-anchor="start" x="502" y="-644.8" font-family="Helvetica,sans-Serif" font-size="14.00">: Nazghuls dispatched from Mordor</text>
</g>
<!-- n7&#45;&gt;n5 -->
<g id="edge8" class="edge">
<title>n7&#45;&gt;n5</title>
<path fill="none" stroke="#000000" stroke-width="3" d="M602,-629.99C602,-614.04 602,-589.91 602,-571.27"/>
<polygon fill="#000000" stroke="#000000" stroke-width="3" points="605.5,-571.03 602,-561.03 598.5,-571.03 605.5,-571.03"/>
<text text-anchor="middle" x="610" y="-591.8" font-family="Helvetica,sans-Serif" font-size="14.00">e7</text>
</g>
<!-- n8&#45;&gt;n9 -->
<g id="edge10" class="edge">
<title>n8&#45;&gt;n9</title>
<path fill="none" stroke="#000000" stroke-width="3" d="M333.5,-104.99C390.37,-86.91 480.24,-58.34 540.62,-39.15"/>
<polygon fill="#000000" stroke="#000000" stroke-width="3" points="541.95,-42.4 550.42,-36.03 539.83,-35.73 541.95,-42.4"/>
<text text-anchor="middle" x="470" y="-66.8" font-family="Helvetica,sans-Serif" font-size="14.00">e9</text>
</g>
<!-- n10 -->
<g id="node11" class="node">
<title>n10</title>
<polygon fill="#ffffff" stroke="black" points="748,-141 460,-141 460,-105 748,-105 748,-141"/>
<text text-anchor="start" x="510" y="-119.8" font-family="Helvetica,sans-Serif" font-size="10.00">n10</text>
<text text-anchor="start" x="526" y="-119.8" font-family="Helvetica,sans-Serif" font-size="14.00">: Gimli leaves the mountains</text>
</g>
<!-- n10&#45;&gt;n9 -->
<g id="edge12" class="edge">
<title>n10&#45;&gt;n9</title>
<path fill="none" stroke="#000000" stroke-width="3" d="M604,-104.99C604,-89.04 604,-64.91 604,-46.27"/>
<polygon fill="#000000" stroke="#000000" stroke-width="3" points="607.5,-46.03 604,-36.03 600.5,-46.03 607.5,-46.03"/>
<text text-anchor="middle" x="615.5" y="-66.8" font-family="Helvetica,sans-Serif" font-size="14.00">e11</text>
</g>
<!-- n11 -->
<g id="node12" class="node">
<title>n11</title>
<polygon fill="#ffffff" stroke="black" points="1072,-141 784,-141 784,-105 1072,-105 1072,-141"/>
<text text-anchor="start" x="824" y="-119.8" font-family="Helvetica,sans-Serif" font-size="10.00">n11</text>
<text text-anchor="start" x="840" y="-119.8" font-family="Helvetica,sans-Serif" font-size="14.00">: Legolas travels from Mirkwood</text>
</g>
<!-- n11&#45;&gt;n9 -->
<g id="edge13" class="edge">
<title>n11&#45;&gt;n9</title>
<path fill="none" stroke="#000000" stroke-width="3" d="M874.5,-104.99C817.63,-86.91 727.76,-58.34 667.38,-39.15"/>
<polygon fill="#000000" stroke="#000000" stroke-width="3" points="668.17,-35.73 657.58,-36.03 666.05,-42.4 668.17,-35.73"/>
<text text-anchor="middle" x="796.5" y="-66.8" font-family="Helvetica,sans-Serif" font-size="14.00">e12</text>
</g>
<!-- n12 -->
<g id="node13" class="node">
<title>n12</title>
<polygon fill="#ffffff" stroke="black" points="1396,-141 1108,-141 1108,-105 1396,-105 1396,-141"/>
<text text-anchor="start" x="1123" y="-119.8" font-family="Helvetica,sans-Serif" font-size="10.00">n12</text>
<text text-anchor="start" x="1139" y="-119.8" font-family="Helvetica,sans-Serif" font-size="14.00">: Boromir seeks the sword that is broken</text>
</g>
<!-- n12&#45;&gt;n9 -->
<g id="edge14" class="edge">
<title>n12&#45;&gt;n9</title>
<path fill="none" stroke="#000000" stroke-width="3" d="M1145,-104.99C1028.21,-86.43 841.83,-56.8 721.18,-37.63"/>
<polygon fill="#000000" stroke="#000000" stroke-width="3" points="721.59,-34.15 711.16,-36.03 720.49,-41.06 721.59,-34.15"/>
<text text-anchor="middle" x="977.5" y="-66.8" font-family="Helvetica,sans-Serif" font-size="14.00">e13</text>
</g>
<!-- n13 -->
<g id="node14" class="node">
<title>n13</title>
<polygon fill="#ffffff" stroke="black" points="1396,-246 1108,-246 1108,-210 1396,-210 1396,-246"/>
<text text-anchor="start" x="1152" y="-231.8" font-family="Helvetica,sans-Serif" font-size="10.00">n13</text>
<text text-anchor="start" x="1168" y="-231.8" font-family="Helvetica,sans-Serif" font-size="14.00">: Boromir fights in the battle for</text>
<text text-anchor="start" x="1225.5" y="-217.8" font-family="Helvetica,sans-Serif" font-size="14.00">Osgiliath</text>
</g>
<!-- n13&#45;&gt;n12 -->
<g id="edge15" class="edge">
<title>n13&#45;&gt;n12</title>
<path fill="none" stroke="#000000" stroke-width="3" d="M1252,-209.99C1252,-194.04 1252,-169.91 1252,-151.27"/>
<polygon fill="#000000" stroke="#000000" stroke-width="3" points="1255.5,-151.03 1252,-141.03 1248.5,-151.03 1255.5,-151.03"/>
<text text-anchor="middle" x="1263.5" y="-171.8" font-family="Helvetica,sans-Serif" font-size="14.00">e14</text>
</g>
</g>
</svg>
