<?xml version="1.0" encoding="UTF-8" standalone="no"?>
<!DOCTYPE svg PUBLIC "-//W3C//DTD SVG 1.1//EN"
 "http://www.w3.org/Graphics/SVG/1.1/DTD/svg11.dtd">
<!-- Generated by graphviz version 9.0.0 (20230911.1827)
 -->
<!-- Pages: 1 -->
<svg width="296pt" height="221pt"
 viewBox="0.00 0.00 296.00 221.00" xmlns="http://www.w3.org/2000/svg" xmlns:xlink="http://www.w3.org/1999/xlink">
<g id="graph0" class="graph" transform="scale(1 1) rotate(0) translate(4 217)">
<polygon fill="white" stroke="none" points="-4,4 -4,-217 292,-217 292,4 -4,4"/>
<!-- n0 -->
<g id="node1" class="node">
<title>n0</title>
<polygon fill="#ffffff" stroke="black" points="288,-213 0,-213 0,-141 288,-141 288,-213"/>
<text text-anchor="start" x="84" y="-172.2" font-family="Helvetica,sans-Serif" font-size="10.00">n0</text>
<text text-anchor="start" x="94.5" y="-172.2" font-family="Helvetica,sans-Serif" font-size="14.00">: this happens first</text>
</g>
<!-- n1 -->
<g id="node2" class="node">
<title>n1</title>
<polygon fill="#ffffff" stroke="black" points="288,-72 0,-72 0,0 288,0 288,-72"/>
<text text-anchor="start" x="68.62" y="-46.2" font-family="Helvetica,sans-Serif" font-size="10.00">n1</text>
<text text-anchor="start" x="79.12" y="-46.2" font-family="Helvetica,sans-Serif" font-size="14.00">: and then this happens</text>
<polygon fill="#fae8c8" stroke="none" points="69,-28.5 69,-43.5 165,-43.5 165,-28.5 69,-28.5"/>
<text text-anchor="start" x="95.25" y="-30.2" font-family="Helvetica,sans-Serif" font-size="14.00">#TAG1</text>
<polygon fill="#faf2d0" stroke="none" points="69,-13.5 69,-28.5 165,-28.5 165,-13.5 69,-13.5"/>
<text text-anchor="start" x="95.25" y="-15.2" font-family="Helvetica,sans-Serif" font-size="14.00">#TAG2</text>
</g>
<!-- n0&#45;&gt;n1 -->
<g id="edge1" class="edge">
<title>n0&#45;&gt;n1</title>
<path fill="none" stroke="#000000" stroke-width="3" d="M144,-140.56C144,-124.23 144,-104.55 144,-86.76"/>
<polygon fill="#000000" stroke="#000000" stroke-width="3" points="147.5,-86.91 144,-76.91 140.5,-86.91 147.5,-86.91"/>
<text text-anchor="middle" x="151.5" y="-100.7" font-family="Helvetica,sans-Serif" font-size="14.00">e0</text>
</g>
</g>
</svg>
