<?xml version="1.0" encoding="UTF-8" standalone="no"?>
<!DOCTYPE svg PUBLIC "-//W3C//DTD SVG 1.1//EN"
 "http://www.w3.org/Graphics/SVG/1.1/DTD/svg11.dtd">
<!-- Generated by graphviz version 9.0.0 (20230911.1827)
 -->
<!-- Pages: 1 -->
<svg width="188pt" height="151pt"
 viewBox="0.00 0.00 188.00 151.00" xmlns="http://www.w3.org/2000/svg" xmlns:xlink="http://www.w3.org/1999/xlink">
<g id="graph0" class="graph" transform="scale(1 1) rotate(0) translate(4 147)">
<polygon fill="white" stroke="none" points="-4,4 -4,-147 184,-147 184,4 -4,4"/>
<!-- n0 -->
<g id="node1" class="node">
<title>n0</title>
<polygon fill="#ffffff" stroke="black" points="180,-143 0,-143 0,-107 180,-107 180,-143"/>
<text text-anchor="start" x="30" y="-120.2" font-family="Helvetica,sans-Serif" font-size="10.00">n0</text>
<text text-anchor="start" x="40.5" y="-120.2" font-family="Helvetica,sans-Serif" font-size="14.00">: this happens first</text>
</g>
<!-- n1 -->
<g id="node2" class="node">
<title>n1</title>
<polygon fill="#ffffff" stroke="black" points="180,-38 0,-38 0,0 180,0 180,-38"/>
<text text-anchor="start" x="14.62" y="-21.7" font-family="Helvetica,sans-Serif" font-size="10.00">n1</text>
<text text-anchor="start" x="25.12" y="-21.7" font-family="Helvetica,sans-Serif" font-size="14.00">: and then this happens</text>
<polygon fill="#ff7f7f" stroke="none" points="15,-4 15,-19 90,-19 90,-4 15,-4"/>
<text text-anchor="start" x="30.75" y="-5.7" font-family="Helvetica,sans-Serif" font-size="14.00" fill="#000000">#TAG1</text>
<polygon fill="#e2954d" stroke="none" points="90,-4 90,-19 165,-19 165,-4 90,-4"/>
<text text-anchor="start" x="105.75" y="-5.7" font-family="Helvetica,sans-Serif" font-size="14.00" fill="#000000">#TAG2</text>
</g>
<!-- n0&#45;&gt;n1 -->
<g id="edge1" class="edge">
<title>n0&#45;&gt;n1</title>
<path fill="none" stroke="#000000" stroke-width="3" d="M90,-106.83C90,-92.12 90,-70.53 90,-52.55"/>
<polygon fill="#000000" stroke="#000000" stroke-width="3" points="93.5,-52.79 90,-42.79 86.5,-52.79 93.5,-52.79"/>
<text text-anchor="middle" x="97.5" y="-66.7" font-family="Helvetica,sans-Serif" font-size="14.00">e0</text>
</g>
</g>
</svg>
