<?xml version="1.0" encoding="UTF-8" standalone="no"?>
<!DOCTYPE svg PUBLIC "-//W3C//DTD SVG 1.1//EN"
 "http://www.w3.org/Graphics/SVG/1.1/DTD/svg11.dtd">
<!-- Generated by graphviz version 2.49.0 (20210828.1703)
 -->
<!-- Pages: 1 -->
<svg width="260pt" height="221pt"
 viewBox="0.00 0.00 260.00 221.00" xmlns="http://www.w3.org/2000/svg" xmlns:xlink="http://www.w3.org/1999/xlink">
<g id="graph0" class="graph" transform="scale(1 1) rotate(0) translate(4 217)">
<polygon fill="white" stroke="transparent" points="-4,4 -4,-217 256,-217 256,4 -4,4"/>
<!-- n0 -->
<g id="node1" class="node">
<title>n0</title>
<path fill="#f8f8fa" stroke="#485478" stroke-width="3" d="M240,-213C240,-213 12,-213 12,-213 6,-213 0,-207 0,-201 0,-201 0,-153 0,-153 0,-147 6,-141 12,-141 12,-141 240,-141 240,-141 246,-141 252,-147 252,-153 252,-153 252,-201 252,-201 252,-207 246,-213 240,-213"/>
<text text-anchor="middle" x="126" y="-173.3" font-family="Helvetica,sans-Serif" font-size="14.00" fill="#242d48">n0: a cool new node</text>
</g>
<!-- n1 -->
<g id="node2" class="node">
<title>n1</title>
<path fill="#ffdd99" stroke="#000000" stroke-width="3" d="M240,-72C240,-72 12,-72 12,-72 6,-72 0,-66 0,-60 0,-60 0,-12 0,-12 0,-6 6,0 12,0 12,0 240,0 240,0 246,0 252,-6 252,-12 252,-12 252,-60 252,-60 252,-66 246,-72 240,-72"/>
<text text-anchor="middle" x="126" y="-32.3" font-family="Helvetica,sans-Serif" font-size="14.00" fill="#242d48">n1: a new name</text>
</g>
<!-- n0&#45;&gt;n1 -->
<g id="edge1" class="edge">
<title>n0&#45;&gt;n1</title>
<path fill="none" stroke="#485478" stroke-width="3" d="M126,-140.92C126,-123.15 126,-101.35 126,-82.31"/>
<polygon fill="#485478" stroke="#485478" stroke-width="3" points="129.5,-82.06 126,-72.06 122.5,-82.06 129.5,-82.06"/>
<text text-anchor="middle" x="134" y="-102.8" font-family="Helvetica,sans-Serif" font-size="14.00">e0</text>
</g>
</g>
</svg>
