<?xml version="1.0" encoding="UTF-8" standalone="no"?>
<!DOCTYPE svg PUBLIC "-//W3C//DTD SVG 1.1//EN"
 "http://www.w3.org/Graphics/SVG/1.1/DTD/svg11.dtd">
<!-- Generated by graphviz version 3.0.0 (20220226.1711)
 -->
<!-- Pages: 1 -->
<svg width="242pt" height="259pt"
 viewBox="0.00 0.00 242.00 259.00" xmlns="http://www.w3.org/2000/svg" xmlns:xlink="http://www.w3.org/1999/xlink">
<g id="graph0" class="graph" transform="scale(1 1) rotate(0) translate(4 255)">
<polygon fill="white" stroke="transparent" points="-4,4 -4,-255 238,-255 238,4 -4,4"/>
<!-- n0 -->
<g id="node1" class="node">
<title>n0</title>
<text text-anchor="start" x="9.5" y="-236.5" font-family="Helvetica,sans-Serif" font-size="10.00">n0</text>
<text text-anchor="start" x="29" y="-234.3" font-family="Helvetica,sans-Serif" font-size="14.00">this happens first</text>
<polygon fill="#dddddd" stroke="transparent" points="5,-164.5 5,-228.5 25,-228.5 25,-164.5 5,-164.5"/>
<polygon fill="none" stroke="black" points="5,-164.5 5,-228.5 25,-228.5 25,-164.5 5,-164.5"/>
<polygon fill="none" stroke="black" points="0,-160 0,-251 234,-251 234,-160 0,-160"/>
</g>
<!-- n1 -->
<g id="node2" class="node">
<title>n1</title>
<text text-anchor="start" x="9.5" y="-76.5" font-family="Helvetica,sans-Serif" font-size="10.00">n1</text>
<text text-anchor="start" x="29" y="-74.3" font-family="Helvetica,sans-Serif" font-size="14.00">and then this happens #TAG</text>
<polygon fill="#dddddd" stroke="transparent" points="5,-4.5 5,-68.5 25,-68.5 25,-4.5 5,-4.5"/>
<polygon fill="none" stroke="black" points="5,-4.5 5,-68.5 25,-68.5 25,-4.5 5,-4.5"/>
<polygon fill="#ff7f80" stroke="transparent" points="29,-4.5 29,-43.5 148,-43.5 148,-4.5 29,-4.5"/>
<text text-anchor="start" x="70" y="-20.3" font-family="Helvetica,sans-Serif" font-size="14.00">#TAG</text>
<polygon fill="none" stroke="black" points="0,0 0,-91 234,-91 234,0 0,0"/>
</g>
<!-- n0&#45;&gt;n1 -->
<g id="edge1" class="edge">
<title>n0&#45;&gt;n1</title>
<path fill="none" stroke="#000000" stroke-width="3" d="M117,-159.65C117,-141.47 117,-120.31 117,-101.24"/>
<polygon fill="#000000" stroke="#000000" stroke-width="3" points="120.5,-101.19 117,-91.19 113.5,-101.19 120.5,-101.19"/>
<text text-anchor="middle" x="125" y="-121.8" font-family="Helvetica,sans-Serif" font-size="14.00">e0</text>
</g>
</g>
</svg>
