<?xml version="1.0" encoding="UTF-8" standalone="no"?>
<!DOCTYPE svg PUBLIC "-//W3C//DTD SVG 1.1//EN"
 "http://www.w3.org/Graphics/SVG/1.1/DTD/svg11.dtd">
<!-- Generated by graphviz version 5.0.0 (20220707.1540)
 -->
<!-- Pages: 1 -->
<svg width="296pt" height="151pt"
 viewBox="0.00 0.00 296.00 151.00" xmlns="http://www.w3.org/2000/svg" xmlns:xlink="http://www.w3.org/1999/xlink">
<g id="graph0" class="graph" transform="scale(1 1) rotate(0) translate(4 147)">
<polygon fill="white" stroke="transparent" points="-4,4 -4,-147 292,-147 292,4 -4,4"/>
<!-- n0 -->
<g id="node1" class="node">
<title>n0</title>
<polygon fill="#ffffff" stroke="black" points="288,-143 0,-143 0,-107 288,-107 288,-143"/>
<text text-anchor="start" x="84" y="-121.8" font-family="Helvetica,sans-Serif" font-size="10.00">n0</text>
<text text-anchor="start" x="95" y="-121.8" font-family="Helvetica,sans-Serif" font-size="14.00">: this happens first</text>
</g>
<!-- n1 -->
<g id="node2" class="node">
<title>n1</title>
<polygon fill="#ffffff" stroke="black" points="288,-38 0,-38 0,0 288,0 288,-38"/>
<text text-anchor="start" x="68" y="-23.8" font-family="Helvetica,sans-Serif" font-size="10.00">n1</text>
<text text-anchor="start" x="79" y="-23.8" font-family="Helvetica,sans-Serif" font-size="14.00">: and then this happens</text>
<polygon fill="#ff7f7f" stroke="transparent" points="68,-4 68,-19 144,-19 144,-4 68,-4"/>
<text text-anchor="start" x="84" y="-7.8" font-family="Helvetica,sans-Serif" font-size="14.00" fill="#000000">#TAG1</text>
<polygon fill="#e2954d" stroke="transparent" points="144,-4 144,-19 220,-19 220,-4 144,-4"/>
<text text-anchor="start" x="160" y="-7.8" font-family="Helvetica,sans-Serif" font-size="14.00" fill="#000000">#TAG2</text>
</g>
<!-- n0&#45;&gt;n1 -->
<g id="edge1" class="edge">
<title>n0&#45;&gt;n1</title>
<path fill="none" stroke="#000000" stroke-width="3" d="M144,-106.83C144,-90.93 144,-67.01 144,-48.29"/>
<polygon fill="#000000" stroke="#000000" stroke-width="3" points="147.5,-48.25 144,-38.25 140.5,-48.25 147.5,-48.25"/>
<text text-anchor="middle" x="152" y="-68.8" font-family="Helvetica,sans-Serif" font-size="14.00">e0</text>
</g>
</g>
</svg>
