<?xml version="1.0" encoding="UTF-8" standalone="no"?>
<!DOCTYPE svg PUBLIC "-//W3C//DTD SVG 1.1//EN"
 "http://www.w3.org/Graphics/SVG/1.1/DTD/svg11.dtd">
<!-- Generated by graphviz version 2.43.0 (0)
 -->
<!-- Title: %3 Pages: 1 -->
<svg width="188pt" height="149pt"
 viewBox="0.00 0.00 188.00 149.00" xmlns="http://www.w3.org/2000/svg" xmlns:xlink="http://www.w3.org/1999/xlink">
<g id="graph0" class="graph" transform="scale(1 1) rotate(0) translate(4 145)">
<title>%3</title>
<polygon fill="white" stroke="transparent" points="-4,4 -4,-145 184,-145 184,4 -4,4"/>
<!-- n0 -->
<g id="node1" class="node">
<title>n0</title>
<polygon fill="#ffffff" stroke="black" points="180,-141 0,-141 0,-105 180,-105 180,-141"/>
<text text-anchor="start" x="68" y="-119.8" font-family="Helvetica,sans-Serif" font-size="10.00">n0</text>
<text text-anchor="start" x="81" y="-119.8" font-family="Helvetica,sans-Serif" font-size="14.00">: foo</text>
</g>
<!-- n1 -->
<g id="node2" class="node">
<title>n1</title>
<polygon fill="#ffffff" stroke="black" points="180,-36 0,-36 0,0 180,0 180,-36"/>
<text text-anchor="start" x="67" y="-14.8" font-family="Helvetica,sans-Serif" font-size="10.00">n1</text>
<text text-anchor="start" x="80" y="-14.8" font-family="Helvetica,sans-Serif" font-size="14.00">: bar</text>
</g>
<!-- n0&#45;&gt;n1 -->
<g id="edge1" class="edge">
<title>n0&#45;&gt;n1</title>
<path fill="none" stroke="#000000" stroke-width="3" d="M90,-104.99C90,-89.04 90,-64.91 90,-46.27"/>
<polygon fill="#000000" stroke="#000000" stroke-width="3" points="93.5,-46.03 90,-36.03 86.5,-46.03 93.5,-46.03"/>
<text text-anchor="middle" x="99" y="-66.8" font-family="Helvetica,sans-Serif" font-size="14.00">e0</text>
</g>
</g>
</svg>
