<?xml version="1.0" encoding="UTF-8" standalone="no"?>
<!DOCTYPE svg PUBLIC "-//W3C//DTD SVG 1.1//EN"
 "http://www.w3.org/Graphics/SVG/1.1/DTD/svg11.dtd">
<!-- Generated by graphviz version 9.0.0 (20230911.1827)
 -->
<!-- Pages: 1 -->
<svg width="2795pt" height="80pt"
 viewBox="0.00 0.00 2795.00 80.00" xmlns="http://www.w3.org/2000/svg" xmlns:xlink="http://www.w3.org/1999/xlink">
<g id="graph0" class="graph" transform="scale(1 1) rotate(0) translate(4 76)">
<polygon fill="white" stroke="none" points="-4,4 -4,-76 2791,-76 2791,4 -4,4"/>
<!-- n0 -->
<g id="node1" class="node">
<title>n0</title>
<polygon fill="#ffffff" stroke="black" points="288,-72 0,-72 0,0 288,0 288,-72"/>
<text text-anchor="start" x="69.38" y="-38.7" font-family="Helvetica,sans-Serif" font-size="10.00">n0</text>
<text text-anchor="start" x="79.88" y="-38.7" font-family="Helvetica,sans-Serif" font-size="14.00">: developer writes code</text>
<polygon fill="#22aeff" stroke="none" points="69.38,-21 69.38,-36 218.62,-36 218.62,-21 69.38,-21"/>
<text text-anchor="start" x="112.5" y="-22.7" font-family="Helvetica,sans-Serif" font-size="14.00" fill="#000000">#SG_DEV</text>
</g>
<!-- n1 -->
<g id="node2" class="node">
<title>n1</title>
<polygon fill="#ffffff" stroke="black" points="645,-72 357,-72 357,0 645,0 645,-72"/>
<text text-anchor="start" x="418.12" y="-38.7" font-family="Helvetica,sans-Serif" font-size="10.00">n1</text>
<text text-anchor="start" x="428.62" y="-38.7" font-family="Helvetica,sans-Serif" font-size="14.00">: developer commits code</text>
<polygon fill="#22aeff" stroke="none" points="418.12,-21 418.12,-36 583.88,-36 583.88,-21 418.12,-21"/>
<text text-anchor="start" x="469.5" y="-22.7" font-family="Helvetica,sans-Serif" font-size="14.00" fill="#000000">#SG_DEV</text>
</g>
<!-- n0&#45;&gt;n1 -->
<g id="edge1" class="edge">
<title>n0&#45;&gt;n1</title>
<path fill="none" stroke="#000000" stroke-width="3" d="M288.37,-36C306.13,-36 324.37,-36 342.34,-36"/>
<polygon fill="#000000" stroke="#000000" stroke-width="3" points="342.13,-39.5 352.13,-36 342.13,-32.5 342.13,-39.5"/>
<text text-anchor="middle" x="322.5" y="-37.7" font-family="Helvetica,sans-Serif" font-size="14.00">e0</text>
</g>
<!-- n2 -->
<g id="node3" class="node">
<title>n2</title>
<polygon fill="#ffffff" stroke="black" points="1002,-72 714,-72 714,0 1002,0 1002,-72"/>
<text text-anchor="start" x="788.25" y="-38.7" font-family="Helvetica,sans-Serif" font-size="10.00">n2</text>
<text text-anchor="start" x="798.75" y="-38.7" font-family="Helvetica,sans-Serif" font-size="14.00">: developer raises PR</text>
<polygon fill="#22aeff" stroke="none" points="788.25,-21 788.25,-36 927.75,-36 927.75,-21 788.25,-21"/>
<text text-anchor="start" x="826.5" y="-22.7" font-family="Helvetica,sans-Serif" font-size="14.00" fill="#000000">#SG_DEV</text>
</g>
<!-- n1&#45;&gt;n2 -->
<g id="edge2" class="edge">
<title>n1&#45;&gt;n2</title>
<path fill="none" stroke="#000000" stroke-width="3" d="M645.37,-36C663.13,-36 681.37,-36 699.34,-36"/>
<polygon fill="#000000" stroke="#000000" stroke-width="3" points="699.13,-39.5 709.13,-36 699.13,-32.5 699.13,-39.5"/>
<text text-anchor="middle" x="679.5" y="-37.7" font-family="Helvetica,sans-Serif" font-size="14.00">e1</text>
</g>
<!-- n3 -->
<g id="node4" class="node">
<title>n3</title>
<polygon fill="#ffffff" stroke="black" points="1359,-72 1071,-72 1071,0 1359,0 1359,-72"/>
<text text-anchor="start" x="1136.62" y="-38.7" font-family="Helvetica,sans-Serif" font-size="10.00">n3</text>
<text text-anchor="start" x="1147.12" y="-38.7" font-family="Helvetica,sans-Serif" font-size="14.00">: developer2 reviews PR</text>
<polygon fill="#22aeff" stroke="none" points="1136.62,-21 1136.62,-36 1293.38,-36 1293.38,-21 1136.62,-21"/>
<text text-anchor="start" x="1183.5" y="-22.7" font-family="Helvetica,sans-Serif" font-size="14.00" fill="#000000">#SG_DEV</text>
</g>
<!-- n2&#45;&gt;n3 -->
<g id="edge3" class="edge">
<title>n2&#45;&gt;n3</title>
<path fill="none" stroke="#000000" stroke-width="3" d="M1002.37,-36C1020.13,-36 1038.37,-36 1056.34,-36"/>
<polygon fill="#000000" stroke="#000000" stroke-width="3" points="1056.13,-39.5 1066.13,-36 1056.13,-32.5 1056.13,-39.5"/>
<text text-anchor="middle" x="1036.5" y="-37.7" font-family="Helvetica,sans-Serif" font-size="14.00">e2</text>
</g>
<!-- n4 -->
<g id="node5" class="node">
<title>n4</title>
<polygon fill="#ffffff" stroke="black" points="1716,-72 1428,-72 1428,0 1716,0 1716,-72"/>
<text text-anchor="start" x="1447.88" y="-45.2" font-family="Helvetica,sans-Serif" font-size="10.00">n4</text>
<text text-anchor="start" x="1458.38" y="-45.2" font-family="Helvetica,sans-Serif" font-size="14.00">: tester installs PR branch code into dev</text>
<text text-anchor="start" x="1534.5" y="-31.2" font-family="Helvetica,sans-Serif" font-size="14.00">environment</text>
<polygon fill="#aaab43" stroke="none" points="1447.88,-14.5 1447.88,-29.5 1696.12,-29.5 1696.12,-14.5 1447.88,-14.5"/>
<text text-anchor="start" x="1537.12" y="-16.2" font-family="Helvetica,sans-Serif" font-size="14.00" fill="#000000">#SG_TEST</text>
</g>
<!-- n3&#45;&gt;n4 -->
<g id="edge4" class="edge">
<title>n3&#45;&gt;n4</title>
<path fill="none" stroke="#000000" stroke-width="3" d="M1359.37,-36C1377.13,-36 1395.37,-36 1413.34,-36"/>
<polygon fill="#000000" stroke="#000000" stroke-width="3" points="1413.13,-39.5 1423.13,-36 1413.13,-32.5 1413.13,-39.5"/>
<text text-anchor="middle" x="1393.5" y="-37.7" font-family="Helvetica,sans-Serif" font-size="14.00">e3</text>
</g>
<!-- n5 -->
<g id="node6" class="node">
<title>n5</title>
<polygon fill="#ffffff" stroke="black" points="2073,-72 1785,-72 1785,0 2073,0 2073,-72"/>
<text text-anchor="start" x="1836.75" y="-38.7" font-family="Helvetica,sans-Serif" font-size="10.00">n5</text>
<text text-anchor="start" x="1847.25" y="-38.7" font-family="Helvetica,sans-Serif" font-size="14.00">: tester tests PR branch code</text>
<polygon fill="#aaab43" stroke="none" points="1836.75,-21 1836.75,-36 2021.25,-36 2021.25,-21 1836.75,-21"/>
<text text-anchor="start" x="1894.12" y="-22.7" font-family="Helvetica,sans-Serif" font-size="14.00" fill="#000000">#SG_TEST</text>
</g>
<!-- n4&#45;&gt;n5 -->
<g id="edge5" class="edge">
<title>n4&#45;&gt;n5</title>
<path fill="none" stroke="#000000" stroke-width="3" d="M1716.37,-36C1734.13,-36 1752.37,-36 1770.34,-36"/>
<polygon fill="#000000" stroke="#000000" stroke-width="3" points="1770.13,-39.5 1780.13,-36 1770.13,-32.5 1770.13,-39.5"/>
<text text-anchor="middle" x="1750.5" y="-37.7" font-family="Helvetica,sans-Serif" font-size="14.00">e4</text>
</g>
<!-- n6 -->
<g id="node7" class="node">
<title>n6</title>
<polygon fill="#ffffff" stroke="black" points="2430,-72 2142,-72 2142,0 2430,0 2430,-72"/>
<text text-anchor="start" x="2219.25" y="-38.7" font-family="Helvetica,sans-Serif" font-size="10.00">n6</text>
<text text-anchor="start" x="2229.75" y="-38.7" font-family="Helvetica,sans-Serif" font-size="14.00">: tester approves PR</text>
<polygon fill="#aaab43" stroke="none" points="2219.25,-21 2219.25,-36 2352.75,-36 2352.75,-21 2219.25,-21"/>
<text text-anchor="start" x="2251.12" y="-22.7" font-family="Helvetica,sans-Serif" font-size="14.00" fill="#000000">#SG_TEST</text>
</g>
<!-- n5&#45;&gt;n6 -->
<g id="edge6" class="edge">
<title>n5&#45;&gt;n6</title>
<path fill="none" stroke="#000000" stroke-width="3" d="M2073.37,-36C2091.13,-36 2109.37,-36 2127.34,-36"/>
<polygon fill="#000000" stroke="#000000" stroke-width="3" points="2127.13,-39.5 2137.13,-36 2127.13,-32.5 2127.13,-39.5"/>
<text text-anchor="middle" x="2107.5" y="-37.7" font-family="Helvetica,sans-Serif" font-size="14.00">e5</text>
</g>
<!-- n7 -->
<g id="node8" class="node">
<title>n7</title>
<polygon fill="#ffffff" stroke="black" points="2787,-72 2499,-72 2499,0 2787,0 2787,-72"/>
<text text-anchor="start" x="2568.38" y="-38.7" font-family="Helvetica,sans-Serif" font-size="10.00">n7</text>
<text text-anchor="start" x="2578.88" y="-38.7" font-family="Helvetica,sans-Serif" font-size="14.00">: developer merges PR</text>
<polygon fill="#22aeff" stroke="none" points="2568.38,-21 2568.38,-36 2717.62,-36 2717.62,-21 2568.38,-21"/>
<text text-anchor="start" x="2611.5" y="-22.7" font-family="Helvetica,sans-Serif" font-size="14.00" fill="#000000">#SG_DEV</text>
</g>
<!-- n6&#45;&gt;n7 -->
<g id="edge7" class="edge">
<title>n6&#45;&gt;n7</title>
<path fill="none" stroke="#000000" stroke-width="3" d="M2430.37,-36C2448.13,-36 2466.37,-36 2484.34,-36"/>
<polygon fill="#000000" stroke="#000000" stroke-width="3" points="2484.13,-39.5 2494.13,-36 2484.13,-32.5 2484.13,-39.5"/>
<text text-anchor="middle" x="2464.5" y="-37.7" font-family="Helvetica,sans-Serif" font-size="14.00">e6</text>
</g>
</g>
</svg>
