<?xml version="1.0" encoding="UTF-8" standalone="no"?>
<!DOCTYPE svg PUBLIC "-//W3C//DTD SVG 1.1//EN"
 "http://www.w3.org/Graphics/SVG/1.1/DTD/svg11.dtd">
<!-- Generated by graphviz version 9.0.0 (20230911.1827)
 -->
<!-- Pages: 1 -->
<svg width="652pt" height="723pt"
 viewBox="0.00 0.00 652.00 723.00" xmlns="http://www.w3.org/2000/svg" xmlns:xlink="http://www.w3.org/1999/xlink">
<g id="graph0" class="graph" transform="scale(1 1) rotate(0) translate(4 719)">
<polygon fill="white" stroke="none" points="-4,4 -4,-719 648,-719 648,4 -4,4"/>
<g id="clust1" class="cluster">
<title>cluster_INIT</title>
<polygon fill="#ceb1c2" stroke="black" points="204,-455 204,-707 508,-707 508,-455 204,-455"/>
<text text-anchor="middle" x="356" y="-689.7" font-family="Helvetica,sans-Serif" font-size="14.00">INIT</text>
</g>
<g id="clust2" class="cluster">
<title>cluster_SLOW</title>
<polygon fill="#b1b8ce" stroke="black" points="332,-302 332,-413 636,-413 636,-302 332,-302"/>
<text text-anchor="middle" x="484" y="-395.7" font-family="Helvetica,sans-Serif" font-size="14.00">SLOW</text>
</g>
<g id="clust3" class="cluster">
<title>cluster_FAST</title>
<polygon fill="#b1cec9" stroke="black" points="8,-161 8,-413 312,-413 312,-161 8,-161"/>
<text text-anchor="middle" x="160" y="-395.7" font-family="Helvetica,sans-Serif" font-size="14.00">FAST</text>
</g>
<g id="clust4" class="cluster">
<title>cluster_END</title>
<polygon fill="#b1c9ce" stroke="black" points="201,-8 201,-119 505,-119 505,-8 201,-8"/>
<text text-anchor="middle" x="353" y="-101.7" font-family="Helvetica,sans-Serif" font-size="14.00">END</text>
</g>
<!-- n0 -->
<g id="node1" class="node">
<title>n0</title>
<polygon fill="#ffffff" stroke="black" points="500,-676 212,-676 212,-604 500,-604 500,-676"/>
<text text-anchor="start" x="316.25" y="-650.2" font-family="Helvetica,sans-Serif" font-size="10.00">n0</text>
<text text-anchor="start" x="326.75" y="-650.2" font-family="Helvetica,sans-Serif" font-size="14.00">: init project</text>
<polygon fill="#dff7c7" stroke="none" points="316.5,-632.5 316.5,-647.5 378.5,-647.5 378.5,-632.5 316.5,-632.5"/>
<text text-anchor="start" x="327.25" y="-634.2" font-family="Helvetica,sans-Serif" font-size="14.00" fill="#000000">cost=5</text>
<polygon fill="#d0f7c7" stroke="none" points="316.5,-617.5 316.5,-632.5 378.5,-632.5 378.5,-617.5 316.5,-617.5"/>
<text text-anchor="start" x="325" y="-619.2" font-family="Helvetica,sans-Serif" font-size="14.00" fill="#000000">t=1 day</text>
</g>
<!-- n1 -->
<g id="node2" class="node">
<title>n1</title>
<polygon fill="#ffffff" stroke="black" points="500,-535 212,-535 212,-463 500,-463 500,-535"/>
<text text-anchor="start" x="302" y="-509.2" font-family="Helvetica,sans-Serif" font-size="10.00">n1</text>
<text text-anchor="start" x="312.5" y="-509.2" font-family="Helvetica,sans-Serif" font-size="14.00">: quick next step</text>
<polygon fill="#dff7c7" stroke="none" points="302,-491.5 302,-506.5 395,-506.5 395,-491.5 302,-491.5"/>
<text text-anchor="start" x="328.25" y="-493.2" font-family="Helvetica,sans-Serif" font-size="14.00" fill="#000000">cost=1</text>
<polygon fill="#d0f7c7" stroke="none" points="302,-476.5 302,-491.5 395,-491.5 395,-476.5 302,-476.5"/>
<text text-anchor="start" x="309.12" y="-478.2" font-family="Helvetica,sans-Serif" font-size="14.00" fill="#000000">t=10 minutes</text>
</g>
<!-- n0&#45;&gt;n1 -->
<g id="edge1" class="edge">
<title>n0&#45;&gt;n1</title>
<path fill="none" stroke="#000000" stroke-width="3" d="M356,-603.56C356,-587.23 356,-567.55 356,-549.76"/>
<polygon fill="#000000" stroke="#000000" stroke-width="3" points="359.5,-549.91 356,-539.91 352.5,-549.91 359.5,-549.91"/>
<text text-anchor="middle" x="363.5" y="-563.7" font-family="Helvetica,sans-Serif" font-size="14.00">e0</text>
</g>
<!-- n5 -->
<g id="node3" class="node">
<title>n5</title>
<polygon fill="#ffffff" stroke="black" points="628,-382 340,-382 340,-310 628,-310 628,-382"/>
<text text-anchor="start" x="432.25" y="-356.2" font-family="Helvetica,sans-Serif" font-size="10.00">n5</text>
<text text-anchor="start" x="442.75" y="-356.2" font-family="Helvetica,sans-Serif" font-size="14.00">: slow and easy</text>
<polygon fill="#dff7c7" stroke="none" points="432.5,-338.5 432.5,-353.5 506.5,-353.5 506.5,-338.5 432.5,-338.5"/>
<text text-anchor="start" x="449.25" y="-340.2" font-family="Helvetica,sans-Serif" font-size="14.00" fill="#000000">cost=1</text>
<polygon fill="#d0f7c7" stroke="none" points="432.5,-323.5 432.5,-338.5 506.5,-338.5 506.5,-323.5 432.5,-323.5"/>
<text text-anchor="start" x="447" y="-325.2" font-family="Helvetica,sans-Serif" font-size="14.00" fill="#000000">t=1 day</text>
</g>
<!-- n1&#45;&gt;n5 -->
<g id="edge5" class="edge">
<title>n1&#45;&gt;n5</title>
<path fill="none" stroke="#000000" stroke-width="3" d="M386.01,-462.6C403.52,-441.94 425.81,-415.64 444.71,-393.35"/>
<polygon fill="#000000" stroke="#000000" stroke-width="3" points="447.22,-395.8 451.02,-385.91 441.88,-391.27 447.22,-395.8"/>
<text text-anchor="middle" x="427.5" y="-422.7" font-family="Helvetica,sans-Serif" font-size="14.00">e4</text>
</g>
<!-- n2 -->
<g id="node4" class="node">
<title>n2</title>
<polygon fill="#ffffff" stroke="black" points="304,-382 16,-382 16,-310 304,-310 304,-382"/>
<text text-anchor="start" x="109.38" y="-356.2" font-family="Helvetica,sans-Serif" font-size="10.00">n2</text>
<text text-anchor="start" x="119.88" y="-356.2" font-family="Helvetica,sans-Serif" font-size="14.00">: rapid but hard</text>
<polygon fill="#dff7c7" stroke="none" points="109.5,-338.5 109.5,-353.5 198.5,-353.5 198.5,-338.5 109.5,-338.5"/>
<text text-anchor="start" x="133.75" y="-340.2" font-family="Helvetica,sans-Serif" font-size="14.00" fill="#000000">cost=9</text>
<polygon fill="#d0f7c7" stroke="none" points="109.5,-323.5 109.5,-338.5 198.5,-338.5 198.5,-323.5 109.5,-323.5"/>
<text text-anchor="start" x="114.62" y="-325.2" font-family="Helvetica,sans-Serif" font-size="14.00" fill="#000000">t=10 minutes</text>
</g>
<!-- n1&#45;&gt;n2 -->
<g id="edge2" class="edge">
<title>n1&#45;&gt;n2</title>
<path fill="none" stroke="#000000" stroke-width="3" d="M310.05,-462.6C282.38,-441.28 246.91,-413.96 217.41,-391.23"/>
<polygon fill="#000000" stroke="#000000" stroke-width="3" points="219.66,-388.54 209.6,-385.21 215.39,-394.09 219.66,-388.54"/>
<text text-anchor="middle" x="276.5" y="-422.7" font-family="Helvetica,sans-Serif" font-size="14.00">e1</text>
</g>
<!-- n4 -->
<g id="node6" class="node">
<title>n4</title>
<polygon fill="#ffffff" stroke="black" points="497,-88 209,-88 209,-16 497,-16 497,-88"/>
<text text-anchor="start" x="332.75" y="-62.2" font-family="Helvetica,sans-Serif" font-size="10.00">n4</text>
<text text-anchor="start" x="343.25" y="-62.2" font-family="Helvetica,sans-Serif" font-size="14.00">: end</text>
<polygon fill="#dff7c7" stroke="none" points="330.5,-44.5 330.5,-59.5 375.5,-59.5 375.5,-44.5 330.5,-44.5"/>
<text text-anchor="start" x="332.75" y="-46.2" font-family="Helvetica,sans-Serif" font-size="14.00" fill="#000000">cost=1</text>
<polygon fill="#d0f7c7" stroke="none" points="330.5,-29.5 330.5,-44.5 375.5,-44.5 375.5,-29.5 330.5,-29.5"/>
<text text-anchor="start" x="330.5" y="-31.2" font-family="Helvetica,sans-Serif" font-size="14.00" fill="#000000">t=1 day</text>
</g>
<!-- n5&#45;&gt;n4 -->
<g id="edge6" class="edge">
<title>n5&#45;&gt;n4</title>
<path fill="none" stroke="#000000" stroke-width="3" d="M468.2,-309.78C444.84,-257.71 401.02,-160.04 374.68,-101.32"/>
<polygon fill="#000000" stroke="#000000" stroke-width="3" points="378,-100.18 370.72,-92.49 371.62,-103.05 378,-100.18"/>
<text text-anchor="middle" x="442.5" y="-199.2" font-family="Helvetica,sans-Serif" font-size="14.00">e5</text>
</g>
<!-- n3 -->
<g id="node5" class="node">
<title>n3</title>
<polygon fill="#ffffff" stroke="black" points="304,-241 16,-241 16,-169 304,-169 304,-241"/>
<text text-anchor="start" x="106.75" y="-215.2" font-family="Helvetica,sans-Serif" font-size="10.00">n3</text>
<text text-anchor="start" x="117.25" y="-215.2" font-family="Helvetica,sans-Serif" font-size="14.00">: rapid and easy</text>
<polygon fill="#dff7c7" stroke="none" points="107,-197.5 107,-212.5 199,-212.5 199,-197.5 107,-197.5"/>
<text text-anchor="start" x="132.75" y="-199.2" font-family="Helvetica,sans-Serif" font-size="14.00" fill="#000000">cost=1</text>
<polygon fill="#d0f7c7" stroke="none" points="107,-182.5 107,-197.5 199,-197.5 199,-182.5 107,-182.5"/>
<text text-anchor="start" x="113.62" y="-184.2" font-family="Helvetica,sans-Serif" font-size="14.00" fill="#000000">t=10 minutes</text>
</g>
<!-- n2&#45;&gt;n3 -->
<g id="edge3" class="edge">
<title>n2&#45;&gt;n3</title>
<path fill="none" stroke="#000000" stroke-width="3" d="M160,-309.56C160,-293.23 160,-273.55 160,-255.76"/>
<polygon fill="#000000" stroke="#000000" stroke-width="3" points="163.5,-255.91 160,-245.91 156.5,-255.91 163.5,-255.91"/>
<text text-anchor="middle" x="167.5" y="-269.7" font-family="Helvetica,sans-Serif" font-size="14.00">e2</text>
</g>
<!-- n3&#45;&gt;n4 -->
<g id="edge4" class="edge">
<title>n3&#45;&gt;n4</title>
<path fill="none" stroke="#000000" stroke-width="3" d="M205.25,-168.6C232.5,-147.28 267.42,-119.96 296.47,-97.23"/>
<polygon fill="#000000" stroke="#000000" stroke-width="3" points="298.4,-100.16 304.12,-91.24 294.09,-94.65 298.4,-100.16"/>
<text text-anchor="middle" x="263.5" y="-128.7" font-family="Helvetica,sans-Serif" font-size="14.00">e3</text>
</g>
</g>
</svg>
