<?xml version="1.0" encoding="UTF-8" standalone="no"?>
<!DOCTYPE svg PUBLIC "-//W3C//DTD SVG 1.1//EN"
 "http://www.w3.org/Graphics/SVG/1.1/DTD/svg11.dtd">
<!-- Generated by graphviz version 9.0.0 (20230911.1827)
 -->
<!-- Pages: 1 -->
<svg width="510pt" height="701pt"
 viewBox="0.00 0.00 510.00 701.00" xmlns="http://www.w3.org/2000/svg" xmlns:xlink="http://www.w3.org/1999/xlink">
<g id="graph0" class="graph" transform="scale(1 1) rotate(0) translate(4 697)">
<polygon fill="white" stroke="none" points="-4,4 -4,-697 506,-697 506,4 -4,4"/>
<!-- n0 -->
<g id="node1" class="node">
<title>n0</title>
<polygon fill="#ffffff" stroke="black" points="449,-693 161,-693 161,-621 449,-621 449,-693"/>
<text text-anchor="start" x="265.25" y="-667.2" font-family="Helvetica,sans-Serif" font-size="10.00">n0</text>
<text text-anchor="start" x="275.75" y="-667.2" font-family="Helvetica,sans-Serif" font-size="14.00">: init project</text>
<polygon fill="#fcdfef" stroke="none" points="265.5,-649.5 265.5,-664.5 327.5,-664.5 327.5,-649.5 265.5,-649.5"/>
<text text-anchor="start" x="276.25" y="-651.2" font-family="Helvetica,sans-Serif" font-size="14.00" fill="#000000">cost=5</text>
<polygon fill="#c7eaff" stroke="none" points="265.5,-634.5 265.5,-649.5 327.5,-649.5 327.5,-634.5 265.5,-634.5"/>
<text text-anchor="start" x="274" y="-636.2" font-family="Helvetica,sans-Serif" font-size="14.00" fill="#000000">t=1 day</text>
</g>
<!-- n1 -->
<g id="node2" class="node">
<title>n1</title>
<polygon fill="#ffffff" stroke="black" points="449,-552 161,-552 161,-480 449,-480 449,-552"/>
<text text-anchor="start" x="251" y="-526.2" font-family="Helvetica,sans-Serif" font-size="10.00">n1</text>
<text text-anchor="start" x="261.5" y="-526.2" font-family="Helvetica,sans-Serif" font-size="14.00">: quick next step</text>
<polygon fill="#fcdfef" stroke="none" points="251,-508.5 251,-523.5 344,-523.5 344,-508.5 251,-508.5"/>
<text text-anchor="start" x="277.25" y="-510.2" font-family="Helvetica,sans-Serif" font-size="14.00" fill="#000000">cost=1</text>
<polygon fill="#c7eaff" stroke="none" points="251,-493.5 251,-508.5 344,-508.5 344,-493.5 251,-493.5"/>
<text text-anchor="start" x="258.12" y="-495.2" font-family="Helvetica,sans-Serif" font-size="14.00" fill="#000000">t=10 minutes</text>
</g>
<!-- n0&#45;&gt;n1 -->
<g id="edge1" class="edge">
<title>n0&#45;&gt;n1</title>
<path fill="none" stroke="#000000" stroke-width="3" d="M305,-620.56C305,-604.23 305,-584.55 305,-566.76"/>
<polygon fill="#000000" stroke="#000000" stroke-width="3" points="308.5,-566.91 305,-556.91 301.5,-566.91 308.5,-566.91"/>
<text text-anchor="middle" x="312.5" y="-580.7" font-family="Helvetica,sans-Serif" font-size="14.00">e0</text>
</g>
<!-- n2 -->
<g id="node3" class="node">
<title>n2</title>
<polygon fill="#ffffff" stroke="black" points="300,-411 12,-411 12,-339 300,-339 300,-411"/>
<text text-anchor="start" x="105.38" y="-385.2" font-family="Helvetica,sans-Serif" font-size="10.00">n2</text>
<text text-anchor="start" x="115.88" y="-385.2" font-family="Helvetica,sans-Serif" font-size="14.00">: rapid but hard</text>
<polygon fill="#fcdfef" stroke="none" points="105.5,-367.5 105.5,-382.5 194.5,-382.5 194.5,-367.5 105.5,-367.5"/>
<text text-anchor="start" x="129.75" y="-369.2" font-family="Helvetica,sans-Serif" font-size="14.00" fill="#000000">cost=9</text>
<polygon fill="#c7eaff" stroke="none" points="105.5,-352.5 105.5,-367.5 194.5,-367.5 194.5,-352.5 105.5,-352.5"/>
<text text-anchor="start" x="110.62" y="-354.2" font-family="Helvetica,sans-Serif" font-size="14.00" fill="#000000">t=10 minutes</text>
</g>
<!-- n1&#45;&gt;n2 -->
<g id="edge2" class="edge">
<title>n1&#45;&gt;n2</title>
<path fill="none" stroke="#000000" stroke-width="3" d="M267.02,-479.56C248.01,-461.84 224.8,-440.18 204.52,-421.27"/>
<polygon fill="#000000" stroke="#000000" stroke-width="3" points="206.94,-418.73 197.24,-414.47 202.16,-423.85 206.94,-418.73"/>
<text text-anchor="middle" x="242.5" y="-439.7" font-family="Helvetica,sans-Serif" font-size="14.00">e1</text>
</g>
<!-- n5 -->
<g id="node6" class="node">
<title>n5</title>
<polygon fill="#ffffff" stroke="black" points="502,-312 214,-312 214,-240 502,-240 502,-312"/>
<text text-anchor="start" x="306.25" y="-286.2" font-family="Helvetica,sans-Serif" font-size="10.00">n5</text>
<text text-anchor="start" x="316.75" y="-286.2" font-family="Helvetica,sans-Serif" font-size="14.00">: slow and easy</text>
<polygon fill="#fcdfef" stroke="none" points="306.5,-268.5 306.5,-283.5 380.5,-283.5 380.5,-268.5 306.5,-268.5"/>
<text text-anchor="start" x="323.25" y="-270.2" font-family="Helvetica,sans-Serif" font-size="14.00" fill="#000000">cost=1</text>
<polygon fill="#c7eaff" stroke="none" points="306.5,-253.5 306.5,-268.5 380.5,-268.5 380.5,-253.5 306.5,-253.5"/>
<text text-anchor="start" x="321" y="-255.2" font-family="Helvetica,sans-Serif" font-size="14.00" fill="#000000">t=1 day</text>
</g>
<!-- n1&#45;&gt;n5 -->
<g id="edge5" class="edge">
<title>n1&#45;&gt;n5</title>
<path fill="none" stroke="#000000" stroke-width="3" d="M312.88,-479.63C321.93,-438.96 336.85,-371.96 347.04,-326.22"/>
<polygon fill="#000000" stroke="#000000" stroke-width="3" points="350.42,-327.13 349.18,-316.61 343.59,-325.61 350.42,-327.13"/>
<text text-anchor="middle" x="328.5" y="-439.7" font-family="Helvetica,sans-Serif" font-size="14.00">e4</text>
</g>
<!-- n3 -->
<g id="node4" class="node">
<title>n3</title>
<polygon fill="#ffffff" stroke="black" points="288,-213 0,-213 0,-141 288,-141 288,-213"/>
<text text-anchor="start" x="90.75" y="-187.2" font-family="Helvetica,sans-Serif" font-size="10.00">n3</text>
<text text-anchor="start" x="101.25" y="-187.2" font-family="Helvetica,sans-Serif" font-size="14.00">: rapid and easy</text>
<polygon fill="#fcdfef" stroke="none" points="91,-169.5 91,-184.5 183,-184.5 183,-169.5 91,-169.5"/>
<text text-anchor="start" x="116.75" y="-171.2" font-family="Helvetica,sans-Serif" font-size="14.00" fill="#000000">cost=1</text>
<polygon fill="#c7eaff" stroke="none" points="91,-154.5 91,-169.5 183,-169.5 183,-154.5 91,-154.5"/>
<text text-anchor="start" x="97.62" y="-156.2" font-family="Helvetica,sans-Serif" font-size="14.00" fill="#000000">t=10 minutes</text>
</g>
<!-- n2&#45;&gt;n3 -->
<g id="edge3" class="edge">
<title>n2&#45;&gt;n3</title>
<path fill="none" stroke="#000000" stroke-width="3" d="M153.83,-338.51C151.92,-307.42 149.14,-261.95 147.02,-227.33"/>
<polygon fill="#000000" stroke="#000000" stroke-width="3" points="150.54,-227.53 146.43,-217.76 143.55,-227.96 150.54,-227.53"/>
<text text-anchor="middle" x="160.5" y="-270.2" font-family="Helvetica,sans-Serif" font-size="14.00">e2</text>
</g>
<!-- n4 -->
<g id="node5" class="node">
<title>n4</title>
<polygon fill="#ffffff" stroke="black" points="396,-72 108,-72 108,0 396,0 396,-72"/>
<text text-anchor="start" x="231.75" y="-46.2" font-family="Helvetica,sans-Serif" font-size="10.00">n4</text>
<text text-anchor="start" x="242.25" y="-46.2" font-family="Helvetica,sans-Serif" font-size="14.00">: end</text>
<polygon fill="#fcdfef" stroke="none" points="229.5,-28.5 229.5,-43.5 274.5,-43.5 274.5,-28.5 229.5,-28.5"/>
<text text-anchor="start" x="231.75" y="-30.2" font-family="Helvetica,sans-Serif" font-size="14.00" fill="#000000">cost=1</text>
<polygon fill="#c7eaff" stroke="none" points="229.5,-13.5 229.5,-28.5 274.5,-28.5 274.5,-13.5 229.5,-13.5"/>
<text text-anchor="start" x="229.5" y="-15.2" font-family="Helvetica,sans-Serif" font-size="14.00" fill="#000000">t=1 day</text>
</g>
<!-- n3&#45;&gt;n4 -->
<g id="edge4" class="edge">
<title>n3&#45;&gt;n4</title>
<path fill="none" stroke="#000000" stroke-width="3" d="M171.53,-140.56C184.92,-123.33 201.2,-102.38 215.61,-83.84"/>
<polygon fill="#000000" stroke="#000000" stroke-width="3" points="218.36,-86 221.73,-75.96 212.83,-81.71 218.36,-86"/>
<text text-anchor="middle" x="209.5" y="-100.7" font-family="Helvetica,sans-Serif" font-size="14.00">e3</text>
</g>
<!-- n5&#45;&gt;n4 -->
<g id="edge6" class="edge">
<title>n5&#45;&gt;n4</title>
<path fill="none" stroke="#000000" stroke-width="3" d="M345.45,-239.58C335.51,-212.32 320.85,-173.86 306,-141 297.59,-122.39 287.47,-102.38 278.27,-84.93"/>
<polygon fill="#000000" stroke="#000000" stroke-width="3" points="281.39,-83.34 273.6,-76.16 275.21,-86.63 281.39,-83.34"/>
<text text-anchor="middle" x="341.5" y="-171.2" font-family="Helvetica,sans-Serif" font-size="14.00">e5</text>
</g>
</g>
</svg>
