<?xml version="1.0" encoding="UTF-8" standalone="no"?>
<!DOCTYPE svg PUBLIC "-//W3C//DTD SVG 1.1//EN"
 "http://www.w3.org/Graphics/SVG/1.1/DTD/svg11.dtd">
<!-- Generated by graphviz version 9.0.0 (20230911.1827)
 -->
<!-- Pages: 1 -->
<svg width="296pt" height="221pt"
 viewBox="0.00 0.00 296.00 221.00" xmlns="http://www.w3.org/2000/svg" xmlns:xlink="http://www.w3.org/1999/xlink">
<g id="graph0" class="graph" transform="scale(1 1) rotate(0) translate(4 217)">
<polygon fill="white" stroke="none" points="-4,4 -4,-217 292,-217 292,4 -4,4"/>
<!-- n0 -->
<g id="node1" class="node">
<title>n0</title>
<polygon fill="#ffffff" stroke="black" points="288,-213 0,-213 0,-141 288,-141 288,-213"/>
<text text-anchor="start" x="109.5" y="-187.2" font-family="Helvetica,sans-Serif" font-size="10.00">n0</text>
<text text-anchor="start" x="120" y="-187.2" font-family="Helvetica,sans-Serif" font-size="14.00">: first step</text>
<polygon fill="#f37fc0" stroke="none" points="109.5,-169.5 109.5,-184.5 169.5,-184.5 169.5,-169.5 109.5,-169.5"/>
<text text-anchor="start" x="119.25" y="-171.2" font-family="Helvetica,sans-Serif" font-size="14.00" fill="#000000">cost=4</text>
<polygon fill="#22aeff" stroke="none" points="109.5,-154.5 109.5,-169.5 169.5,-169.5 169.5,-154.5 109.5,-154.5"/>
<text text-anchor="start" x="113.62" y="-156.2" font-family="Helvetica,sans-Serif" font-size="14.00" fill="#000000">t=4 days</text>
</g>
<!-- n1 -->
<g id="node2" class="node">
<title>n1</title>
<polygon fill="#ffffff" stroke="black" points="288,-72 0,-72 0,0 288,0 288,-72"/>
<text text-anchor="start" x="98.62" y="-53.7" font-family="Helvetica,sans-Serif" font-size="10.00">n1</text>
<text text-anchor="start" x="109.12" y="-53.7" font-family="Helvetica,sans-Serif" font-size="14.00">: second step</text>
<polygon fill="#f37fc0" stroke="none" points="99,-36 99,-51 186,-51 186,-36 99,-36"/>
<text text-anchor="start" x="122.25" y="-37.7" font-family="Helvetica,sans-Serif" font-size="14.00" fill="#000000">cost=9</text>
<polygon fill="#22aeff" stroke="none" points="99,-21 99,-36 186,-36 186,-21 99,-21"/>
<text text-anchor="start" x="116.62" y="-22.7" font-family="Helvetica,sans-Serif" font-size="14.00" fill="#000000">t=1 days</text>
<polygon fill="#e2954d" stroke="none" points="99,-6 99,-21 186,-21 186,-6 99,-6"/>
<text text-anchor="start" x="100.5" y="-7.7" font-family="Helvetica,sans-Serif" font-size="14.00" fill="#000000">slack=6 hours</text>
</g>
<!-- n0&#45;&gt;n1 -->
<g id="edge1" class="edge">
<title>n0&#45;&gt;n1</title>
<path fill="none" stroke="#000000" stroke-width="3" d="M144,-140.56C144,-124.23 144,-104.55 144,-86.76"/>
<polygon fill="#000000" stroke="#000000" stroke-width="3" points="147.5,-86.91 144,-76.91 140.5,-86.91 147.5,-86.91"/>
<text text-anchor="middle" x="151.5" y="-100.7" font-family="Helvetica,sans-Serif" font-size="14.00">e0</text>
</g>
</g>
</svg>
