<?xml version="1.0" encoding="UTF-8" standalone="no"?>
<!DOCTYPE svg PUBLIC "-//W3C//DTD SVG 1.1//EN"
 "http://www.w3.org/Graphics/SVG/1.1/DTD/svg11.dtd">
<!-- Generated by graphviz version 9.0.0 (20230911.1827)
 -->
<!-- Pages: 1 -->
<svg width="636pt" height="644pt"
 viewBox="0.00 0.00 636.00 644.00" xmlns="http://www.w3.org/2000/svg" xmlns:xlink="http://www.w3.org/1999/xlink">
<g id="graph0" class="graph" transform="scale(1 1) rotate(0) translate(4 640)">
<polygon fill="white" stroke="none" points="-4,4 -4,-640 632,-640 632,4 -4,4"/>
<g id="clust1" class="cluster">
<title>cluster_SG_SUBGRAPH</title>
<polygon fill="#f0caa6" stroke="black" points="316,-274 316,-362 620,-362 620,-274 316,-274"/>
</g>
<!-- n0 -->
<g id="node1" class="node">
<title>n0</title>
<polygon fill="#ffffff" stroke="black" points="450,-636 162,-636 162,-564 450,-564 450,-636"/>
<text text-anchor="start" x="266.25" y="-610.2" font-family="Helvetica,sans-Serif" font-size="10.00">n0</text>
<text text-anchor="start" x="276.75" y="-610.2" font-family="Helvetica,sans-Serif" font-size="14.00">: init project</text>
<polygon fill="#c7eaff" stroke="none" points="266.5,-592.5 266.5,-607.5 328.5,-607.5 328.5,-592.5 266.5,-592.5"/>
<text text-anchor="start" x="275" y="-594.2" font-family="Helvetica,sans-Serif" font-size="14.00" fill="#000000">t=1 day</text>
<polygon fill="#fcdfef" stroke="none" points="266.5,-577.5 266.5,-592.5 328.5,-592.5 328.5,-577.5 266.5,-577.5"/>
<text text-anchor="start" x="277.25" y="-579.2" font-family="Helvetica,sans-Serif" font-size="14.00" fill="#000000">cost=5</text>
</g>
<!-- n1 -->
<g id="node2" class="node">
<title>n1</title>
<polygon fill="#ffffff" stroke="black" points="450,-495 162,-495 162,-423 450,-423 450,-495"/>
<text text-anchor="start" x="252" y="-469.2" font-family="Helvetica,sans-Serif" font-size="10.00">n1</text>
<text text-anchor="start" x="262.5" y="-469.2" font-family="Helvetica,sans-Serif" font-size="14.00">: quick next step</text>
<polygon fill="#fcdfef" stroke="none" points="252,-451.5 252,-466.5 345,-466.5 345,-451.5 252,-451.5"/>
<text text-anchor="start" x="278.25" y="-453.2" font-family="Helvetica,sans-Serif" font-size="14.00" fill="#000000">cost=1</text>
<polygon fill="#c7eaff" stroke="none" points="252,-436.5 252,-451.5 345,-451.5 345,-436.5 252,-436.5"/>
<text text-anchor="start" x="259.12" y="-438.2" font-family="Helvetica,sans-Serif" font-size="14.00" fill="#000000">t=10 minutes</text>
</g>
<!-- n0&#45;&gt;n1 -->
<g id="edge1" class="edge">
<title>n0&#45;&gt;n1</title>
<path fill="none" stroke="#000000" stroke-width="3" d="M306,-563.56C306,-547.23 306,-527.55 306,-509.76"/>
<polygon fill="#000000" stroke="#000000" stroke-width="3" points="309.5,-509.91 306,-499.91 302.5,-509.91 309.5,-509.91"/>
<text text-anchor="middle" x="313.5" y="-523.7" font-family="Helvetica,sans-Serif" font-size="14.00">e0</text>
</g>
<!-- n2 -->
<g id="node3" class="node">
<title>n2</title>
<polygon fill="#ffffff" stroke="black" points="288,-354 0,-354 0,-282 288,-282 288,-354"/>
<text text-anchor="start" x="93.38" y="-328.2" font-family="Helvetica,sans-Serif" font-size="10.00">n2</text>
<text text-anchor="start" x="103.88" y="-328.2" font-family="Helvetica,sans-Serif" font-size="14.00">: rapid but hard</text>
<polygon fill="#c7eaff" stroke="none" points="93.5,-310.5 93.5,-325.5 182.5,-325.5 182.5,-310.5 93.5,-310.5"/>
<text text-anchor="start" x="98.62" y="-312.2" font-family="Helvetica,sans-Serif" font-size="14.00" fill="#000000">t=10 minutes</text>
<polygon fill="#fcdfef" stroke="none" points="93.5,-295.5 93.5,-310.5 182.5,-310.5 182.5,-295.5 93.5,-295.5"/>
<text text-anchor="start" x="117.75" y="-297.2" font-family="Helvetica,sans-Serif" font-size="14.00" fill="#000000">cost=9</text>
</g>
<!-- n1&#45;&gt;n2 -->
<g id="edge2" class="edge">
<title>n1&#45;&gt;n2</title>
<path fill="none" stroke="#000000" stroke-width="3" d="M264.7,-422.56C243.85,-404.67 218.34,-382.78 196.15,-363.74"/>
<polygon fill="#000000" stroke="#000000" stroke-width="3" points="198.54,-361.18 188.67,-357.33 193.98,-366.5 198.54,-361.18"/>
<text text-anchor="middle" x="237.5" y="-382.7" font-family="Helvetica,sans-Serif" font-size="14.00">e1</text>
</g>
<!-- n5 -->
<g id="node6" class="node">
<title>n5</title>
<polygon fill="#ffffff" stroke="black" points="612,-354 324,-354 324,-282 612,-282 612,-354"/>
<text text-anchor="start" x="416.25" y="-328.2" font-family="Helvetica,sans-Serif" font-size="10.00">n5</text>
<text text-anchor="start" x="426.75" y="-328.2" font-family="Helvetica,sans-Serif" font-size="14.00">: slow and easy</text>
<polygon fill="#fcdfef" stroke="none" points="416.5,-310.5 416.5,-325.5 490.5,-325.5 490.5,-310.5 416.5,-310.5"/>
<text text-anchor="start" x="433.25" y="-312.2" font-family="Helvetica,sans-Serif" font-size="14.00" fill="#000000">cost=1</text>
<polygon fill="#c7eaff" stroke="none" points="416.5,-295.5 416.5,-310.5 490.5,-310.5 490.5,-295.5 416.5,-295.5"/>
<text text-anchor="start" x="431" y="-297.2" font-family="Helvetica,sans-Serif" font-size="14.00" fill="#000000">t=1 day</text>
</g>
<!-- n1&#45;&gt;n5 -->
<g id="edge5" class="edge">
<title>n1&#45;&gt;n5</title>
<path fill="none" stroke="#000000" stroke-width="3" d="M347.3,-422.56C368.15,-404.67 393.66,-382.78 415.85,-363.74"/>
<polygon fill="#000000" stroke="#000000" stroke-width="3" points="418.02,-366.5 423.33,-357.33 413.46,-361.18 418.02,-366.5"/>
<text text-anchor="middle" x="398.5" y="-382.7" font-family="Helvetica,sans-Serif" font-size="14.00">e4</text>
</g>
<!-- n3 -->
<g id="node4" class="node">
<title>n3</title>
<polygon fill="#ffffff" stroke="black" points="369,-213 81,-213 81,-141 369,-141 369,-213"/>
<text text-anchor="start" x="171.75" y="-187.2" font-family="Helvetica,sans-Serif" font-size="10.00">n3</text>
<text text-anchor="start" x="182.25" y="-187.2" font-family="Helvetica,sans-Serif" font-size="14.00">: rapid and easy</text>
<polygon fill="#fcdfef" stroke="none" points="172,-169.5 172,-184.5 264,-184.5 264,-169.5 172,-169.5"/>
<text text-anchor="start" x="197.75" y="-171.2" font-family="Helvetica,sans-Serif" font-size="14.00" fill="#000000">cost=1</text>
<polygon fill="#c7eaff" stroke="none" points="172,-154.5 172,-169.5 264,-169.5 264,-154.5 172,-154.5"/>
<text text-anchor="start" x="178.62" y="-156.2" font-family="Helvetica,sans-Serif" font-size="14.00" fill="#000000">t=10 minutes</text>
</g>
<!-- n2&#45;&gt;n3 -->
<g id="edge3" class="edge">
<title>n2&#45;&gt;n3</title>
<path fill="none" stroke="#000000" stroke-width="3" d="M164.65,-281.56C174.5,-264.65 186.44,-244.17 197.09,-225.9"/>
<polygon fill="#000000" stroke="#000000" stroke-width="3" points="200.09,-227.7 202.1,-217.29 194.04,-224.17 200.09,-227.7"/>
<text text-anchor="middle" x="194.5" y="-241.7" font-family="Helvetica,sans-Serif" font-size="14.00">e2</text>
</g>
<!-- n4 -->
<g id="node5" class="node">
<title>n4</title>
<polygon fill="#ffffff" stroke="black" points="490,-72 202,-72 202,0 490,0 490,-72"/>
<text text-anchor="start" x="325.75" y="-46.2" font-family="Helvetica,sans-Serif" font-size="10.00">n4</text>
<text text-anchor="start" x="336.25" y="-46.2" font-family="Helvetica,sans-Serif" font-size="14.00">: end</text>
<polygon fill="#c7eaff" stroke="none" points="323.5,-28.5 323.5,-43.5 368.5,-43.5 368.5,-28.5 323.5,-28.5"/>
<text text-anchor="start" x="323.5" y="-30.2" font-family="Helvetica,sans-Serif" font-size="14.00" fill="#000000">t=1 day</text>
<polygon fill="#fcdfef" stroke="none" points="323.5,-13.5 323.5,-28.5 368.5,-28.5 368.5,-13.5 323.5,-13.5"/>
<text text-anchor="start" x="325.75" y="-15.2" font-family="Helvetica,sans-Serif" font-size="14.00" fill="#000000">cost=1</text>
</g>
<!-- n3&#45;&gt;n4 -->
<g id="edge4" class="edge">
<title>n3&#45;&gt;n4</title>
<path fill="none" stroke="#000000" stroke-width="3" d="M255.85,-140.56C270.99,-123.16 289.43,-101.98 305.68,-83.31"/>
<polygon fill="#000000" stroke="#000000" stroke-width="3" points="308.3,-85.64 312.23,-75.8 303.02,-81.04 308.3,-85.64"/>
<text text-anchor="middle" x="296.5" y="-100.7" font-family="Helvetica,sans-Serif" font-size="14.00">e3</text>
</g>
<!-- n5&#45;&gt;n4 -->
<g id="edge6" class="edge">
<title>n5&#45;&gt;n4</title>
<path fill="none" stroke="#000000" stroke-width="3" d="M452.55,-281.54C430.87,-231.78 391.36,-141.09 367.02,-85.24"/>
<polygon fill="#000000" stroke="#000000" stroke-width="3" points="370.34,-84.11 363.14,-76.34 363.93,-86.9 370.34,-84.11"/>
<text text-anchor="middle" x="428.5" y="-171.2" font-family="Helvetica,sans-Serif" font-size="14.00">e5</text>
</g>
</g>
</svg>
